M48
; DRILL file {KiCad (5.1.8)-1} date 08/18/21 15:50:39
; FORMAT={-:-/ absolute / metric / decimal}
; #@! TF.CreationDate,2021-08-18T15:50:39+02:00
; #@! TF.GenerationSoftware,Kicad,Pcbnew,(5.1.8)-1
FMAT,2
METRIC
T1C0.400
T2C0.450
T3C0.762
T4C0.800
T5C0.900
T6C1.000
T7C1.200
T8C2.300
T9C3.200
%
G90
G05
T1
X52.0Y-150.5
X53.0Y-151.5
X53.769Y-152.231
X54.5Y-153.0
X57.5Y-177.5
X57.5Y-178.5
X61.5Y-177.5
X64.595Y-149.595
X68.0Y-143.5
X68.0Y-146.0
X68.0Y-149.0
X68.0Y-150.0
X68.0Y-160.275
X68.0Y-168.0
X69.0Y-168.0
X69.448Y-156.546
X69.5Y-158.545
X69.5Y-155.5
X69.5Y-177.5
X69.502Y-157.545
X70.25Y-137.5
X70.5Y-154.2
X70.513Y-173.513
X70.75Y-142.5
X71.5Y-161.0
X71.513Y-154.213
X73.5Y-137.5
X77.7Y-173.6
X81.5Y-150.0
X83.75Y-142.5
T3
X41.38Y-170.38
X41.38Y-172.92
X41.38Y-175.46
X41.38Y-178.0
X41.38Y-180.54
X41.38Y-185.62
X41.38Y-134.38
X41.38Y-136.92
X41.38Y-139.46
X41.38Y-142.0
X41.38Y-144.54
X41.38Y-149.62
T4
X62.0Y-149.5
X62.0Y-172.5
X71.625Y-169.125
X73.0Y-144.0
X76.0Y-144.0
X79.25Y-140.13
T5
X83.75Y-145.25
X83.75Y-147.29
X83.75Y-149.33
X86.29Y-146.27
X86.29Y-148.31
X86.29Y-150.35
X83.75Y-162.5
X83.75Y-164.54
X83.75Y-166.58
X86.29Y-163.52
X86.29Y-165.56
X86.29Y-167.6
T6
X43.0Y-160.0
X54.96Y-180.54
X55.0Y-133.5
X55.0Y-160.0
X55.0Y-186.5
X60.5Y-188.0
X60.644Y-185.144
X85.0Y-135.0
X63.0Y-132.46
X63.0Y-135.0
X65.54Y-132.46
X65.54Y-135.0
X68.08Y-132.46
X68.08Y-135.0
T7
X31.5Y-141.5
X31.5Y-145.0
X31.5Y-165.0
X31.5Y-168.5
X31.5Y-172.0
X31.5Y-175.5
X31.5Y-179.0
X31.5Y-151.5
X31.5Y-155.0
X31.5Y-158.5
T8
X88.59Y-141.8
X88.59Y-153.8
X88.59Y-159.05
X88.59Y-171.05
T9
X24.5Y-135.0
X24.5Y-185.5
X90.5Y-135.0
X90.5Y-185.5
T2
G00X74.675Y-131.95
M15
G01X74.675Y-131.15
M16
G05
G00X81.825Y-131.15
M15
G01X81.825Y-131.95
M16
G05
T0
M30
