%TF.GenerationSoftware,KiCad,Pcbnew,(5.1.8)-1*%
%TF.CreationDate,2021-08-18T15:50:37+02:00*%
%TF.ProjectId,Haubenblitzer_Treiber,48617562-656e-4626-9c69-747a65725f54,rev?*%
%TF.SameCoordinates,Original*%
%TF.FileFunction,Paste,Top*%
%TF.FilePolarity,Positive*%
%FSLAX46Y46*%
G04 Gerber Fmt 4.6, Leading zero omitted, Abs format (unit mm)*
G04 Created by KiCad (PCBNEW (5.1.8)-1) date 2021-08-18 15:50:37*
%MOMM*%
%LPD*%
G01*
G04 APERTURE LIST*
%ADD10R,0.800000X2.200000*%
%ADD11R,5.800000X6.400000*%
%ADD12R,0.650000X1.060000*%
%ADD13R,3.810000X1.650000*%
%ADD14R,8.510000X7.870000*%
%ADD15R,1.200000X1.400000*%
%ADD16R,1.300000X2.000000*%
%ADD17R,2.000000X2.000000*%
%ADD18R,1.000000X0.500000*%
%ADD19R,1.500000X0.550000*%
%ADD20R,0.550000X1.500000*%
%ADD21R,1.150000X1.450000*%
%ADD22R,1.750000X1.900000*%
%ADD23R,0.400000X1.400000*%
G04 APERTURE END LIST*
D10*
%TO.C,U2*%
X63220000Y-179600000D03*
X64360000Y-179600000D03*
X66640000Y-179600000D03*
D11*
X65500000Y-185900000D03*
D10*
X67780000Y-179600000D03*
%TD*%
D12*
%TO.C,U5*%
X78250000Y-136400000D03*
X77300000Y-136400000D03*
X79200000Y-136400000D03*
X79200000Y-138600000D03*
X78250000Y-138600000D03*
X77300000Y-138600000D03*
%TD*%
%TO.C,R9*%
G36*
G01*
X90450002Y-174600000D02*
X89549998Y-174600000D01*
G75*
G02*
X89300000Y-174350002I0J249998D01*
G01*
X89300000Y-173824998D01*
G75*
G02*
X89549998Y-173575000I249998J0D01*
G01*
X90450002Y-173575000D01*
G75*
G02*
X90700000Y-173824998I0J-249998D01*
G01*
X90700000Y-174350002D01*
G75*
G02*
X90450002Y-174600000I-249998J0D01*
G01*
G37*
G36*
G01*
X90450002Y-176425000D02*
X89549998Y-176425000D01*
G75*
G02*
X89300000Y-176175002I0J249998D01*
G01*
X89300000Y-175649998D01*
G75*
G02*
X89549998Y-175400000I249998J0D01*
G01*
X90450002Y-175400000D01*
G75*
G02*
X90700000Y-175649998I0J-249998D01*
G01*
X90700000Y-176175002D01*
G75*
G02*
X90450002Y-176425000I-249998J0D01*
G01*
G37*
%TD*%
%TO.C,R8*%
G36*
G01*
X90450002Y-179100000D02*
X89549998Y-179100000D01*
G75*
G02*
X89300000Y-178850002I0J249998D01*
G01*
X89300000Y-178324998D01*
G75*
G02*
X89549998Y-178075000I249998J0D01*
G01*
X90450002Y-178075000D01*
G75*
G02*
X90700000Y-178324998I0J-249998D01*
G01*
X90700000Y-178850002D01*
G75*
G02*
X90450002Y-179100000I-249998J0D01*
G01*
G37*
G36*
G01*
X90450002Y-180925000D02*
X89549998Y-180925000D01*
G75*
G02*
X89300000Y-180675002I0J249998D01*
G01*
X89300000Y-180149998D01*
G75*
G02*
X89549998Y-179900000I249998J0D01*
G01*
X90450002Y-179900000D01*
G75*
G02*
X90700000Y-180149998I0J-249998D01*
G01*
X90700000Y-180675002D01*
G75*
G02*
X90450002Y-180925000I-249998J0D01*
G01*
G37*
%TD*%
%TO.C,R7*%
G36*
G01*
X74100000Y-162049998D02*
X74100000Y-162950002D01*
G75*
G02*
X73850002Y-163200000I-249998J0D01*
G01*
X73324998Y-163200000D01*
G75*
G02*
X73075000Y-162950002I0J249998D01*
G01*
X73075000Y-162049998D01*
G75*
G02*
X73324998Y-161800000I249998J0D01*
G01*
X73850002Y-161800000D01*
G75*
G02*
X74100000Y-162049998I0J-249998D01*
G01*
G37*
G36*
G01*
X75925000Y-162049998D02*
X75925000Y-162950002D01*
G75*
G02*
X75675002Y-163200000I-249998J0D01*
G01*
X75149998Y-163200000D01*
G75*
G02*
X74900000Y-162950002I0J249998D01*
G01*
X74900000Y-162049998D01*
G75*
G02*
X75149998Y-161800000I249998J0D01*
G01*
X75675002Y-161800000D01*
G75*
G02*
X75925000Y-162049998I0J-249998D01*
G01*
G37*
%TD*%
%TO.C,R6*%
G36*
G01*
X74900000Y-165450002D02*
X74900000Y-164549998D01*
G75*
G02*
X75149998Y-164300000I249998J0D01*
G01*
X75675002Y-164300000D01*
G75*
G02*
X75925000Y-164549998I0J-249998D01*
G01*
X75925000Y-165450002D01*
G75*
G02*
X75675002Y-165700000I-249998J0D01*
G01*
X75149998Y-165700000D01*
G75*
G02*
X74900000Y-165450002I0J249998D01*
G01*
G37*
G36*
G01*
X73075000Y-165450002D02*
X73075000Y-164549998D01*
G75*
G02*
X73324998Y-164300000I249998J0D01*
G01*
X73850002Y-164300000D01*
G75*
G02*
X74100000Y-164549998I0J-249998D01*
G01*
X74100000Y-165450002D01*
G75*
G02*
X73850002Y-165700000I-249998J0D01*
G01*
X73324998Y-165700000D01*
G75*
G02*
X73075000Y-165450002I0J249998D01*
G01*
G37*
%TD*%
%TO.C,R5*%
G36*
G01*
X65600000Y-162049998D02*
X65600000Y-162950002D01*
G75*
G02*
X65350002Y-163200000I-249998J0D01*
G01*
X64824998Y-163200000D01*
G75*
G02*
X64575000Y-162950002I0J249998D01*
G01*
X64575000Y-162049998D01*
G75*
G02*
X64824998Y-161800000I249998J0D01*
G01*
X65350002Y-161800000D01*
G75*
G02*
X65600000Y-162049998I0J-249998D01*
G01*
G37*
G36*
G01*
X67425000Y-162049998D02*
X67425000Y-162950002D01*
G75*
G02*
X67175002Y-163200000I-249998J0D01*
G01*
X66649998Y-163200000D01*
G75*
G02*
X66400000Y-162950002I0J249998D01*
G01*
X66400000Y-162049998D01*
G75*
G02*
X66649998Y-161800000I249998J0D01*
G01*
X67175002Y-161800000D01*
G75*
G02*
X67425000Y-162049998I0J-249998D01*
G01*
G37*
%TD*%
%TO.C,R4*%
G36*
G01*
X66400000Y-165450002D02*
X66400000Y-164549998D01*
G75*
G02*
X66649998Y-164300000I249998J0D01*
G01*
X67175002Y-164300000D01*
G75*
G02*
X67425000Y-164549998I0J-249998D01*
G01*
X67425000Y-165450002D01*
G75*
G02*
X67175002Y-165700000I-249998J0D01*
G01*
X66649998Y-165700000D01*
G75*
G02*
X66400000Y-165450002I0J249998D01*
G01*
G37*
G36*
G01*
X64575000Y-165450002D02*
X64575000Y-164549998D01*
G75*
G02*
X64824998Y-164300000I249998J0D01*
G01*
X65350002Y-164300000D01*
G75*
G02*
X65600000Y-164549998I0J-249998D01*
G01*
X65600000Y-165450002D01*
G75*
G02*
X65350002Y-165700000I-249998J0D01*
G01*
X64824998Y-165700000D01*
G75*
G02*
X64575000Y-165450002I0J249998D01*
G01*
G37*
%TD*%
%TO.C,D2*%
G36*
G01*
X93956250Y-174550000D02*
X93043750Y-174550000D01*
G75*
G02*
X92800000Y-174306250I0J243750D01*
G01*
X92800000Y-173818750D01*
G75*
G02*
X93043750Y-173575000I243750J0D01*
G01*
X93956250Y-173575000D01*
G75*
G02*
X94200000Y-173818750I0J-243750D01*
G01*
X94200000Y-174306250D01*
G75*
G02*
X93956250Y-174550000I-243750J0D01*
G01*
G37*
G36*
G01*
X93956250Y-176425000D02*
X93043750Y-176425000D01*
G75*
G02*
X92800000Y-176181250I0J243750D01*
G01*
X92800000Y-175693750D01*
G75*
G02*
X93043750Y-175450000I243750J0D01*
G01*
X93956250Y-175450000D01*
G75*
G02*
X94200000Y-175693750I0J-243750D01*
G01*
X94200000Y-176181250D01*
G75*
G02*
X93956250Y-176425000I-243750J0D01*
G01*
G37*
%TD*%
%TO.C,D1*%
G36*
G01*
X93956250Y-179050000D02*
X93043750Y-179050000D01*
G75*
G02*
X92800000Y-178806250I0J243750D01*
G01*
X92800000Y-178318750D01*
G75*
G02*
X93043750Y-178075000I243750J0D01*
G01*
X93956250Y-178075000D01*
G75*
G02*
X94200000Y-178318750I0J-243750D01*
G01*
X94200000Y-178806250D01*
G75*
G02*
X93956250Y-179050000I-243750J0D01*
G01*
G37*
G36*
G01*
X93956250Y-180925000D02*
X93043750Y-180925000D01*
G75*
G02*
X92800000Y-180681250I0J243750D01*
G01*
X92800000Y-180193750D01*
G75*
G02*
X93043750Y-179950000I243750J0D01*
G01*
X93956250Y-179950000D01*
G75*
G02*
X94200000Y-180193750I0J-243750D01*
G01*
X94200000Y-180681250D01*
G75*
G02*
X93956250Y-180925000I-243750J0D01*
G01*
G37*
%TD*%
%TO.C,C2*%
G36*
G01*
X42000000Y-162000000D02*
X44000000Y-162000000D01*
G75*
G02*
X44250000Y-162250000I0J-250000D01*
G01*
X44250000Y-165750000D01*
G75*
G02*
X44000000Y-166000000I-250000J0D01*
G01*
X42000000Y-166000000D01*
G75*
G02*
X41750000Y-165750000I0J250000D01*
G01*
X41750000Y-162250000D01*
G75*
G02*
X42000000Y-162000000I250000J0D01*
G01*
G37*
G36*
G01*
X42000000Y-154000000D02*
X44000000Y-154000000D01*
G75*
G02*
X44250000Y-154250000I0J-250000D01*
G01*
X44250000Y-157750000D01*
G75*
G02*
X44000000Y-158000000I-250000J0D01*
G01*
X42000000Y-158000000D01*
G75*
G02*
X41750000Y-157750000I0J250000D01*
G01*
X41750000Y-154250000D01*
G75*
G02*
X42000000Y-154000000I250000J0D01*
G01*
G37*
%TD*%
%TO.C,C1*%
G36*
G01*
X54000000Y-162000000D02*
X56000000Y-162000000D01*
G75*
G02*
X56250000Y-162250000I0J-250000D01*
G01*
X56250000Y-165750000D01*
G75*
G02*
X56000000Y-166000000I-250000J0D01*
G01*
X54000000Y-166000000D01*
G75*
G02*
X53750000Y-165750000I0J250000D01*
G01*
X53750000Y-162250000D01*
G75*
G02*
X54000000Y-162000000I250000J0D01*
G01*
G37*
G36*
G01*
X54000000Y-154000000D02*
X56000000Y-154000000D01*
G75*
G02*
X56250000Y-154250000I0J-250000D01*
G01*
X56250000Y-157750000D01*
G75*
G02*
X56000000Y-158000000I-250000J0D01*
G01*
X54000000Y-158000000D01*
G75*
G02*
X53750000Y-157750000I0J250000D01*
G01*
X53750000Y-154250000D01*
G75*
G02*
X54000000Y-154000000I250000J0D01*
G01*
G37*
%TD*%
D13*
%TO.C,R1*%
X72595000Y-186865000D03*
D14*
X80535000Y-183500000D03*
D13*
X72595000Y-180135000D03*
%TD*%
D15*
%TO.C,Y1*%
X62445000Y-145100000D03*
X62445000Y-142900000D03*
X64145000Y-142900000D03*
X64145000Y-145100000D03*
%TD*%
D16*
%TO.C,RV2*%
X75650000Y-171500000D03*
D17*
X74500000Y-175500000D03*
D16*
X73350000Y-171500000D03*
%TD*%
%TO.C,RV1*%
X67150000Y-171500000D03*
D17*
X66000000Y-175500000D03*
D16*
X64850000Y-171500000D03*
%TD*%
D18*
%TO.C,Q2*%
X75300000Y-167000000D03*
X75300000Y-169000000D03*
X73700000Y-168000000D03*
%TD*%
%TO.C,Q1*%
X66800000Y-167000000D03*
X66800000Y-169000000D03*
X65200000Y-168000000D03*
%TD*%
D19*
%TO.C,U1*%
X77950000Y-142750000D03*
X77950000Y-143550000D03*
X77950000Y-144350000D03*
X77950000Y-145150000D03*
X77950000Y-145950000D03*
X77950000Y-146750000D03*
X77950000Y-147550000D03*
X77950000Y-148350000D03*
X77950000Y-149150000D03*
X77950000Y-149950000D03*
X77950000Y-150750000D03*
D20*
X76250000Y-152450000D03*
X75450000Y-152450000D03*
X74650000Y-152450000D03*
X73850000Y-152450000D03*
X73050000Y-152450000D03*
X72250000Y-152450000D03*
X71450000Y-152450000D03*
X70650000Y-152450000D03*
X69850000Y-152450000D03*
X69050000Y-152450000D03*
X68250000Y-152450000D03*
D19*
X66550000Y-150750000D03*
X66550000Y-149950000D03*
X66550000Y-149150000D03*
X66550000Y-148350000D03*
X66550000Y-147550000D03*
X66550000Y-146750000D03*
X66550000Y-145950000D03*
X66550000Y-145150000D03*
X66550000Y-144350000D03*
X66550000Y-143550000D03*
X66550000Y-142750000D03*
D20*
X68250000Y-141050000D03*
X69050000Y-141050000D03*
X69850000Y-141050000D03*
X70650000Y-141050000D03*
X71450000Y-141050000D03*
X72250000Y-141050000D03*
X73050000Y-141050000D03*
X73850000Y-141050000D03*
X74650000Y-141050000D03*
X75450000Y-141050000D03*
X76250000Y-141050000D03*
%TD*%
%TO.C,R3*%
G36*
G01*
X80799998Y-137900000D02*
X81700002Y-137900000D01*
G75*
G02*
X81950000Y-138149998I0J-249998D01*
G01*
X81950000Y-138675002D01*
G75*
G02*
X81700002Y-138925000I-249998J0D01*
G01*
X80799998Y-138925000D01*
G75*
G02*
X80550000Y-138675002I0J249998D01*
G01*
X80550000Y-138149998D01*
G75*
G02*
X80799998Y-137900000I249998J0D01*
G01*
G37*
G36*
G01*
X80799998Y-136075000D02*
X81700002Y-136075000D01*
G75*
G02*
X81950000Y-136324998I0J-249998D01*
G01*
X81950000Y-136850002D01*
G75*
G02*
X81700002Y-137100000I-249998J0D01*
G01*
X80799998Y-137100000D01*
G75*
G02*
X80550000Y-136850002I0J249998D01*
G01*
X80550000Y-136324998D01*
G75*
G02*
X80799998Y-136075000I249998J0D01*
G01*
G37*
%TD*%
%TO.C,R2*%
G36*
G01*
X75700002Y-137100000D02*
X74799998Y-137100000D01*
G75*
G02*
X74550000Y-136850002I0J249998D01*
G01*
X74550000Y-136324998D01*
G75*
G02*
X74799998Y-136075000I249998J0D01*
G01*
X75700002Y-136075000D01*
G75*
G02*
X75950000Y-136324998I0J-249998D01*
G01*
X75950000Y-136850002D01*
G75*
G02*
X75700002Y-137100000I-249998J0D01*
G01*
G37*
G36*
G01*
X75700002Y-138925000D02*
X74799998Y-138925000D01*
G75*
G02*
X74550000Y-138675002I0J249998D01*
G01*
X74550000Y-138149998D01*
G75*
G02*
X74799998Y-137900000I249998J0D01*
G01*
X75700002Y-137900000D01*
G75*
G02*
X75950000Y-138149998I0J-249998D01*
G01*
X75950000Y-138675002D01*
G75*
G02*
X75700002Y-138925000I-249998J0D01*
G01*
G37*
%TD*%
D21*
%TO.C,J2*%
X80570000Y-133780000D03*
X75930000Y-133780000D03*
D22*
X79375000Y-131550000D03*
D23*
X78250000Y-134200000D03*
X77600000Y-134200000D03*
X76950000Y-134200000D03*
X79550000Y-134200000D03*
X78900000Y-134200000D03*
D22*
X77125000Y-131550000D03*
%TD*%
%TO.C,C5*%
G36*
G01*
X71275000Y-137950000D02*
X72225000Y-137950000D01*
G75*
G02*
X72475000Y-138200000I0J-250000D01*
G01*
X72475000Y-138700000D01*
G75*
G02*
X72225000Y-138950000I-250000J0D01*
G01*
X71275000Y-138950000D01*
G75*
G02*
X71025000Y-138700000I0J250000D01*
G01*
X71025000Y-138200000D01*
G75*
G02*
X71275000Y-137950000I250000J0D01*
G01*
G37*
G36*
G01*
X71275000Y-136050000D02*
X72225000Y-136050000D01*
G75*
G02*
X72475000Y-136300000I0J-250000D01*
G01*
X72475000Y-136800000D01*
G75*
G02*
X72225000Y-137050000I-250000J0D01*
G01*
X71275000Y-137050000D01*
G75*
G02*
X71025000Y-136800000I0J250000D01*
G01*
X71025000Y-136300000D01*
G75*
G02*
X71275000Y-136050000I250000J0D01*
G01*
G37*
%TD*%
%TO.C,C7*%
G36*
G01*
X63745000Y-141030000D02*
X63745000Y-140080000D01*
G75*
G02*
X63995000Y-139830000I250000J0D01*
G01*
X64495000Y-139830000D01*
G75*
G02*
X64745000Y-140080000I0J-250000D01*
G01*
X64745000Y-141030000D01*
G75*
G02*
X64495000Y-141280000I-250000J0D01*
G01*
X63995000Y-141280000D01*
G75*
G02*
X63745000Y-141030000I0J250000D01*
G01*
G37*
G36*
G01*
X61845000Y-141030000D02*
X61845000Y-140080000D01*
G75*
G02*
X62095000Y-139830000I250000J0D01*
G01*
X62595000Y-139830000D01*
G75*
G02*
X62845000Y-140080000I0J-250000D01*
G01*
X62845000Y-141030000D01*
G75*
G02*
X62595000Y-141280000I-250000J0D01*
G01*
X62095000Y-141280000D01*
G75*
G02*
X61845000Y-141030000I0J250000D01*
G01*
G37*
%TD*%
%TO.C,C6*%
G36*
G01*
X63745000Y-147875000D02*
X63745000Y-146925000D01*
G75*
G02*
X63995000Y-146675000I250000J0D01*
G01*
X64495000Y-146675000D01*
G75*
G02*
X64745000Y-146925000I0J-250000D01*
G01*
X64745000Y-147875000D01*
G75*
G02*
X64495000Y-148125000I-250000J0D01*
G01*
X63995000Y-148125000D01*
G75*
G02*
X63745000Y-147875000I0J250000D01*
G01*
G37*
G36*
G01*
X61845000Y-147875000D02*
X61845000Y-146925000D01*
G75*
G02*
X62095000Y-146675000I250000J0D01*
G01*
X62595000Y-146675000D01*
G75*
G02*
X62845000Y-146925000I0J-250000D01*
G01*
X62845000Y-147875000D01*
G75*
G02*
X62595000Y-148125000I-250000J0D01*
G01*
X62095000Y-148125000D01*
G75*
G02*
X61845000Y-147875000I0J250000D01*
G01*
G37*
%TD*%
%TO.C,C4*%
G36*
G01*
X78125000Y-156175000D02*
X78125000Y-157125000D01*
G75*
G02*
X77875000Y-157375000I-250000J0D01*
G01*
X77375000Y-157375000D01*
G75*
G02*
X77125000Y-157125000I0J250000D01*
G01*
X77125000Y-156175000D01*
G75*
G02*
X77375000Y-155925000I250000J0D01*
G01*
X77875000Y-155925000D01*
G75*
G02*
X78125000Y-156175000I0J-250000D01*
G01*
G37*
G36*
G01*
X80025000Y-156175000D02*
X80025000Y-157125000D01*
G75*
G02*
X79775000Y-157375000I-250000J0D01*
G01*
X79275000Y-157375000D01*
G75*
G02*
X79025000Y-157125000I0J250000D01*
G01*
X79025000Y-156175000D01*
G75*
G02*
X79275000Y-155925000I250000J0D01*
G01*
X79775000Y-155925000D01*
G75*
G02*
X80025000Y-156175000I0J-250000D01*
G01*
G37*
%TD*%
%TO.C,C3*%
G36*
G01*
X78125000Y-158715000D02*
X78125000Y-159665000D01*
G75*
G02*
X77875000Y-159915000I-250000J0D01*
G01*
X77375000Y-159915000D01*
G75*
G02*
X77125000Y-159665000I0J250000D01*
G01*
X77125000Y-158715000D01*
G75*
G02*
X77375000Y-158465000I250000J0D01*
G01*
X77875000Y-158465000D01*
G75*
G02*
X78125000Y-158715000I0J-250000D01*
G01*
G37*
G36*
G01*
X80025000Y-158715000D02*
X80025000Y-159665000D01*
G75*
G02*
X79775000Y-159915000I-250000J0D01*
G01*
X79275000Y-159915000D01*
G75*
G02*
X79025000Y-159665000I0J250000D01*
G01*
X79025000Y-158715000D01*
G75*
G02*
X79275000Y-158465000I250000J0D01*
G01*
X79775000Y-158465000D01*
G75*
G02*
X80025000Y-158715000I0J-250000D01*
G01*
G37*
%TD*%
M02*
