%TF.GenerationSoftware,KiCad,Pcbnew,(5.1.8)-1*%
%TF.CreationDate,2021-08-18T15:50:37+02:00*%
%TF.ProjectId,Haubenblitzer_Treiber,48617562-656e-4626-9c69-747a65725f54,rev?*%
%TF.SameCoordinates,Original*%
%TF.FileFunction,Copper,L2,Bot*%
%TF.FilePolarity,Positive*%
%FSLAX46Y46*%
G04 Gerber Fmt 4.6, Leading zero omitted, Abs format (unit mm)*
G04 Created by KiCad (PCBNEW (5.1.8)-1) date 2021-08-18 15:50:37*
%MOMM*%
%LPD*%
G01*
G04 APERTURE LIST*
%TA.AperFunction,ComponentPad*%
%ADD10C,1.524000*%
%TD*%
%TA.AperFunction,ComponentPad*%
%ADD11C,1.520000*%
%TD*%
%TA.AperFunction,ComponentPad*%
%ADD12R,1.520000X1.520000*%
%TD*%
%TA.AperFunction,ComponentPad*%
%ADD13C,2.400000*%
%TD*%
%TA.AperFunction,ComponentPad*%
%ADD14R,2.400000X2.400000*%
%TD*%
%TA.AperFunction,ComponentPad*%
%ADD15O,1.700000X1.700000*%
%TD*%
%TA.AperFunction,ComponentPad*%
%ADD16R,1.700000X1.700000*%
%TD*%
%TA.AperFunction,ComponentPad*%
%ADD17O,1.050000X1.900000*%
%TD*%
%TA.AperFunction,ViaPad*%
%ADD18C,1.600000*%
%TD*%
%TA.AperFunction,ViaPad*%
%ADD19C,2.000000*%
%TD*%
%TA.AperFunction,ViaPad*%
%ADD20C,0.800000*%
%TD*%
%TA.AperFunction,Conductor*%
%ADD21C,0.500000*%
%TD*%
%TA.AperFunction,Conductor*%
%ADD22C,2.000000*%
%TD*%
%TA.AperFunction,Conductor*%
%ADD23C,0.250000*%
%TD*%
%TA.AperFunction,Conductor*%
%ADD24C,0.254000*%
%TD*%
%TA.AperFunction,Conductor*%
%ADD25C,0.100000*%
%TD*%
G04 APERTURE END LIST*
D10*
%TO.P,U3,6*%
%TO.N,GND*%
X41380000Y-149620000D03*
%TO.P,U3,5*%
%TO.N,+12V*%
X41380000Y-144540000D03*
%TO.P,U3,4*%
%TO.N,LED1_Ref*%
X41380000Y-142000000D03*
%TO.P,U3,1*%
%TO.N,LED1_U+*%
X41380000Y-134380000D03*
%TO.P,U3,2*%
%TO.N,GND*%
X41380000Y-136920000D03*
%TO.P,U3,3*%
%TO.N,LED1_Ctrl*%
X41380000Y-139460000D03*
%TD*%
%TO.P,U4,6*%
%TO.N,GND*%
X41380000Y-185620000D03*
%TO.P,U4,5*%
%TO.N,+12V*%
X41380000Y-180540000D03*
%TO.P,U4,4*%
%TO.N,LED2_Ref*%
X41380000Y-178000000D03*
%TO.P,U4,1*%
%TO.N,LED2_U+*%
X41380000Y-170380000D03*
%TO.P,U4,2*%
%TO.N,GND*%
X41380000Y-172920000D03*
%TO.P,U4,3*%
%TO.N,LED2_Ctrl*%
X41380000Y-175460000D03*
%TD*%
D11*
%TO.P,J7,6*%
%TO.N,GND*%
X86290000Y-167600000D03*
%TO.P,J7,5*%
%TO.N,TX*%
X83750000Y-166580000D03*
%TO.P,J7,4*%
%TO.N,RX*%
X86290000Y-165560000D03*
%TO.P,J7,3*%
%TO.N,GND*%
X83750000Y-164540000D03*
%TO.P,J7,2*%
%TO.N,RJ12_V2*%
X86290000Y-163520000D03*
D12*
%TO.P,J7,1*%
%TO.N,RJ12_V1*%
X83750000Y-162500000D03*
%TD*%
D11*
%TO.P,J6,6*%
%TO.N,GND*%
X86290000Y-150350000D03*
%TO.P,J6,5*%
%TO.N,TX*%
X83750000Y-149330000D03*
%TO.P,J6,4*%
%TO.N,RX*%
X86290000Y-148310000D03*
%TO.P,J6,3*%
%TO.N,GND*%
X83750000Y-147290000D03*
%TO.P,J6,2*%
%TO.N,RJ12_V2*%
X86290000Y-146270000D03*
D12*
%TO.P,J6,1*%
%TO.N,RJ12_V1*%
X83750000Y-145250000D03*
%TD*%
D13*
%TO.P,J5,5*%
%TO.N,IO_misc4*%
X31500000Y-179000000D03*
%TO.P,J5,4*%
%TO.N,IO_misc3*%
X31500000Y-175500000D03*
%TO.P,J5,3*%
%TO.N,IO_misc2*%
X31500000Y-172000000D03*
%TO.P,J5,2*%
%TO.N,IO_misc1*%
X31500000Y-168500000D03*
D14*
%TO.P,J5,1*%
%TO.N,GND*%
X31500000Y-165000000D03*
%TD*%
D13*
%TO.P,J4,3*%
%TO.N,LED2_U+*%
X31500000Y-158500000D03*
%TO.P,J4,2*%
%TO.N,LED1_U+*%
X31500000Y-155000000D03*
D14*
%TO.P,J4,1*%
%TO.N,GND*%
X31500000Y-151500000D03*
%TD*%
D13*
%TO.P,J3,2*%
%TO.N,+12V*%
X31500000Y-145000000D03*
D14*
%TO.P,J3,1*%
%TO.N,GND*%
X31500000Y-141500000D03*
%TD*%
D15*
%TO.P,J1,6*%
%TO.N,GND*%
X68080000Y-132460000D03*
%TO.P,J1,5*%
%TO.N,RESET*%
X68080000Y-135000000D03*
%TO.P,J1,4*%
%TO.N,MOSI*%
X65540000Y-132460000D03*
%TO.P,J1,3*%
%TO.N,SCK*%
X65540000Y-135000000D03*
%TO.P,J1,2*%
%TO.N,LED1_Ref*%
X63000000Y-132460000D03*
D16*
%TO.P,J1,1*%
%TO.N,MISO*%
X63000000Y-135000000D03*
%TD*%
D17*
%TO.P,J2,6*%
%TO.N,GND*%
X74675000Y-131550000D03*
X81825000Y-131550000D03*
%TD*%
D18*
%TO.N,GND*%
X62000000Y-149500000D03*
X76000000Y-144000000D03*
X73000000Y-144000000D03*
X71625000Y-169125000D03*
X62000000Y-172500000D03*
X79250000Y-140130002D03*
D19*
X43000000Y-160000000D03*
X55000000Y-160000000D03*
X55000000Y-186500000D03*
X55000000Y-133500000D03*
X85000000Y-135000000D03*
D20*
%TO.N,LED1_Ref*%
X77700000Y-173600000D03*
X70512653Y-173512653D03*
D19*
%TO.N,+12V*%
X60500000Y-188000000D03*
X60644120Y-185144120D03*
X54960000Y-180540000D03*
D20*
%TO.N,CLK_2*%
X64595154Y-149595154D03*
X68000000Y-146000000D03*
%TO.N,RESET*%
X68000000Y-143500000D03*
%TO.N,U_bus*%
X73500000Y-137500000D03*
X70250000Y-137500000D03*
%TO.N,IO_misc4*%
X69499886Y-158544725D03*
X54500000Y-153000000D03*
%TO.N,IO_misc3*%
X69502442Y-157544727D03*
X53768941Y-152231059D03*
%TO.N,IO_misc2*%
X69447905Y-156546213D03*
X53000000Y-151500000D03*
%TO.N,IO_misc1*%
X69500000Y-155500000D03*
X52000000Y-150500000D03*
%TO.N,TX*%
X68000000Y-150000000D03*
X81500000Y-150000000D03*
%TO.N,RX*%
X68000000Y-149000000D03*
%TO.N,LED1_Ctrl*%
X68000000Y-160275000D03*
X68000000Y-168000000D03*
%TO.N,LED2_Ctrl*%
X61500000Y-177500000D03*
X57500000Y-177500000D03*
%TO.N,LED2_Ref*%
X57500000Y-178500000D03*
X69000000Y-168000000D03*
%TO.N,IO_LED*%
X71500000Y-161000000D03*
X71512653Y-154212653D03*
%TO.N,RX_LED*%
X70750000Y-142500000D03*
X83750000Y-142500000D03*
%TO.N,IO_FETctrl*%
X70500000Y-154200000D03*
X69500000Y-177500000D03*
%TD*%
D21*
%TO.N,GND*%
X38362002Y-172920000D02*
X41380000Y-172920000D01*
X31500000Y-166057998D02*
X38362002Y-172920000D01*
X31500000Y-165000000D02*
X31500000Y-166057998D01*
X29849999Y-163349999D02*
X31500000Y-165000000D01*
X29849999Y-153150001D02*
X29849999Y-163349999D01*
X31500000Y-151500000D02*
X29849999Y-153150001D01*
X29649999Y-149649999D02*
X31500000Y-151500000D01*
X29649999Y-144111999D02*
X29649999Y-149649999D01*
X31500000Y-142261998D02*
X29649999Y-144111999D01*
X31500000Y-141500000D02*
X31500000Y-142261998D01*
X36800000Y-141500000D02*
X41380000Y-136920000D01*
X31500000Y-141500000D02*
X36800000Y-141500000D01*
X36800000Y-145040000D02*
X36800000Y-141500000D01*
X41380000Y-149620000D02*
X36800000Y-145040000D01*
X68080000Y-132460000D02*
X69040000Y-131500000D01*
X74625000Y-131500000D02*
X74675000Y-131550000D01*
X69040000Y-131500000D02*
X74625000Y-131500000D01*
X74675000Y-131550000D02*
X81825000Y-131550000D01*
X76000000Y-144000000D02*
X73000000Y-144000000D01*
X82539999Y-165750001D02*
X83750000Y-164540000D01*
X82539999Y-167160801D02*
X82539999Y-165750001D01*
X83169199Y-167790001D02*
X82539999Y-167160801D01*
X86290000Y-167600000D02*
X86099999Y-167790001D01*
X79290000Y-147290000D02*
X76000000Y-144000000D01*
X83750000Y-147290000D02*
X79290000Y-147290000D01*
X72959999Y-167790001D02*
X84209999Y-167790001D01*
X71625000Y-169125000D02*
X72959999Y-167790001D01*
X84209999Y-167790001D02*
X83169199Y-167790001D01*
X86099999Y-167790001D02*
X84209999Y-167790001D01*
X41800000Y-172500000D02*
X41380000Y-172920000D01*
X62000000Y-172500000D02*
X41800000Y-172500000D01*
%TO.N,LED1_Ref*%
X77612653Y-173512653D02*
X77700000Y-173600000D01*
X70512653Y-173512653D02*
X77612653Y-173512653D01*
D22*
%TO.N,+12V*%
X53040000Y-180540000D02*
X60500000Y-188000000D01*
X41380000Y-180540000D02*
X53040000Y-180540000D01*
X60644120Y-185144120D02*
X56040000Y-180540000D01*
X54540000Y-180540000D02*
X60500000Y-186500000D01*
X56040000Y-180540000D02*
X54960000Y-180540000D01*
X54540000Y-180540000D02*
X53040000Y-180540000D01*
X54960000Y-180540000D02*
X54540000Y-180540000D01*
D23*
%TO.N,CLK_2*%
X68000000Y-146190308D02*
X68000000Y-146000000D01*
X64595154Y-149595154D02*
X68000000Y-146190308D01*
%TO.N,RESET*%
X68080000Y-143420000D02*
X68000000Y-143500000D01*
X68080000Y-135000000D02*
X68080000Y-143420000D01*
%TO.N,U_bus*%
X73500000Y-137500000D02*
X70250000Y-137500000D01*
D22*
%TO.N,LED2_U+*%
X31500000Y-160500000D02*
X41380000Y-170380000D01*
X31500000Y-158500000D02*
X31500000Y-160500000D01*
%TO.N,LED1_U+*%
X43542001Y-150361761D02*
X38903762Y-155000000D01*
X43542001Y-136178239D02*
X43542001Y-150361761D01*
X42321761Y-134957999D02*
X43542001Y-136178239D01*
X41457999Y-134957999D02*
X42321761Y-134957999D01*
X41380000Y-134880000D02*
X41457999Y-134957999D01*
X38903762Y-155000000D02*
X31500000Y-155000000D01*
X41380000Y-134380000D02*
X41380000Y-134880000D01*
D23*
%TO.N,IO_misc4*%
X60044725Y-158544725D02*
X69499886Y-158544725D01*
X54500000Y-153000000D02*
X60044725Y-158544725D01*
%TO.N,IO_misc3*%
X54804061Y-152231059D02*
X53768941Y-152231059D01*
X60117729Y-157544727D02*
X54804061Y-152231059D01*
X69502442Y-157544727D02*
X60117729Y-157544727D01*
%TO.N,IO_misc2*%
X69447905Y-156546213D02*
X60046213Y-156546213D01*
X55000000Y-151500000D02*
X53000000Y-151500000D01*
X60046213Y-156546213D02*
X55000000Y-151500000D01*
%TO.N,IO_misc1*%
X55500000Y-150500000D02*
X52000000Y-150500000D01*
X60500000Y-155500000D02*
X55500000Y-150500000D01*
X69500000Y-155500000D02*
X60500000Y-155500000D01*
%TO.N,TX*%
X68000000Y-150000000D02*
X81500000Y-150000000D01*
%TO.N,RX*%
X84270801Y-150415001D02*
X86290000Y-148395802D01*
X83229199Y-150415001D02*
X84270801Y-150415001D01*
X86290000Y-148395802D02*
X86290000Y-148310000D01*
X81814198Y-149000000D02*
X83229199Y-150415001D01*
X68000000Y-149000000D02*
X81814198Y-149000000D01*
%TO.N,LED1_Ctrl*%
X68000000Y-160275000D02*
X68000000Y-168000000D01*
%TO.N,LED2_Ctrl*%
X61500000Y-177500000D02*
X57500000Y-177500000D01*
%TO.N,LED2_Ref*%
X69000000Y-171073002D02*
X69000000Y-168000000D01*
X61573002Y-178500000D02*
X69000000Y-171073002D01*
X57500000Y-178500000D02*
X61573002Y-178500000D01*
%TO.N,IO_LED*%
X71512653Y-160987347D02*
X71500000Y-161000000D01*
X71512653Y-154212653D02*
X71512653Y-160987347D01*
%TO.N,RX_LED*%
X70750000Y-142500000D02*
X83750000Y-142500000D01*
%TO.N,IO_FETctrl*%
X70500000Y-154200000D02*
X70500000Y-172500000D01*
X69500000Y-173500000D02*
X70500000Y-172500000D01*
X69500000Y-177500000D02*
X69500000Y-173500000D01*
%TO.N,RJ12_V2*%
X90065001Y-150045001D02*
X90065001Y-159744999D01*
X90065001Y-159744999D02*
X86290000Y-163520000D01*
X86290000Y-146270000D02*
X90065001Y-150045001D01*
%TD*%
D24*
%TO.N,GND*%
X73870540Y-130287379D02*
X73781053Y-130374941D01*
X73651901Y-130563754D01*
X73562066Y-130774135D01*
X73515000Y-130998000D01*
X73515000Y-131423000D01*
X74548000Y-131423000D01*
X74548000Y-131403000D01*
X74802000Y-131403000D01*
X74802000Y-131423000D01*
X75835000Y-131423000D01*
X75835000Y-130998000D01*
X75787934Y-130774135D01*
X75698099Y-130563754D01*
X75568947Y-130374941D01*
X75480593Y-130288488D01*
X81015511Y-130292300D01*
X80931053Y-130374941D01*
X80801901Y-130563754D01*
X80712066Y-130774135D01*
X80665000Y-130998000D01*
X80665000Y-131423000D01*
X81698000Y-131423000D01*
X81698000Y-131403000D01*
X81952000Y-131403000D01*
X81952000Y-131423000D01*
X82985000Y-131423000D01*
X82985000Y-130998000D01*
X82937934Y-130774135D01*
X82848099Y-130563754D01*
X82718947Y-130374941D01*
X82635629Y-130293416D01*
X92952745Y-130300522D01*
X93360169Y-130424384D01*
X93746941Y-130630986D01*
X94086223Y-130908783D01*
X94365081Y-131247186D01*
X94572901Y-131633308D01*
X94701764Y-132052442D01*
X94748000Y-132500621D01*
X94748001Y-187487668D01*
X94704002Y-187936401D01*
X94577264Y-188356182D01*
X94371400Y-188743355D01*
X94094259Y-189083166D01*
X93756387Y-189362676D01*
X93370669Y-189571234D01*
X92951784Y-189700900D01*
X92503798Y-189747986D01*
X92499691Y-189748000D01*
X22512322Y-189748000D01*
X22063599Y-189704002D01*
X21643818Y-189577264D01*
X21256645Y-189371400D01*
X20916834Y-189094259D01*
X20637324Y-188756387D01*
X20428766Y-188370669D01*
X20299100Y-187951784D01*
X20252014Y-187503798D01*
X20252000Y-187499691D01*
X20252000Y-185310207D01*
X22573000Y-185310207D01*
X22573000Y-185689793D01*
X22647053Y-186062085D01*
X22792315Y-186412777D01*
X23003201Y-186728391D01*
X23271609Y-186996799D01*
X23587223Y-187207685D01*
X23937915Y-187352947D01*
X24310207Y-187427000D01*
X24689793Y-187427000D01*
X25062085Y-187352947D01*
X25412777Y-187207685D01*
X25728391Y-186996799D01*
X25996799Y-186728391D01*
X26092232Y-186585565D01*
X40594040Y-186585565D01*
X40661020Y-186825656D01*
X40910048Y-186942756D01*
X41177135Y-187009023D01*
X41452017Y-187021910D01*
X41724133Y-186980922D01*
X41983023Y-186887636D01*
X42098980Y-186825656D01*
X42165960Y-186585565D01*
X41380000Y-185799605D01*
X40594040Y-186585565D01*
X26092232Y-186585565D01*
X26207685Y-186412777D01*
X26352947Y-186062085D01*
X26426557Y-185692017D01*
X39978090Y-185692017D01*
X40019078Y-185964133D01*
X40112364Y-186223023D01*
X40174344Y-186338980D01*
X40414435Y-186405960D01*
X41200395Y-185620000D01*
X41559605Y-185620000D01*
X42345565Y-186405960D01*
X42585656Y-186338980D01*
X42702756Y-186089952D01*
X42769023Y-185822865D01*
X42781910Y-185547983D01*
X42740922Y-185275867D01*
X42647636Y-185016977D01*
X42585656Y-184901020D01*
X42345565Y-184834040D01*
X41559605Y-185620000D01*
X41200395Y-185620000D01*
X40414435Y-184834040D01*
X40174344Y-184901020D01*
X40057244Y-185150048D01*
X39990977Y-185417135D01*
X39978090Y-185692017D01*
X26426557Y-185692017D01*
X26427000Y-185689793D01*
X26427000Y-185310207D01*
X26352947Y-184937915D01*
X26235526Y-184654435D01*
X40594040Y-184654435D01*
X41380000Y-185440395D01*
X42165960Y-184654435D01*
X42098980Y-184414344D01*
X41849952Y-184297244D01*
X41582865Y-184230977D01*
X41307983Y-184218090D01*
X41035867Y-184259078D01*
X40776977Y-184352364D01*
X40661020Y-184414344D01*
X40594040Y-184654435D01*
X26235526Y-184654435D01*
X26207685Y-184587223D01*
X25996799Y-184271609D01*
X25728391Y-184003201D01*
X25412777Y-183792315D01*
X25062085Y-183647053D01*
X24689793Y-183573000D01*
X24310207Y-183573000D01*
X23937915Y-183647053D01*
X23587223Y-183792315D01*
X23271609Y-184003201D01*
X23003201Y-184271609D01*
X22792315Y-184587223D01*
X22647053Y-184937915D01*
X22573000Y-185310207D01*
X20252000Y-185310207D01*
X20252000Y-180540000D01*
X39845612Y-180540000D01*
X39875095Y-180839344D01*
X39962410Y-181127185D01*
X40104203Y-181392460D01*
X40295024Y-181624976D01*
X40527540Y-181815797D01*
X40792815Y-181957590D01*
X41080656Y-182044905D01*
X41304989Y-182067000D01*
X52407497Y-182067000D01*
X59313899Y-188973403D01*
X59313901Y-188973406D01*
X59526594Y-189186099D01*
X59589281Y-189227985D01*
X59647539Y-189275796D01*
X59714007Y-189311324D01*
X59776694Y-189353210D01*
X59846346Y-189382061D01*
X59912814Y-189417589D01*
X59984933Y-189439466D01*
X60054590Y-189468319D01*
X60128540Y-189483028D01*
X60200655Y-189504904D01*
X60275655Y-189512291D01*
X60349604Y-189527000D01*
X60424998Y-189527000D01*
X60499999Y-189534387D01*
X60575000Y-189527000D01*
X60650396Y-189527000D01*
X60724346Y-189512291D01*
X60799344Y-189504904D01*
X60871456Y-189483029D01*
X60945410Y-189468319D01*
X61015072Y-189439464D01*
X61087184Y-189417589D01*
X61153646Y-189382064D01*
X61223306Y-189353210D01*
X61285998Y-189311321D01*
X61352460Y-189275796D01*
X61410715Y-189227988D01*
X61473406Y-189186099D01*
X61526719Y-189132786D01*
X61584976Y-189084976D01*
X61632786Y-189026719D01*
X61686099Y-188973406D01*
X61727988Y-188910715D01*
X61775796Y-188852460D01*
X61811321Y-188785998D01*
X61853210Y-188723306D01*
X61882064Y-188653646D01*
X61917589Y-188587184D01*
X61939464Y-188515072D01*
X61968319Y-188445410D01*
X61983029Y-188371456D01*
X62004904Y-188299344D01*
X62012291Y-188224346D01*
X62027000Y-188150396D01*
X62027000Y-188075000D01*
X62034387Y-187999999D01*
X62027000Y-187924998D01*
X62027000Y-187849604D01*
X62012291Y-187775655D01*
X62004904Y-187700655D01*
X61983028Y-187628540D01*
X61968319Y-187554590D01*
X61939466Y-187484933D01*
X61917589Y-187412814D01*
X61882061Y-187346346D01*
X61853210Y-187276694D01*
X61832701Y-187246000D01*
X61917590Y-187087185D01*
X62004905Y-186799344D01*
X62034387Y-186500000D01*
X62004905Y-186200655D01*
X61934642Y-185969029D01*
X61955443Y-185930115D01*
X61997330Y-185867426D01*
X62026180Y-185797776D01*
X62061710Y-185731305D01*
X62083587Y-185659183D01*
X62112439Y-185589530D01*
X62127148Y-185515579D01*
X62149024Y-185443464D01*
X62156411Y-185368466D01*
X62167998Y-185310207D01*
X88573000Y-185310207D01*
X88573000Y-185689793D01*
X88647053Y-186062085D01*
X88792315Y-186412777D01*
X89003201Y-186728391D01*
X89271609Y-186996799D01*
X89587223Y-187207685D01*
X89937915Y-187352947D01*
X90310207Y-187427000D01*
X90689793Y-187427000D01*
X91062085Y-187352947D01*
X91412777Y-187207685D01*
X91728391Y-186996799D01*
X91996799Y-186728391D01*
X92207685Y-186412777D01*
X92352947Y-186062085D01*
X92427000Y-185689793D01*
X92427000Y-185310207D01*
X92352947Y-184937915D01*
X92207685Y-184587223D01*
X91996799Y-184271609D01*
X91728391Y-184003201D01*
X91412777Y-183792315D01*
X91062085Y-183647053D01*
X90689793Y-183573000D01*
X90310207Y-183573000D01*
X89937915Y-183647053D01*
X89587223Y-183792315D01*
X89271609Y-184003201D01*
X89003201Y-184271609D01*
X88792315Y-184587223D01*
X88647053Y-184937915D01*
X88573000Y-185310207D01*
X62167998Y-185310207D01*
X62171120Y-185294516D01*
X62171120Y-185219121D01*
X62178507Y-185144120D01*
X62171120Y-185069119D01*
X62171120Y-184993724D01*
X62156411Y-184919775D01*
X62149024Y-184844775D01*
X62127148Y-184772659D01*
X62112439Y-184698710D01*
X62083588Y-184629057D01*
X62061710Y-184556935D01*
X62026180Y-184490463D01*
X61997330Y-184420814D01*
X61955445Y-184358128D01*
X61919916Y-184291659D01*
X61872105Y-184233401D01*
X61830219Y-184170714D01*
X61617526Y-183958021D01*
X61617523Y-183958019D01*
X57172797Y-179513294D01*
X57124976Y-179455024D01*
X56892460Y-179264203D01*
X56627185Y-179122410D01*
X56339344Y-179035095D01*
X56115011Y-179013000D01*
X56115001Y-179013000D01*
X56040000Y-179005613D01*
X55964999Y-179013000D01*
X54615001Y-179013000D01*
X54540000Y-179005613D01*
X54464999Y-179013000D01*
X53115001Y-179013000D01*
X53040000Y-179005613D01*
X52964999Y-179013000D01*
X41780095Y-179013000D01*
X41895835Y-178965059D01*
X42074197Y-178845881D01*
X42225881Y-178694197D01*
X42345059Y-178515835D01*
X42427150Y-178317650D01*
X42469000Y-178107257D01*
X42469000Y-177892743D01*
X42427150Y-177682350D01*
X42345059Y-177484165D01*
X42307796Y-177428397D01*
X56773000Y-177428397D01*
X56773000Y-177571603D01*
X56800938Y-177712058D01*
X56855741Y-177844364D01*
X56935302Y-177963436D01*
X56971866Y-178000000D01*
X56935302Y-178036564D01*
X56855741Y-178155636D01*
X56800938Y-178287942D01*
X56773000Y-178428397D01*
X56773000Y-178571603D01*
X56800938Y-178712058D01*
X56855741Y-178844364D01*
X56935302Y-178963436D01*
X57036564Y-179064698D01*
X57155636Y-179144259D01*
X57287942Y-179199062D01*
X57428397Y-179227000D01*
X57571603Y-179227000D01*
X57712058Y-179199062D01*
X57844364Y-179144259D01*
X57963436Y-179064698D01*
X58064698Y-178963436D01*
X58072339Y-178952000D01*
X61550797Y-178952000D01*
X61573002Y-178954187D01*
X61595207Y-178952000D01*
X61661609Y-178945460D01*
X61746812Y-178919614D01*
X61825335Y-178877643D01*
X61894161Y-178821159D01*
X61908325Y-178803900D01*
X69303912Y-171408315D01*
X69321159Y-171394161D01*
X69377643Y-171325335D01*
X69419614Y-171246812D01*
X69445460Y-171161609D01*
X69452000Y-171095207D01*
X69452000Y-171095206D01*
X69454187Y-171073003D01*
X69452000Y-171050798D01*
X69452000Y-168572339D01*
X69463436Y-168564698D01*
X69564698Y-168463436D01*
X69644259Y-168344364D01*
X69699062Y-168212058D01*
X69727000Y-168071603D01*
X69727000Y-167928397D01*
X69699062Y-167787942D01*
X69644259Y-167655636D01*
X69564698Y-167536564D01*
X69463436Y-167435302D01*
X69344364Y-167355741D01*
X69212058Y-167300938D01*
X69071603Y-167273000D01*
X68928397Y-167273000D01*
X68787942Y-167300938D01*
X68655636Y-167355741D01*
X68536564Y-167435302D01*
X68500000Y-167471866D01*
X68463436Y-167435302D01*
X68452000Y-167427661D01*
X68452000Y-160847339D01*
X68463436Y-160839698D01*
X68564698Y-160738436D01*
X68644259Y-160619364D01*
X68699062Y-160487058D01*
X68727000Y-160346603D01*
X68727000Y-160203397D01*
X68699062Y-160062942D01*
X68644259Y-159930636D01*
X68564698Y-159811564D01*
X68463436Y-159710302D01*
X68344364Y-159630741D01*
X68212058Y-159575938D01*
X68071603Y-159548000D01*
X67928397Y-159548000D01*
X67787942Y-159575938D01*
X67655636Y-159630741D01*
X67536564Y-159710302D01*
X67435302Y-159811564D01*
X67355741Y-159930636D01*
X67300938Y-160062942D01*
X67273000Y-160203397D01*
X67273000Y-160346603D01*
X67300938Y-160487058D01*
X67355741Y-160619364D01*
X67435302Y-160738436D01*
X67536564Y-160839698D01*
X67548000Y-160847339D01*
X67548001Y-167427660D01*
X67536564Y-167435302D01*
X67435302Y-167536564D01*
X67355741Y-167655636D01*
X67300938Y-167787942D01*
X67273000Y-167928397D01*
X67273000Y-168071603D01*
X67300938Y-168212058D01*
X67355741Y-168344364D01*
X67435302Y-168463436D01*
X67536564Y-168564698D01*
X67655636Y-168644259D01*
X67787942Y-168699062D01*
X67928397Y-168727000D01*
X68071603Y-168727000D01*
X68212058Y-168699062D01*
X68344364Y-168644259D01*
X68463436Y-168564698D01*
X68500000Y-168528134D01*
X68536564Y-168564698D01*
X68548001Y-168572340D01*
X68548000Y-170885777D01*
X62183473Y-177250306D01*
X62144259Y-177155636D01*
X62064698Y-177036564D01*
X61963436Y-176935302D01*
X61844364Y-176855741D01*
X61712058Y-176800938D01*
X61571603Y-176773000D01*
X61428397Y-176773000D01*
X61287942Y-176800938D01*
X61155636Y-176855741D01*
X61036564Y-176935302D01*
X60935302Y-177036564D01*
X60927661Y-177048000D01*
X58072339Y-177048000D01*
X58064698Y-177036564D01*
X57963436Y-176935302D01*
X57844364Y-176855741D01*
X57712058Y-176800938D01*
X57571603Y-176773000D01*
X57428397Y-176773000D01*
X57287942Y-176800938D01*
X57155636Y-176855741D01*
X57036564Y-176935302D01*
X56935302Y-177036564D01*
X56855741Y-177155636D01*
X56800938Y-177287942D01*
X56773000Y-177428397D01*
X42307796Y-177428397D01*
X42225881Y-177305803D01*
X42074197Y-177154119D01*
X41895835Y-177034941D01*
X41697650Y-176952850D01*
X41487257Y-176911000D01*
X41272743Y-176911000D01*
X41062350Y-176952850D01*
X40864165Y-177034941D01*
X40685803Y-177154119D01*
X40534119Y-177305803D01*
X40414941Y-177484165D01*
X40332850Y-177682350D01*
X40291000Y-177892743D01*
X40291000Y-178107257D01*
X40332850Y-178317650D01*
X40414941Y-178515835D01*
X40534119Y-178694197D01*
X40685803Y-178845881D01*
X40864165Y-178965059D01*
X41053289Y-179043397D01*
X40792815Y-179122410D01*
X40527540Y-179264203D01*
X40295024Y-179455024D01*
X40104203Y-179687540D01*
X39962410Y-179952815D01*
X39875095Y-180240656D01*
X39845612Y-180540000D01*
X20252000Y-180540000D01*
X20252000Y-178849604D01*
X29973000Y-178849604D01*
X29973000Y-179150396D01*
X30031681Y-179445410D01*
X30146790Y-179723306D01*
X30313901Y-179973406D01*
X30526594Y-180186099D01*
X30776694Y-180353210D01*
X31054590Y-180468319D01*
X31349604Y-180527000D01*
X31650396Y-180527000D01*
X31945410Y-180468319D01*
X32223306Y-180353210D01*
X32473406Y-180186099D01*
X32686099Y-179973406D01*
X32853210Y-179723306D01*
X32968319Y-179445410D01*
X33027000Y-179150396D01*
X33027000Y-178849604D01*
X32968319Y-178554590D01*
X32853210Y-178276694D01*
X32686099Y-178026594D01*
X32473406Y-177813901D01*
X32223306Y-177646790D01*
X31945410Y-177531681D01*
X31650396Y-177473000D01*
X31349604Y-177473000D01*
X31054590Y-177531681D01*
X30776694Y-177646790D01*
X30526594Y-177813901D01*
X30313901Y-178026594D01*
X30146790Y-178276694D01*
X30031681Y-178554590D01*
X29973000Y-178849604D01*
X20252000Y-178849604D01*
X20252000Y-175349604D01*
X29973000Y-175349604D01*
X29973000Y-175650396D01*
X30031681Y-175945410D01*
X30146790Y-176223306D01*
X30313901Y-176473406D01*
X30526594Y-176686099D01*
X30776694Y-176853210D01*
X31054590Y-176968319D01*
X31349604Y-177027000D01*
X31650396Y-177027000D01*
X31945410Y-176968319D01*
X32223306Y-176853210D01*
X32473406Y-176686099D01*
X32686099Y-176473406D01*
X32853210Y-176223306D01*
X32968319Y-175945410D01*
X33027000Y-175650396D01*
X33027000Y-175352743D01*
X40291000Y-175352743D01*
X40291000Y-175567257D01*
X40332850Y-175777650D01*
X40414941Y-175975835D01*
X40534119Y-176154197D01*
X40685803Y-176305881D01*
X40864165Y-176425059D01*
X41062350Y-176507150D01*
X41272743Y-176549000D01*
X41487257Y-176549000D01*
X41697650Y-176507150D01*
X41895835Y-176425059D01*
X42074197Y-176305881D01*
X42225881Y-176154197D01*
X42345059Y-175975835D01*
X42427150Y-175777650D01*
X42469000Y-175567257D01*
X42469000Y-175352743D01*
X42427150Y-175142350D01*
X42345059Y-174944165D01*
X42225881Y-174765803D01*
X42074197Y-174614119D01*
X41895835Y-174494941D01*
X41697650Y-174412850D01*
X41487257Y-174371000D01*
X41272743Y-174371000D01*
X41062350Y-174412850D01*
X40864165Y-174494941D01*
X40685803Y-174614119D01*
X40534119Y-174765803D01*
X40414941Y-174944165D01*
X40332850Y-175142350D01*
X40291000Y-175352743D01*
X33027000Y-175352743D01*
X33027000Y-175349604D01*
X32968319Y-175054590D01*
X32853210Y-174776694D01*
X32686099Y-174526594D01*
X32473406Y-174313901D01*
X32223306Y-174146790D01*
X31945410Y-174031681D01*
X31650396Y-173973000D01*
X31349604Y-173973000D01*
X31054590Y-174031681D01*
X30776694Y-174146790D01*
X30526594Y-174313901D01*
X30313901Y-174526594D01*
X30146790Y-174776694D01*
X30031681Y-175054590D01*
X29973000Y-175349604D01*
X20252000Y-175349604D01*
X20252000Y-173885565D01*
X40594040Y-173885565D01*
X40661020Y-174125656D01*
X40910048Y-174242756D01*
X41177135Y-174309023D01*
X41452017Y-174321910D01*
X41724133Y-174280922D01*
X41983023Y-174187636D01*
X42098980Y-174125656D01*
X42165960Y-173885565D01*
X41380000Y-173099605D01*
X40594040Y-173885565D01*
X20252000Y-173885565D01*
X20252000Y-171849604D01*
X29973000Y-171849604D01*
X29973000Y-172150396D01*
X30031681Y-172445410D01*
X30146790Y-172723306D01*
X30313901Y-172973406D01*
X30526594Y-173186099D01*
X30776694Y-173353210D01*
X31054590Y-173468319D01*
X31349604Y-173527000D01*
X31650396Y-173527000D01*
X31945410Y-173468319D01*
X32223306Y-173353210D01*
X32473406Y-173186099D01*
X32667488Y-172992017D01*
X39978090Y-172992017D01*
X40019078Y-173264133D01*
X40112364Y-173523023D01*
X40174344Y-173638980D01*
X40414435Y-173705960D01*
X41200395Y-172920000D01*
X41559605Y-172920000D01*
X42345565Y-173705960D01*
X42585656Y-173638980D01*
X42702756Y-173389952D01*
X42769023Y-173122865D01*
X42781910Y-172847983D01*
X42740922Y-172575867D01*
X42647636Y-172316977D01*
X42585656Y-172201020D01*
X42345565Y-172134040D01*
X41559605Y-172920000D01*
X41200395Y-172920000D01*
X40414435Y-172134040D01*
X40174344Y-172201020D01*
X40057244Y-172450048D01*
X39990977Y-172717135D01*
X39978090Y-172992017D01*
X32667488Y-172992017D01*
X32686099Y-172973406D01*
X32853210Y-172723306D01*
X32968319Y-172445410D01*
X33027000Y-172150396D01*
X33027000Y-171849604D01*
X32968319Y-171554590D01*
X32853210Y-171276694D01*
X32686099Y-171026594D01*
X32473406Y-170813901D01*
X32223306Y-170646790D01*
X31945410Y-170531681D01*
X31650396Y-170473000D01*
X31349604Y-170473000D01*
X31054590Y-170531681D01*
X30776694Y-170646790D01*
X30526594Y-170813901D01*
X30313901Y-171026594D01*
X30146790Y-171276694D01*
X30031681Y-171554590D01*
X29973000Y-171849604D01*
X20252000Y-171849604D01*
X20252000Y-168349604D01*
X29973000Y-168349604D01*
X29973000Y-168650396D01*
X30031681Y-168945410D01*
X30146790Y-169223306D01*
X30313901Y-169473406D01*
X30526594Y-169686099D01*
X30776694Y-169853210D01*
X31054590Y-169968319D01*
X31349604Y-170027000D01*
X31650396Y-170027000D01*
X31945410Y-169968319D01*
X32223306Y-169853210D01*
X32473406Y-169686099D01*
X32686099Y-169473406D01*
X32853210Y-169223306D01*
X32968319Y-168945410D01*
X33027000Y-168650396D01*
X33027000Y-168349604D01*
X32968319Y-168054590D01*
X32853210Y-167776694D01*
X32686099Y-167526594D01*
X32473406Y-167313901D01*
X32223306Y-167146790D01*
X31945410Y-167031681D01*
X31650396Y-166973000D01*
X31349604Y-166973000D01*
X31054590Y-167031681D01*
X30776694Y-167146790D01*
X30526594Y-167313901D01*
X30313901Y-167526594D01*
X30146790Y-167776694D01*
X30031681Y-168054590D01*
X29973000Y-168349604D01*
X20252000Y-168349604D01*
X20252000Y-166200000D01*
X29661928Y-166200000D01*
X29674188Y-166324482D01*
X29710498Y-166444180D01*
X29769463Y-166554494D01*
X29848815Y-166651185D01*
X29945506Y-166730537D01*
X30055820Y-166789502D01*
X30175518Y-166825812D01*
X30300000Y-166838072D01*
X31214250Y-166835000D01*
X31373000Y-166676250D01*
X31373000Y-165127000D01*
X31627000Y-165127000D01*
X31627000Y-166676250D01*
X31785750Y-166835000D01*
X32700000Y-166838072D01*
X32824482Y-166825812D01*
X32944180Y-166789502D01*
X33054494Y-166730537D01*
X33151185Y-166651185D01*
X33230537Y-166554494D01*
X33289502Y-166444180D01*
X33325812Y-166324482D01*
X33338072Y-166200000D01*
X33335000Y-165285750D01*
X33176250Y-165127000D01*
X31627000Y-165127000D01*
X31373000Y-165127000D01*
X29823750Y-165127000D01*
X29665000Y-165285750D01*
X29661928Y-166200000D01*
X20252000Y-166200000D01*
X20252000Y-163800000D01*
X29661928Y-163800000D01*
X29665000Y-164714250D01*
X29823750Y-164873000D01*
X31373000Y-164873000D01*
X31373000Y-163323750D01*
X31214250Y-163165000D01*
X30300000Y-163161928D01*
X30175518Y-163174188D01*
X30055820Y-163210498D01*
X29945506Y-163269463D01*
X29848815Y-163348815D01*
X29769463Y-163445506D01*
X29710498Y-163555820D01*
X29674188Y-163675518D01*
X29661928Y-163800000D01*
X20252000Y-163800000D01*
X20252000Y-158349604D01*
X29973000Y-158349604D01*
X29973000Y-158650396D01*
X30031681Y-158945410D01*
X30146790Y-159223306D01*
X30173000Y-159262533D01*
X30173001Y-160434817D01*
X30166581Y-160500000D01*
X30192202Y-160760137D01*
X30268081Y-161010277D01*
X30391302Y-161240808D01*
X30515578Y-161392238D01*
X30557131Y-161442870D01*
X30607761Y-161484421D01*
X32286657Y-163163317D01*
X31785750Y-163165000D01*
X31627000Y-163323750D01*
X31627000Y-164873000D01*
X33176250Y-164873000D01*
X33335000Y-164714250D01*
X33336683Y-164213343D01*
X40487761Y-171364422D01*
X40639191Y-171488698D01*
X40869722Y-171611919D01*
X40880309Y-171615130D01*
X40776977Y-171652364D01*
X40661020Y-171714344D01*
X40594040Y-171954435D01*
X41380000Y-172740395D01*
X42165960Y-171954435D01*
X42098980Y-171714344D01*
X41884735Y-171613600D01*
X41890277Y-171611919D01*
X42120808Y-171488698D01*
X42322870Y-171322870D01*
X42488698Y-171120808D01*
X42611919Y-170890277D01*
X42687798Y-170640137D01*
X42713419Y-170380000D01*
X42687798Y-170119862D01*
X42611919Y-169869722D01*
X42488698Y-169639191D01*
X42364422Y-169487761D01*
X32827000Y-159950340D01*
X32827000Y-159262532D01*
X32853210Y-159223306D01*
X32968319Y-158945410D01*
X33027000Y-158650396D01*
X33027000Y-158349604D01*
X32968319Y-158054590D01*
X32853210Y-157776694D01*
X32686099Y-157526594D01*
X32473406Y-157313901D01*
X32223306Y-157146790D01*
X31945410Y-157031681D01*
X31650396Y-156973000D01*
X31349604Y-156973000D01*
X31054590Y-157031681D01*
X30776694Y-157146790D01*
X30526594Y-157313901D01*
X30313901Y-157526594D01*
X30146790Y-157776694D01*
X30031681Y-158054590D01*
X29973000Y-158349604D01*
X20252000Y-158349604D01*
X20252000Y-154849604D01*
X29973000Y-154849604D01*
X29973000Y-155150396D01*
X30031681Y-155445410D01*
X30146790Y-155723306D01*
X30313901Y-155973406D01*
X30526594Y-156186099D01*
X30776694Y-156353210D01*
X31054590Y-156468319D01*
X31349604Y-156527000D01*
X31650396Y-156527000D01*
X31945410Y-156468319D01*
X32223306Y-156353210D01*
X32262532Y-156327000D01*
X38838588Y-156327000D01*
X38903762Y-156333419D01*
X38968936Y-156327000D01*
X38968946Y-156327000D01*
X39163899Y-156307799D01*
X39414040Y-156231919D01*
X39644570Y-156108698D01*
X39846632Y-155942870D01*
X39888187Y-155892235D01*
X44434247Y-151346177D01*
X44484871Y-151304631D01*
X44526417Y-151254007D01*
X44526423Y-151254001D01*
X44650698Y-151102571D01*
X44700700Y-151009023D01*
X44773920Y-150872039D01*
X44849800Y-150621898D01*
X44868857Y-150428397D01*
X51273000Y-150428397D01*
X51273000Y-150571603D01*
X51300938Y-150712058D01*
X51355741Y-150844364D01*
X51435302Y-150963436D01*
X51536564Y-151064698D01*
X51655636Y-151144259D01*
X51787942Y-151199062D01*
X51928397Y-151227000D01*
X52071603Y-151227000D01*
X52212058Y-151199062D01*
X52344364Y-151144259D01*
X52378650Y-151121350D01*
X52355741Y-151155636D01*
X52300938Y-151287942D01*
X52273000Y-151428397D01*
X52273000Y-151571603D01*
X52300938Y-151712058D01*
X52355741Y-151844364D01*
X52435302Y-151963436D01*
X52536564Y-152064698D01*
X52655636Y-152144259D01*
X52787942Y-152199062D01*
X52928397Y-152227000D01*
X53041941Y-152227000D01*
X53041941Y-152302662D01*
X53069879Y-152443117D01*
X53124682Y-152575423D01*
X53204243Y-152694495D01*
X53305505Y-152795757D01*
X53424577Y-152875318D01*
X53556883Y-152930121D01*
X53697338Y-152958059D01*
X53773000Y-152958059D01*
X53773000Y-153071603D01*
X53800938Y-153212058D01*
X53855741Y-153344364D01*
X53935302Y-153463436D01*
X54036564Y-153564698D01*
X54155636Y-153644259D01*
X54287942Y-153699062D01*
X54428397Y-153727000D01*
X54571603Y-153727000D01*
X54585093Y-153724317D01*
X59709411Y-158848636D01*
X59723566Y-158865884D01*
X59792392Y-158922368D01*
X59870915Y-158964339D01*
X59936287Y-158984169D01*
X59956117Y-158990185D01*
X60044724Y-158998912D01*
X60066929Y-158996725D01*
X68927547Y-158996725D01*
X68935188Y-159008161D01*
X69036450Y-159109423D01*
X69155522Y-159188984D01*
X69287828Y-159243787D01*
X69428283Y-159271725D01*
X69571489Y-159271725D01*
X69711944Y-159243787D01*
X69844250Y-159188984D01*
X69963322Y-159109423D01*
X70048000Y-159024745D01*
X70048001Y-172312775D01*
X69196096Y-173164681D01*
X69178842Y-173178841D01*
X69151600Y-173212036D01*
X69122358Y-173247667D01*
X69080386Y-173326191D01*
X69054540Y-173411393D01*
X69045813Y-173500000D01*
X69048001Y-173522215D01*
X69048000Y-176927661D01*
X69036564Y-176935302D01*
X68935302Y-177036564D01*
X68855741Y-177155636D01*
X68800938Y-177287942D01*
X68773000Y-177428397D01*
X68773000Y-177571603D01*
X68800938Y-177712058D01*
X68855741Y-177844364D01*
X68935302Y-177963436D01*
X69036564Y-178064698D01*
X69155636Y-178144259D01*
X69287942Y-178199062D01*
X69428397Y-178227000D01*
X69571603Y-178227000D01*
X69712058Y-178199062D01*
X69844364Y-178144259D01*
X69963436Y-178064698D01*
X70064698Y-177963436D01*
X70144259Y-177844364D01*
X70199062Y-177712058D01*
X70227000Y-177571603D01*
X70227000Y-177428397D01*
X70199062Y-177287942D01*
X70144259Y-177155636D01*
X70064698Y-177036564D01*
X69963436Y-176935302D01*
X69952000Y-176927661D01*
X69952000Y-173980134D01*
X70049217Y-174077351D01*
X70168289Y-174156912D01*
X70300595Y-174211715D01*
X70441050Y-174239653D01*
X70584256Y-174239653D01*
X70724711Y-174211715D01*
X70857017Y-174156912D01*
X70957678Y-174089653D01*
X77161519Y-174089653D01*
X77236564Y-174164698D01*
X77355636Y-174244259D01*
X77487942Y-174299062D01*
X77628397Y-174327000D01*
X77771603Y-174327000D01*
X77912058Y-174299062D01*
X78044364Y-174244259D01*
X78163436Y-174164698D01*
X78264698Y-174063436D01*
X78344259Y-173944364D01*
X78399062Y-173812058D01*
X78427000Y-173671603D01*
X78427000Y-173528397D01*
X78399062Y-173387942D01*
X78344259Y-173255636D01*
X78264698Y-173136564D01*
X78163436Y-173035302D01*
X78044364Y-172955741D01*
X77912058Y-172900938D01*
X77771603Y-172873000D01*
X77628397Y-172873000D01*
X77487942Y-172900938D01*
X77404133Y-172935653D01*
X70957678Y-172935653D01*
X70857017Y-172868394D01*
X70796074Y-172843150D01*
X70803905Y-172835319D01*
X70821159Y-172821159D01*
X70877643Y-172752333D01*
X70919614Y-172673810D01*
X70945460Y-172588607D01*
X70952000Y-172522205D01*
X70954187Y-172500000D01*
X70952000Y-172477795D01*
X70952000Y-170904528D01*
X87113000Y-170904528D01*
X87113000Y-171195472D01*
X87169760Y-171480825D01*
X87281099Y-171749622D01*
X87442739Y-171991533D01*
X87648467Y-172197261D01*
X87890378Y-172358901D01*
X88159175Y-172470240D01*
X88444528Y-172527000D01*
X88735472Y-172527000D01*
X89020825Y-172470240D01*
X89289622Y-172358901D01*
X89531533Y-172197261D01*
X89737261Y-171991533D01*
X89898901Y-171749622D01*
X90010240Y-171480825D01*
X90067000Y-171195472D01*
X90067000Y-170904528D01*
X90010240Y-170619175D01*
X89898901Y-170350378D01*
X89737261Y-170108467D01*
X89531533Y-169902739D01*
X89289622Y-169741099D01*
X89020825Y-169629760D01*
X88735472Y-169573000D01*
X88444528Y-169573000D01*
X88159175Y-169629760D01*
X87890378Y-169741099D01*
X87648467Y-169902739D01*
X87442739Y-170108467D01*
X87281099Y-170350378D01*
X87169760Y-170619175D01*
X87113000Y-170904528D01*
X70952000Y-170904528D01*
X70952000Y-168564137D01*
X85505469Y-168564137D01*
X85572206Y-168804025D01*
X85820892Y-168920924D01*
X86087606Y-168987061D01*
X86362097Y-168999895D01*
X86633817Y-168958931D01*
X86892326Y-168865744D01*
X87007794Y-168804025D01*
X87074531Y-168564137D01*
X86290000Y-167779605D01*
X85505469Y-168564137D01*
X70952000Y-168564137D01*
X70952000Y-167672097D01*
X84890105Y-167672097D01*
X84931069Y-167943817D01*
X85024256Y-168202326D01*
X85085975Y-168317794D01*
X85325863Y-168384531D01*
X86110395Y-167600000D01*
X86469605Y-167600000D01*
X87254137Y-168384531D01*
X87494025Y-168317794D01*
X87610924Y-168069108D01*
X87677061Y-167802394D01*
X87689895Y-167527903D01*
X87648931Y-167256183D01*
X87555744Y-166997674D01*
X87494025Y-166882206D01*
X87254137Y-166815469D01*
X86469605Y-167600000D01*
X86110395Y-167600000D01*
X85325863Y-166815469D01*
X85085975Y-166882206D01*
X84969076Y-167130892D01*
X84902939Y-167397606D01*
X84890105Y-167672097D01*
X70952000Y-167672097D01*
X70952000Y-166472940D01*
X82663000Y-166472940D01*
X82663000Y-166687060D01*
X82704772Y-166897066D01*
X82786713Y-167094888D01*
X82905672Y-167272922D01*
X83057078Y-167424328D01*
X83235112Y-167543287D01*
X83432934Y-167625228D01*
X83642940Y-167667000D01*
X83857060Y-167667000D01*
X84067066Y-167625228D01*
X84264888Y-167543287D01*
X84442922Y-167424328D01*
X84594328Y-167272922D01*
X84713287Y-167094888D01*
X84795228Y-166897066D01*
X84837000Y-166687060D01*
X84837000Y-166472940D01*
X84795228Y-166262934D01*
X84713287Y-166065112D01*
X84594328Y-165887078D01*
X84457029Y-165749779D01*
X84467794Y-165744025D01*
X84534531Y-165504137D01*
X83750000Y-164719605D01*
X82965469Y-165504137D01*
X83032206Y-165744025D01*
X83043443Y-165749307D01*
X82905672Y-165887078D01*
X82786713Y-166065112D01*
X82704772Y-166262934D01*
X82663000Y-166472940D01*
X70952000Y-166472940D01*
X70952000Y-164612097D01*
X82350105Y-164612097D01*
X82391069Y-164883817D01*
X82484256Y-165142326D01*
X82545975Y-165257794D01*
X82785863Y-165324531D01*
X83570395Y-164540000D01*
X83929605Y-164540000D01*
X84714137Y-165324531D01*
X84954025Y-165257794D01*
X85070924Y-165009108D01*
X85137061Y-164742394D01*
X85149895Y-164467903D01*
X85108931Y-164196183D01*
X85015744Y-163937674D01*
X84954025Y-163822206D01*
X84714137Y-163755469D01*
X83929605Y-164540000D01*
X83570395Y-164540000D01*
X82785863Y-163755469D01*
X82545975Y-163822206D01*
X82429076Y-164070892D01*
X82362939Y-164337606D01*
X82350105Y-164612097D01*
X70952000Y-164612097D01*
X70952000Y-161740000D01*
X82661418Y-161740000D01*
X82661418Y-163260000D01*
X82667732Y-163324103D01*
X82686430Y-163385743D01*
X82716794Y-163442550D01*
X82757657Y-163492343D01*
X82807450Y-163533206D01*
X82864257Y-163563570D01*
X82925897Y-163582268D01*
X82976897Y-163587291D01*
X83750000Y-164360395D01*
X84523103Y-163587291D01*
X84574103Y-163582268D01*
X84635743Y-163563570D01*
X84692550Y-163533206D01*
X84742343Y-163492343D01*
X84783206Y-163442550D01*
X84813570Y-163385743D01*
X84832268Y-163324103D01*
X84838582Y-163260000D01*
X84838582Y-161740000D01*
X84832268Y-161675897D01*
X84813570Y-161614257D01*
X84783206Y-161557450D01*
X84742343Y-161507657D01*
X84692550Y-161466794D01*
X84635743Y-161436430D01*
X84574103Y-161417732D01*
X84510000Y-161411418D01*
X82990000Y-161411418D01*
X82925897Y-161417732D01*
X82864257Y-161436430D01*
X82807450Y-161466794D01*
X82757657Y-161507657D01*
X82716794Y-161557450D01*
X82686430Y-161614257D01*
X82667732Y-161675897D01*
X82661418Y-161740000D01*
X70952000Y-161740000D01*
X70952000Y-161480134D01*
X71036564Y-161564698D01*
X71155636Y-161644259D01*
X71287942Y-161699062D01*
X71428397Y-161727000D01*
X71571603Y-161727000D01*
X71712058Y-161699062D01*
X71844364Y-161644259D01*
X71963436Y-161564698D01*
X72064698Y-161463436D01*
X72144259Y-161344364D01*
X72199062Y-161212058D01*
X72227000Y-161071603D01*
X72227000Y-160928397D01*
X72199062Y-160787942D01*
X72144259Y-160655636D01*
X72064698Y-160536564D01*
X71964653Y-160436519D01*
X71964653Y-154784992D01*
X71976089Y-154777351D01*
X72077351Y-154676089D01*
X72156912Y-154557017D01*
X72211715Y-154424711D01*
X72239653Y-154284256D01*
X72239653Y-154141050D01*
X72211715Y-154000595D01*
X72156912Y-153868289D01*
X72077351Y-153749217D01*
X71976089Y-153647955D01*
X71857017Y-153568394D01*
X71724711Y-153513591D01*
X71584256Y-153485653D01*
X71441050Y-153485653D01*
X71300595Y-153513591D01*
X71168289Y-153568394D01*
X71049217Y-153647955D01*
X71012653Y-153684519D01*
X70963436Y-153635302D01*
X70844364Y-153555741D01*
X70712058Y-153500938D01*
X70571603Y-153473000D01*
X70428397Y-153473000D01*
X70287942Y-153500938D01*
X70155636Y-153555741D01*
X70036564Y-153635302D01*
X69935302Y-153736564D01*
X69855741Y-153855636D01*
X69800938Y-153987942D01*
X69773000Y-154128397D01*
X69773000Y-154271603D01*
X69800938Y-154412058D01*
X69855741Y-154544364D01*
X69935302Y-154663436D01*
X70036564Y-154764698D01*
X70048000Y-154772339D01*
X70048000Y-155019866D01*
X69963436Y-154935302D01*
X69844364Y-154855741D01*
X69712058Y-154800938D01*
X69571603Y-154773000D01*
X69428397Y-154773000D01*
X69287942Y-154800938D01*
X69155636Y-154855741D01*
X69036564Y-154935302D01*
X68935302Y-155036564D01*
X68927661Y-155048000D01*
X60687224Y-155048000D01*
X56953361Y-151314137D01*
X85505469Y-151314137D01*
X85572206Y-151554025D01*
X85820892Y-151670924D01*
X86087606Y-151737061D01*
X86362097Y-151749895D01*
X86633817Y-151708931D01*
X86892326Y-151615744D01*
X87007794Y-151554025D01*
X87074531Y-151314137D01*
X86290000Y-150529605D01*
X85505469Y-151314137D01*
X56953361Y-151314137D01*
X55835323Y-150196100D01*
X55821159Y-150178841D01*
X55752333Y-150122357D01*
X55673810Y-150080386D01*
X55588607Y-150054540D01*
X55522205Y-150048000D01*
X55500000Y-150045813D01*
X55477795Y-150048000D01*
X52572339Y-150048000D01*
X52564698Y-150036564D01*
X52463436Y-149935302D01*
X52344364Y-149855741D01*
X52212058Y-149800938D01*
X52071603Y-149773000D01*
X51928397Y-149773000D01*
X51787942Y-149800938D01*
X51655636Y-149855741D01*
X51536564Y-149935302D01*
X51435302Y-150036564D01*
X51355741Y-150155636D01*
X51300938Y-150287942D01*
X51273000Y-150428397D01*
X44868857Y-150428397D01*
X44869001Y-150426945D01*
X44869001Y-150426933D01*
X44875420Y-150361762D01*
X44869001Y-150296590D01*
X44869001Y-149523551D01*
X63868154Y-149523551D01*
X63868154Y-149666757D01*
X63896092Y-149807212D01*
X63950895Y-149939518D01*
X64030456Y-150058590D01*
X64131718Y-150159852D01*
X64250790Y-150239413D01*
X64383096Y-150294216D01*
X64523551Y-150322154D01*
X64666757Y-150322154D01*
X64807212Y-150294216D01*
X64939518Y-150239413D01*
X65058590Y-150159852D01*
X65159852Y-150058590D01*
X65239413Y-149939518D01*
X65294216Y-149807212D01*
X65322154Y-149666757D01*
X65322154Y-149523551D01*
X65319471Y-149510061D01*
X65901135Y-148928397D01*
X67273000Y-148928397D01*
X67273000Y-149071603D01*
X67300938Y-149212058D01*
X67355741Y-149344364D01*
X67435302Y-149463436D01*
X67471866Y-149500000D01*
X67435302Y-149536564D01*
X67355741Y-149655636D01*
X67300938Y-149787942D01*
X67273000Y-149928397D01*
X67273000Y-150071603D01*
X67300938Y-150212058D01*
X67355741Y-150344364D01*
X67435302Y-150463436D01*
X67536564Y-150564698D01*
X67655636Y-150644259D01*
X67787942Y-150699062D01*
X67928397Y-150727000D01*
X68071603Y-150727000D01*
X68212058Y-150699062D01*
X68344364Y-150644259D01*
X68463436Y-150564698D01*
X68564698Y-150463436D01*
X68572339Y-150452000D01*
X80927661Y-150452000D01*
X80935302Y-150463436D01*
X81036564Y-150564698D01*
X81155636Y-150644259D01*
X81287942Y-150699062D01*
X81428397Y-150727000D01*
X81571603Y-150727000D01*
X81712058Y-150699062D01*
X81844364Y-150644259D01*
X81963436Y-150564698D01*
X82064698Y-150463436D01*
X82144259Y-150344364D01*
X82199062Y-150212058D01*
X82227000Y-150071603D01*
X82227000Y-150052026D01*
X82893880Y-150718906D01*
X82908040Y-150736160D01*
X82976866Y-150792644D01*
X83038628Y-150825656D01*
X83055389Y-150834615D01*
X83140591Y-150860461D01*
X83229199Y-150869188D01*
X83251404Y-150867001D01*
X84248596Y-150867001D01*
X84270801Y-150869188D01*
X84293006Y-150867001D01*
X84359408Y-150860461D01*
X84444611Y-150834615D01*
X84523134Y-150792644D01*
X84591960Y-150736160D01*
X84606124Y-150718901D01*
X84891785Y-150433240D01*
X84931069Y-150693817D01*
X85024256Y-150952326D01*
X85085975Y-151067794D01*
X85325863Y-151134531D01*
X86110395Y-150350000D01*
X86469605Y-150350000D01*
X87254137Y-151134531D01*
X87494025Y-151067794D01*
X87610924Y-150819108D01*
X87677061Y-150552394D01*
X87689895Y-150277903D01*
X87648931Y-150006183D01*
X87555744Y-149747674D01*
X87494025Y-149632206D01*
X87254137Y-149565469D01*
X86469605Y-150350000D01*
X86110395Y-150350000D01*
X86096252Y-150335858D01*
X86275858Y-150156252D01*
X86290000Y-150170395D01*
X87074531Y-149385863D01*
X87007794Y-149145975D01*
X86996557Y-149140693D01*
X87134328Y-149002922D01*
X87253287Y-148824888D01*
X87335228Y-148627066D01*
X87377000Y-148417060D01*
X87377000Y-148202940D01*
X87335228Y-147992934D01*
X87308016Y-147927240D01*
X89613001Y-150232225D01*
X89613001Y-152734207D01*
X89531533Y-152652739D01*
X89289622Y-152491099D01*
X89020825Y-152379760D01*
X88735472Y-152323000D01*
X88444528Y-152323000D01*
X88159175Y-152379760D01*
X87890378Y-152491099D01*
X87648467Y-152652739D01*
X87442739Y-152858467D01*
X87281099Y-153100378D01*
X87169760Y-153369175D01*
X87113000Y-153654528D01*
X87113000Y-153945472D01*
X87169760Y-154230825D01*
X87281099Y-154499622D01*
X87442739Y-154741533D01*
X87648467Y-154947261D01*
X87890378Y-155108901D01*
X88159175Y-155220240D01*
X88444528Y-155277000D01*
X88735472Y-155277000D01*
X89020825Y-155220240D01*
X89289622Y-155108901D01*
X89531533Y-154947261D01*
X89613001Y-154865793D01*
X89613002Y-157984208D01*
X89531533Y-157902739D01*
X89289622Y-157741099D01*
X89020825Y-157629760D01*
X88735472Y-157573000D01*
X88444528Y-157573000D01*
X88159175Y-157629760D01*
X87890378Y-157741099D01*
X87648467Y-157902739D01*
X87442739Y-158108467D01*
X87281099Y-158350378D01*
X87169760Y-158619175D01*
X87113000Y-158904528D01*
X87113000Y-159195472D01*
X87169760Y-159480825D01*
X87281099Y-159749622D01*
X87442739Y-159991533D01*
X87648467Y-160197261D01*
X87890378Y-160358901D01*
X88159175Y-160470240D01*
X88444528Y-160527000D01*
X88643776Y-160527000D01*
X86669955Y-162500822D01*
X86607066Y-162474772D01*
X86397060Y-162433000D01*
X86182940Y-162433000D01*
X85972934Y-162474772D01*
X85775112Y-162556713D01*
X85597078Y-162675672D01*
X85445672Y-162827078D01*
X85326713Y-163005112D01*
X85244772Y-163202934D01*
X85203000Y-163412940D01*
X85203000Y-163627060D01*
X85244772Y-163837066D01*
X85326713Y-164034888D01*
X85445672Y-164212922D01*
X85597078Y-164364328D01*
X85775112Y-164483287D01*
X85912029Y-164540000D01*
X85775112Y-164596713D01*
X85597078Y-164715672D01*
X85445672Y-164867078D01*
X85326713Y-165045112D01*
X85244772Y-165242934D01*
X85203000Y-165452940D01*
X85203000Y-165667060D01*
X85244772Y-165877066D01*
X85326713Y-166074888D01*
X85445672Y-166252922D01*
X85582971Y-166390221D01*
X85572206Y-166395975D01*
X85505469Y-166635863D01*
X86290000Y-167420395D01*
X87074531Y-166635863D01*
X87007794Y-166395975D01*
X86996557Y-166390693D01*
X87134328Y-166252922D01*
X87253287Y-166074888D01*
X87335228Y-165877066D01*
X87377000Y-165667060D01*
X87377000Y-165452940D01*
X87335228Y-165242934D01*
X87253287Y-165045112D01*
X87134328Y-164867078D01*
X86982922Y-164715672D01*
X86804888Y-164596713D01*
X86667971Y-164540000D01*
X86804888Y-164483287D01*
X86982922Y-164364328D01*
X87134328Y-164212922D01*
X87253287Y-164034888D01*
X87335228Y-163837066D01*
X87377000Y-163627060D01*
X87377000Y-163412940D01*
X87335228Y-163202934D01*
X87309178Y-163140045D01*
X90368906Y-160080318D01*
X90386160Y-160066158D01*
X90442644Y-159997332D01*
X90484615Y-159918809D01*
X90510461Y-159833606D01*
X90510862Y-159829540D01*
X90519188Y-159744999D01*
X90517001Y-159722794D01*
X90517001Y-150067206D01*
X90519188Y-150045001D01*
X90510461Y-149956393D01*
X90484615Y-149871191D01*
X90470556Y-149844888D01*
X90442644Y-149792668D01*
X90386160Y-149723842D01*
X90368907Y-149709683D01*
X87309178Y-146649955D01*
X87335228Y-146587066D01*
X87377000Y-146377060D01*
X87377000Y-146162940D01*
X87335228Y-145952934D01*
X87253287Y-145755112D01*
X87134328Y-145577078D01*
X86982922Y-145425672D01*
X86804888Y-145306713D01*
X86607066Y-145224772D01*
X86397060Y-145183000D01*
X86182940Y-145183000D01*
X85972934Y-145224772D01*
X85775112Y-145306713D01*
X85597078Y-145425672D01*
X85445672Y-145577078D01*
X85326713Y-145755112D01*
X85244772Y-145952934D01*
X85203000Y-146162940D01*
X85203000Y-146377060D01*
X85244772Y-146587066D01*
X85326713Y-146784888D01*
X85445672Y-146962922D01*
X85597078Y-147114328D01*
X85775112Y-147233287D01*
X85912029Y-147290000D01*
X85775112Y-147346713D01*
X85597078Y-147465672D01*
X85445672Y-147617078D01*
X85326713Y-147795112D01*
X85244772Y-147992934D01*
X85203000Y-148202940D01*
X85203000Y-148417060D01*
X85244772Y-148627066D01*
X85295952Y-148750626D01*
X84834783Y-149211795D01*
X84795228Y-149012934D01*
X84713287Y-148815112D01*
X84594328Y-148637078D01*
X84457029Y-148499779D01*
X84467794Y-148494025D01*
X84534531Y-148254137D01*
X83750000Y-147469605D01*
X82965469Y-148254137D01*
X83032206Y-148494025D01*
X83043443Y-148499307D01*
X82905672Y-148637078D01*
X82786713Y-148815112D01*
X82704772Y-149012934D01*
X82665217Y-149211795D01*
X82149521Y-148696100D01*
X82135357Y-148678841D01*
X82066531Y-148622357D01*
X81988008Y-148580386D01*
X81902805Y-148554540D01*
X81836403Y-148548000D01*
X81814198Y-148545813D01*
X81791993Y-148548000D01*
X68572339Y-148548000D01*
X68564698Y-148536564D01*
X68463436Y-148435302D01*
X68344364Y-148355741D01*
X68212058Y-148300938D01*
X68071603Y-148273000D01*
X67928397Y-148273000D01*
X67787942Y-148300938D01*
X67655636Y-148355741D01*
X67536564Y-148435302D01*
X67435302Y-148536564D01*
X67355741Y-148655636D01*
X67300938Y-148787942D01*
X67273000Y-148928397D01*
X65901135Y-148928397D01*
X67467435Y-147362097D01*
X82350105Y-147362097D01*
X82391069Y-147633817D01*
X82484256Y-147892326D01*
X82545975Y-148007794D01*
X82785863Y-148074531D01*
X83570395Y-147290000D01*
X83929605Y-147290000D01*
X84714137Y-148074531D01*
X84954025Y-148007794D01*
X85070924Y-147759108D01*
X85137061Y-147492394D01*
X85149895Y-147217903D01*
X85108931Y-146946183D01*
X85015744Y-146687674D01*
X84954025Y-146572206D01*
X84714137Y-146505469D01*
X83929605Y-147290000D01*
X83570395Y-147290000D01*
X82785863Y-146505469D01*
X82545975Y-146572206D01*
X82429076Y-146820892D01*
X82362939Y-147087606D01*
X82350105Y-147362097D01*
X67467435Y-147362097D01*
X68110213Y-146719320D01*
X68212058Y-146699062D01*
X68344364Y-146644259D01*
X68463436Y-146564698D01*
X68564698Y-146463436D01*
X68644259Y-146344364D01*
X68699062Y-146212058D01*
X68727000Y-146071603D01*
X68727000Y-145928397D01*
X68699062Y-145787942D01*
X68644259Y-145655636D01*
X68564698Y-145536564D01*
X68463436Y-145435302D01*
X68344364Y-145355741D01*
X68212058Y-145300938D01*
X68071603Y-145273000D01*
X67928397Y-145273000D01*
X67787942Y-145300938D01*
X67655636Y-145355741D01*
X67536564Y-145435302D01*
X67435302Y-145536564D01*
X67355741Y-145655636D01*
X67300938Y-145787942D01*
X67273000Y-145928397D01*
X67273000Y-146071603D01*
X67300938Y-146212058D01*
X67312093Y-146238990D01*
X64680247Y-148870837D01*
X64666757Y-148868154D01*
X64523551Y-148868154D01*
X64383096Y-148896092D01*
X64250790Y-148950895D01*
X64131718Y-149030456D01*
X64030456Y-149131718D01*
X63950895Y-149250790D01*
X63896092Y-149383096D01*
X63868154Y-149523551D01*
X44869001Y-149523551D01*
X44869001Y-144490000D01*
X82661418Y-144490000D01*
X82661418Y-146010000D01*
X82667732Y-146074103D01*
X82686430Y-146135743D01*
X82716794Y-146192550D01*
X82757657Y-146242343D01*
X82807450Y-146283206D01*
X82864257Y-146313570D01*
X82925897Y-146332268D01*
X82976897Y-146337291D01*
X83750000Y-147110395D01*
X84523103Y-146337291D01*
X84574103Y-146332268D01*
X84635743Y-146313570D01*
X84692550Y-146283206D01*
X84742343Y-146242343D01*
X84783206Y-146192550D01*
X84813570Y-146135743D01*
X84832268Y-146074103D01*
X84838582Y-146010000D01*
X84838582Y-144490000D01*
X84832268Y-144425897D01*
X84813570Y-144364257D01*
X84783206Y-144307450D01*
X84742343Y-144257657D01*
X84692550Y-144216794D01*
X84635743Y-144186430D01*
X84574103Y-144167732D01*
X84510000Y-144161418D01*
X82990000Y-144161418D01*
X82925897Y-144167732D01*
X82864257Y-144186430D01*
X82807450Y-144216794D01*
X82757657Y-144257657D01*
X82716794Y-144307450D01*
X82686430Y-144364257D01*
X82667732Y-144425897D01*
X82661418Y-144490000D01*
X44869001Y-144490000D01*
X44869001Y-136243413D01*
X44875420Y-136178239D01*
X44869001Y-136113065D01*
X44869001Y-136113055D01*
X44849800Y-135918102D01*
X44773920Y-135667961D01*
X44715721Y-135559078D01*
X44650699Y-135437430D01*
X44526423Y-135286000D01*
X44526422Y-135285999D01*
X44484871Y-135235369D01*
X44434242Y-135193819D01*
X43390423Y-134150000D01*
X61821418Y-134150000D01*
X61821418Y-135850000D01*
X61827732Y-135914103D01*
X61846430Y-135975743D01*
X61876794Y-136032550D01*
X61917657Y-136082343D01*
X61967450Y-136123206D01*
X62024257Y-136153570D01*
X62085897Y-136172268D01*
X62150000Y-136178582D01*
X63850000Y-136178582D01*
X63914103Y-136172268D01*
X63975743Y-136153570D01*
X64032550Y-136123206D01*
X64082343Y-136082343D01*
X64123206Y-136032550D01*
X64153570Y-135975743D01*
X64172268Y-135914103D01*
X64178582Y-135850000D01*
X64178582Y-134884076D01*
X64363000Y-134884076D01*
X64363000Y-135115924D01*
X64408231Y-135343318D01*
X64496956Y-135557519D01*
X64625764Y-135750294D01*
X64789706Y-135914236D01*
X64982481Y-136043044D01*
X65196682Y-136131769D01*
X65424076Y-136177000D01*
X65655924Y-136177000D01*
X65883318Y-136131769D01*
X66097519Y-136043044D01*
X66290294Y-135914236D01*
X66454236Y-135750294D01*
X66583044Y-135557519D01*
X66671769Y-135343318D01*
X66717000Y-135115924D01*
X66717000Y-134884076D01*
X66671769Y-134656682D01*
X66583044Y-134442481D01*
X66454236Y-134249706D01*
X66290294Y-134085764D01*
X66097519Y-133956956D01*
X65883318Y-133868231D01*
X65655924Y-133823000D01*
X65424076Y-133823000D01*
X65196682Y-133868231D01*
X64982481Y-133956956D01*
X64789706Y-134085764D01*
X64625764Y-134249706D01*
X64496956Y-134442481D01*
X64408231Y-134656682D01*
X64363000Y-134884076D01*
X64178582Y-134884076D01*
X64178582Y-134150000D01*
X64172268Y-134085897D01*
X64153570Y-134024257D01*
X64123206Y-133967450D01*
X64082343Y-133917657D01*
X64032550Y-133876794D01*
X63975743Y-133846430D01*
X63914103Y-133827732D01*
X63850000Y-133821418D01*
X62150000Y-133821418D01*
X62085897Y-133827732D01*
X62024257Y-133846430D01*
X61967450Y-133876794D01*
X61917657Y-133917657D01*
X61876794Y-133967450D01*
X61846430Y-134024257D01*
X61827732Y-134085897D01*
X61821418Y-134150000D01*
X43390423Y-134150000D01*
X43306186Y-134065764D01*
X43264631Y-134015129D01*
X43062569Y-133849301D01*
X42832039Y-133726080D01*
X42581898Y-133650200D01*
X42489730Y-133641122D01*
X42488698Y-133639192D01*
X42322870Y-133437130D01*
X42120807Y-133271302D01*
X41890277Y-133148081D01*
X41640136Y-133072201D01*
X41380000Y-133046580D01*
X41119863Y-133072201D01*
X40869722Y-133148081D01*
X40639192Y-133271302D01*
X40437130Y-133437130D01*
X40271302Y-133639193D01*
X40148081Y-133869723D01*
X40072201Y-134119864D01*
X40053000Y-134314817D01*
X40053000Y-134814826D01*
X40046581Y-134880000D01*
X40053000Y-134945174D01*
X40053000Y-134945184D01*
X40072201Y-135140137D01*
X40148081Y-135390278D01*
X40190159Y-135469000D01*
X40271302Y-135620808D01*
X40335315Y-135698807D01*
X40437131Y-135822870D01*
X40479969Y-135858026D01*
X40515129Y-135900869D01*
X40622149Y-135988698D01*
X40656469Y-136016864D01*
X41380000Y-136740395D01*
X41394143Y-136726253D01*
X41573748Y-136905858D01*
X41559605Y-136920000D01*
X41573748Y-136934143D01*
X41394143Y-137113748D01*
X41380000Y-137099605D01*
X40594040Y-137885565D01*
X40661020Y-138125656D01*
X40910048Y-138242756D01*
X41177135Y-138309023D01*
X41452017Y-138321910D01*
X41724133Y-138280922D01*
X41983023Y-138187636D01*
X42098980Y-138125656D01*
X42165959Y-137885567D01*
X42215001Y-137934609D01*
X42215001Y-138754923D01*
X42074197Y-138614119D01*
X41895835Y-138494941D01*
X41697650Y-138412850D01*
X41487257Y-138371000D01*
X41272743Y-138371000D01*
X41062350Y-138412850D01*
X40864165Y-138494941D01*
X40685803Y-138614119D01*
X40534119Y-138765803D01*
X40414941Y-138944165D01*
X40332850Y-139142350D01*
X40291000Y-139352743D01*
X40291000Y-139567257D01*
X40332850Y-139777650D01*
X40414941Y-139975835D01*
X40534119Y-140154197D01*
X40685803Y-140305881D01*
X40864165Y-140425059D01*
X41062350Y-140507150D01*
X41272743Y-140549000D01*
X41487257Y-140549000D01*
X41697650Y-140507150D01*
X41895835Y-140425059D01*
X42074197Y-140305881D01*
X42215001Y-140165077D01*
X42215001Y-141294923D01*
X42074197Y-141154119D01*
X41895835Y-141034941D01*
X41697650Y-140952850D01*
X41487257Y-140911000D01*
X41272743Y-140911000D01*
X41062350Y-140952850D01*
X40864165Y-141034941D01*
X40685803Y-141154119D01*
X40534119Y-141305803D01*
X40414941Y-141484165D01*
X40332850Y-141682350D01*
X40291000Y-141892743D01*
X40291000Y-142107257D01*
X40332850Y-142317650D01*
X40414941Y-142515835D01*
X40534119Y-142694197D01*
X40685803Y-142845881D01*
X40864165Y-142965059D01*
X41062350Y-143047150D01*
X41272743Y-143089000D01*
X41487257Y-143089000D01*
X41697650Y-143047150D01*
X41895835Y-142965059D01*
X42074197Y-142845881D01*
X42215001Y-142705077D01*
X42215002Y-143552080D01*
X42201690Y-143538768D01*
X41990570Y-143397703D01*
X41755987Y-143300535D01*
X41506955Y-143251000D01*
X41253045Y-143251000D01*
X41004013Y-143300535D01*
X40769430Y-143397703D01*
X40558310Y-143538768D01*
X40378768Y-143718310D01*
X40237703Y-143929430D01*
X40140535Y-144164013D01*
X40091000Y-144413045D01*
X40091000Y-144666955D01*
X40140535Y-144915987D01*
X40237703Y-145150570D01*
X40378768Y-145361690D01*
X40558310Y-145541232D01*
X40769430Y-145682297D01*
X41004013Y-145779465D01*
X41253045Y-145829000D01*
X41506955Y-145829000D01*
X41755987Y-145779465D01*
X41990570Y-145682297D01*
X42201690Y-145541232D01*
X42215002Y-145527920D01*
X42215002Y-148605390D01*
X42165959Y-148654433D01*
X42098980Y-148414344D01*
X41849952Y-148297244D01*
X41582865Y-148230977D01*
X41307983Y-148218090D01*
X41035867Y-148259078D01*
X40776977Y-148352364D01*
X40661020Y-148414344D01*
X40594040Y-148654435D01*
X41380000Y-149440395D01*
X41394143Y-149426253D01*
X41573748Y-149605858D01*
X41559605Y-149620000D01*
X41573748Y-149634143D01*
X41394143Y-149813748D01*
X41380000Y-149799605D01*
X40594040Y-150585565D01*
X40661020Y-150825656D01*
X40910048Y-150942756D01*
X41049696Y-150977404D01*
X38354102Y-153673000D01*
X32262532Y-153673000D01*
X32223306Y-153646790D01*
X31945410Y-153531681D01*
X31650396Y-153473000D01*
X31349604Y-153473000D01*
X31054590Y-153531681D01*
X30776694Y-153646790D01*
X30526594Y-153813901D01*
X30313901Y-154026594D01*
X30146790Y-154276694D01*
X30031681Y-154554590D01*
X29973000Y-154849604D01*
X20252000Y-154849604D01*
X20252000Y-152700000D01*
X29661928Y-152700000D01*
X29674188Y-152824482D01*
X29710498Y-152944180D01*
X29769463Y-153054494D01*
X29848815Y-153151185D01*
X29945506Y-153230537D01*
X30055820Y-153289502D01*
X30175518Y-153325812D01*
X30300000Y-153338072D01*
X31214250Y-153335000D01*
X31373000Y-153176250D01*
X31373000Y-151627000D01*
X31627000Y-151627000D01*
X31627000Y-153176250D01*
X31785750Y-153335000D01*
X32700000Y-153338072D01*
X32824482Y-153325812D01*
X32944180Y-153289502D01*
X33054494Y-153230537D01*
X33151185Y-153151185D01*
X33230537Y-153054494D01*
X33289502Y-152944180D01*
X33325812Y-152824482D01*
X33338072Y-152700000D01*
X33335000Y-151785750D01*
X33176250Y-151627000D01*
X31627000Y-151627000D01*
X31373000Y-151627000D01*
X29823750Y-151627000D01*
X29665000Y-151785750D01*
X29661928Y-152700000D01*
X20252000Y-152700000D01*
X20252000Y-150300000D01*
X29661928Y-150300000D01*
X29665000Y-151214250D01*
X29823750Y-151373000D01*
X31373000Y-151373000D01*
X31373000Y-149823750D01*
X31627000Y-149823750D01*
X31627000Y-151373000D01*
X33176250Y-151373000D01*
X33335000Y-151214250D01*
X33338072Y-150300000D01*
X33325812Y-150175518D01*
X33289502Y-150055820D01*
X33230537Y-149945506D01*
X33151185Y-149848815D01*
X33054494Y-149769463D01*
X32944180Y-149710498D01*
X32883257Y-149692017D01*
X39978090Y-149692017D01*
X40019078Y-149964133D01*
X40112364Y-150223023D01*
X40174344Y-150338980D01*
X40414435Y-150405960D01*
X41200395Y-149620000D01*
X40414435Y-148834040D01*
X40174344Y-148901020D01*
X40057244Y-149150048D01*
X39990977Y-149417135D01*
X39978090Y-149692017D01*
X32883257Y-149692017D01*
X32824482Y-149674188D01*
X32700000Y-149661928D01*
X31785750Y-149665000D01*
X31627000Y-149823750D01*
X31373000Y-149823750D01*
X31214250Y-149665000D01*
X30300000Y-149661928D01*
X30175518Y-149674188D01*
X30055820Y-149710498D01*
X29945506Y-149769463D01*
X29848815Y-149848815D01*
X29769463Y-149945506D01*
X29710498Y-150055820D01*
X29674188Y-150175518D01*
X29661928Y-150300000D01*
X20252000Y-150300000D01*
X20252000Y-142700000D01*
X29661928Y-142700000D01*
X29674188Y-142824482D01*
X29710498Y-142944180D01*
X29769463Y-143054494D01*
X29848815Y-143151185D01*
X29945506Y-143230537D01*
X30055820Y-143289502D01*
X30175518Y-143325812D01*
X30300000Y-143338072D01*
X31014844Y-143335670D01*
X30996253Y-143339368D01*
X30681959Y-143469553D01*
X30399102Y-143658552D01*
X30158552Y-143899102D01*
X29969553Y-144181959D01*
X29839368Y-144496253D01*
X29773000Y-144829905D01*
X29773000Y-145170095D01*
X29839368Y-145503747D01*
X29969553Y-145818041D01*
X30158552Y-146100898D01*
X30399102Y-146341448D01*
X30681959Y-146530447D01*
X30996253Y-146660632D01*
X31329905Y-146727000D01*
X31670095Y-146727000D01*
X32003747Y-146660632D01*
X32318041Y-146530447D01*
X32600898Y-146341448D01*
X32841448Y-146100898D01*
X33030447Y-145818041D01*
X33160632Y-145503747D01*
X33227000Y-145170095D01*
X33227000Y-144829905D01*
X33160632Y-144496253D01*
X33030447Y-144181959D01*
X32841448Y-143899102D01*
X32600898Y-143658552D01*
X32318041Y-143469553D01*
X32003747Y-143339368D01*
X31985156Y-143335670D01*
X32700000Y-143338072D01*
X32824482Y-143325812D01*
X32944180Y-143289502D01*
X33054494Y-143230537D01*
X33151185Y-143151185D01*
X33230537Y-143054494D01*
X33289502Y-142944180D01*
X33325812Y-142824482D01*
X33338072Y-142700000D01*
X33335000Y-141785750D01*
X33176250Y-141627000D01*
X31627000Y-141627000D01*
X31627000Y-141647000D01*
X31373000Y-141647000D01*
X31373000Y-141627000D01*
X29823750Y-141627000D01*
X29665000Y-141785750D01*
X29661928Y-142700000D01*
X20252000Y-142700000D01*
X20252000Y-140300000D01*
X29661928Y-140300000D01*
X29665000Y-141214250D01*
X29823750Y-141373000D01*
X31373000Y-141373000D01*
X31373000Y-139823750D01*
X31627000Y-139823750D01*
X31627000Y-141373000D01*
X33176250Y-141373000D01*
X33335000Y-141214250D01*
X33338072Y-140300000D01*
X33325812Y-140175518D01*
X33289502Y-140055820D01*
X33230537Y-139945506D01*
X33151185Y-139848815D01*
X33054494Y-139769463D01*
X32944180Y-139710498D01*
X32824482Y-139674188D01*
X32700000Y-139661928D01*
X31785750Y-139665000D01*
X31627000Y-139823750D01*
X31373000Y-139823750D01*
X31214250Y-139665000D01*
X30300000Y-139661928D01*
X30175518Y-139674188D01*
X30055820Y-139710498D01*
X29945506Y-139769463D01*
X29848815Y-139848815D01*
X29769463Y-139945506D01*
X29710498Y-140055820D01*
X29674188Y-140175518D01*
X29661928Y-140300000D01*
X20252000Y-140300000D01*
X20252000Y-136992017D01*
X39978090Y-136992017D01*
X40019078Y-137264133D01*
X40112364Y-137523023D01*
X40174344Y-137638980D01*
X40414435Y-137705960D01*
X41200395Y-136920000D01*
X40414435Y-136134040D01*
X40174344Y-136201020D01*
X40057244Y-136450048D01*
X39990977Y-136717135D01*
X39978090Y-136992017D01*
X20252000Y-136992017D01*
X20252000Y-134810207D01*
X22573000Y-134810207D01*
X22573000Y-135189793D01*
X22647053Y-135562085D01*
X22792315Y-135912777D01*
X23003201Y-136228391D01*
X23271609Y-136496799D01*
X23587223Y-136707685D01*
X23937915Y-136852947D01*
X24310207Y-136927000D01*
X24689793Y-136927000D01*
X25062085Y-136852947D01*
X25412777Y-136707685D01*
X25728391Y-136496799D01*
X25996799Y-136228391D01*
X26207685Y-135912777D01*
X26352947Y-135562085D01*
X26427000Y-135189793D01*
X26427000Y-134810207D01*
X26352947Y-134437915D01*
X26207685Y-134087223D01*
X25996799Y-133771609D01*
X25728391Y-133503201D01*
X25412777Y-133292315D01*
X25062085Y-133147053D01*
X24689793Y-133073000D01*
X24310207Y-133073000D01*
X23937915Y-133147053D01*
X23587223Y-133292315D01*
X23271609Y-133503201D01*
X23003201Y-133771609D01*
X22792315Y-134087223D01*
X22647053Y-134437915D01*
X22573000Y-134810207D01*
X20252000Y-134810207D01*
X20252000Y-132512322D01*
X20268496Y-132344076D01*
X61823000Y-132344076D01*
X61823000Y-132575924D01*
X61868231Y-132803318D01*
X61956956Y-133017519D01*
X62085764Y-133210294D01*
X62249706Y-133374236D01*
X62442481Y-133503044D01*
X62656682Y-133591769D01*
X62884076Y-133637000D01*
X63115924Y-133637000D01*
X63343318Y-133591769D01*
X63557519Y-133503044D01*
X63750294Y-133374236D01*
X63914236Y-133210294D01*
X64043044Y-133017519D01*
X64131769Y-132803318D01*
X64177000Y-132575924D01*
X64177000Y-132344076D01*
X64363000Y-132344076D01*
X64363000Y-132575924D01*
X64408231Y-132803318D01*
X64496956Y-133017519D01*
X64625764Y-133210294D01*
X64789706Y-133374236D01*
X64982481Y-133503044D01*
X65196682Y-133591769D01*
X65424076Y-133637000D01*
X65655924Y-133637000D01*
X65883318Y-133591769D01*
X66097519Y-133503044D01*
X66290294Y-133374236D01*
X66454236Y-133210294D01*
X66583044Y-133017519D01*
X66651264Y-132852821D01*
X66735843Y-133091252D01*
X66884822Y-133341355D01*
X67079731Y-133557588D01*
X67313080Y-133731641D01*
X67575901Y-133856825D01*
X67684612Y-133889799D01*
X67522481Y-133956956D01*
X67329706Y-134085764D01*
X67165764Y-134249706D01*
X67036956Y-134442481D01*
X66948231Y-134656682D01*
X66903000Y-134884076D01*
X66903000Y-135115924D01*
X66948231Y-135343318D01*
X67036956Y-135557519D01*
X67165764Y-135750294D01*
X67329706Y-135914236D01*
X67522481Y-136043044D01*
X67628000Y-136086751D01*
X67628001Y-142874206D01*
X67536564Y-142935302D01*
X67435302Y-143036564D01*
X67355741Y-143155636D01*
X67300938Y-143287942D01*
X67273000Y-143428397D01*
X67273000Y-143571603D01*
X67300938Y-143712058D01*
X67355741Y-143844364D01*
X67435302Y-143963436D01*
X67536564Y-144064698D01*
X67655636Y-144144259D01*
X67787942Y-144199062D01*
X67928397Y-144227000D01*
X68071603Y-144227000D01*
X68212058Y-144199062D01*
X68344364Y-144144259D01*
X68463436Y-144064698D01*
X68564698Y-143963436D01*
X68644259Y-143844364D01*
X68699062Y-143712058D01*
X68727000Y-143571603D01*
X68727000Y-143428397D01*
X68699062Y-143287942D01*
X68644259Y-143155636D01*
X68564698Y-143036564D01*
X68532000Y-143003866D01*
X68532000Y-142428397D01*
X70023000Y-142428397D01*
X70023000Y-142571603D01*
X70050938Y-142712058D01*
X70105741Y-142844364D01*
X70185302Y-142963436D01*
X70286564Y-143064698D01*
X70405636Y-143144259D01*
X70537942Y-143199062D01*
X70678397Y-143227000D01*
X70821603Y-143227000D01*
X70962058Y-143199062D01*
X71094364Y-143144259D01*
X71213436Y-143064698D01*
X71314698Y-142963436D01*
X71322339Y-142952000D01*
X83177661Y-142952000D01*
X83185302Y-142963436D01*
X83286564Y-143064698D01*
X83405636Y-143144259D01*
X83537942Y-143199062D01*
X83678397Y-143227000D01*
X83821603Y-143227000D01*
X83962058Y-143199062D01*
X84094364Y-143144259D01*
X84213436Y-143064698D01*
X84314698Y-142963436D01*
X84394259Y-142844364D01*
X84449062Y-142712058D01*
X84477000Y-142571603D01*
X84477000Y-142428397D01*
X84449062Y-142287942D01*
X84394259Y-142155636D01*
X84314698Y-142036564D01*
X84213436Y-141935302D01*
X84094364Y-141855741D01*
X83962058Y-141800938D01*
X83821603Y-141773000D01*
X83678397Y-141773000D01*
X83537942Y-141800938D01*
X83405636Y-141855741D01*
X83286564Y-141935302D01*
X83185302Y-142036564D01*
X83177661Y-142048000D01*
X71322339Y-142048000D01*
X71314698Y-142036564D01*
X71213436Y-141935302D01*
X71094364Y-141855741D01*
X70962058Y-141800938D01*
X70821603Y-141773000D01*
X70678397Y-141773000D01*
X70537942Y-141800938D01*
X70405636Y-141855741D01*
X70286564Y-141935302D01*
X70185302Y-142036564D01*
X70105741Y-142155636D01*
X70050938Y-142287942D01*
X70023000Y-142428397D01*
X68532000Y-142428397D01*
X68532000Y-141654528D01*
X87113000Y-141654528D01*
X87113000Y-141945472D01*
X87169760Y-142230825D01*
X87281099Y-142499622D01*
X87442739Y-142741533D01*
X87648467Y-142947261D01*
X87890378Y-143108901D01*
X88159175Y-143220240D01*
X88444528Y-143277000D01*
X88735472Y-143277000D01*
X89020825Y-143220240D01*
X89289622Y-143108901D01*
X89531533Y-142947261D01*
X89737261Y-142741533D01*
X89898901Y-142499622D01*
X90010240Y-142230825D01*
X90067000Y-141945472D01*
X90067000Y-141654528D01*
X90010240Y-141369175D01*
X89898901Y-141100378D01*
X89737261Y-140858467D01*
X89531533Y-140652739D01*
X89289622Y-140491099D01*
X89020825Y-140379760D01*
X88735472Y-140323000D01*
X88444528Y-140323000D01*
X88159175Y-140379760D01*
X87890378Y-140491099D01*
X87648467Y-140652739D01*
X87442739Y-140858467D01*
X87281099Y-141100378D01*
X87169760Y-141369175D01*
X87113000Y-141654528D01*
X68532000Y-141654528D01*
X68532000Y-137428397D01*
X69523000Y-137428397D01*
X69523000Y-137571603D01*
X69550938Y-137712058D01*
X69605741Y-137844364D01*
X69685302Y-137963436D01*
X69786564Y-138064698D01*
X69905636Y-138144259D01*
X70037942Y-138199062D01*
X70178397Y-138227000D01*
X70321603Y-138227000D01*
X70462058Y-138199062D01*
X70594364Y-138144259D01*
X70713436Y-138064698D01*
X70814698Y-137963436D01*
X70822339Y-137952000D01*
X72927661Y-137952000D01*
X72935302Y-137963436D01*
X73036564Y-138064698D01*
X73155636Y-138144259D01*
X73287942Y-138199062D01*
X73428397Y-138227000D01*
X73571603Y-138227000D01*
X73712058Y-138199062D01*
X73844364Y-138144259D01*
X73963436Y-138064698D01*
X74064698Y-137963436D01*
X74144259Y-137844364D01*
X74199062Y-137712058D01*
X74227000Y-137571603D01*
X74227000Y-137428397D01*
X74199062Y-137287942D01*
X74144259Y-137155636D01*
X74064698Y-137036564D01*
X73963436Y-136935302D01*
X73844364Y-136855741D01*
X73712058Y-136800938D01*
X73571603Y-136773000D01*
X73428397Y-136773000D01*
X73287942Y-136800938D01*
X73155636Y-136855741D01*
X73036564Y-136935302D01*
X72935302Y-137036564D01*
X72927661Y-137048000D01*
X70822339Y-137048000D01*
X70814698Y-137036564D01*
X70713436Y-136935302D01*
X70594364Y-136855741D01*
X70462058Y-136800938D01*
X70321603Y-136773000D01*
X70178397Y-136773000D01*
X70037942Y-136800938D01*
X69905636Y-136855741D01*
X69786564Y-136935302D01*
X69685302Y-137036564D01*
X69605741Y-137155636D01*
X69550938Y-137287942D01*
X69523000Y-137428397D01*
X68532000Y-137428397D01*
X68532000Y-136086751D01*
X68637519Y-136043044D01*
X68830294Y-135914236D01*
X68994236Y-135750294D01*
X69123044Y-135557519D01*
X69211769Y-135343318D01*
X69257000Y-135115924D01*
X69257000Y-134884076D01*
X69242307Y-134810207D01*
X88573000Y-134810207D01*
X88573000Y-135189793D01*
X88647053Y-135562085D01*
X88792315Y-135912777D01*
X89003201Y-136228391D01*
X89271609Y-136496799D01*
X89587223Y-136707685D01*
X89937915Y-136852947D01*
X90310207Y-136927000D01*
X90689793Y-136927000D01*
X91062085Y-136852947D01*
X91412777Y-136707685D01*
X91728391Y-136496799D01*
X91996799Y-136228391D01*
X92207685Y-135912777D01*
X92352947Y-135562085D01*
X92427000Y-135189793D01*
X92427000Y-134810207D01*
X92352947Y-134437915D01*
X92207685Y-134087223D01*
X91996799Y-133771609D01*
X91728391Y-133503201D01*
X91412777Y-133292315D01*
X91062085Y-133147053D01*
X90689793Y-133073000D01*
X90310207Y-133073000D01*
X89937915Y-133147053D01*
X89587223Y-133292315D01*
X89271609Y-133503201D01*
X89003201Y-133771609D01*
X88792315Y-134087223D01*
X88647053Y-134437915D01*
X88573000Y-134810207D01*
X69242307Y-134810207D01*
X69211769Y-134656682D01*
X69123044Y-134442481D01*
X68994236Y-134249706D01*
X68830294Y-134085764D01*
X68637519Y-133956956D01*
X68475388Y-133889799D01*
X68584099Y-133856825D01*
X68846920Y-133731641D01*
X69080269Y-133557588D01*
X69275178Y-133341355D01*
X69424157Y-133091252D01*
X69521481Y-132816891D01*
X69400814Y-132587000D01*
X68207000Y-132587000D01*
X68207000Y-132607000D01*
X67953000Y-132607000D01*
X67953000Y-132587000D01*
X67933000Y-132587000D01*
X67933000Y-132333000D01*
X67953000Y-132333000D01*
X67953000Y-131139845D01*
X68207000Y-131139845D01*
X68207000Y-132333000D01*
X69400814Y-132333000D01*
X69521481Y-132103109D01*
X69424157Y-131828748D01*
X69333766Y-131677000D01*
X73515000Y-131677000D01*
X73515000Y-132102000D01*
X73562066Y-132325865D01*
X73651901Y-132536246D01*
X73781053Y-132725059D01*
X73944559Y-132885047D01*
X74136136Y-133010063D01*
X74369190Y-133093964D01*
X74548000Y-132968163D01*
X74548000Y-131677000D01*
X74802000Y-131677000D01*
X74802000Y-132968163D01*
X74980810Y-133093964D01*
X75213864Y-133010063D01*
X75405441Y-132885047D01*
X75568947Y-132725059D01*
X75698099Y-132536246D01*
X75787934Y-132325865D01*
X75835000Y-132102000D01*
X75835000Y-131677000D01*
X80665000Y-131677000D01*
X80665000Y-132102000D01*
X80712066Y-132325865D01*
X80801901Y-132536246D01*
X80931053Y-132725059D01*
X81094559Y-132885047D01*
X81286136Y-133010063D01*
X81519190Y-133093964D01*
X81698000Y-132968163D01*
X81698000Y-131677000D01*
X81952000Y-131677000D01*
X81952000Y-132968163D01*
X82130810Y-133093964D01*
X82363864Y-133010063D01*
X82555441Y-132885047D01*
X82718947Y-132725059D01*
X82848099Y-132536246D01*
X82937934Y-132325865D01*
X82985000Y-132102000D01*
X82985000Y-131677000D01*
X81952000Y-131677000D01*
X81698000Y-131677000D01*
X80665000Y-131677000D01*
X75835000Y-131677000D01*
X74802000Y-131677000D01*
X74548000Y-131677000D01*
X73515000Y-131677000D01*
X69333766Y-131677000D01*
X69275178Y-131578645D01*
X69080269Y-131362412D01*
X68846920Y-131188359D01*
X68584099Y-131063175D01*
X68436890Y-131018524D01*
X68207000Y-131139845D01*
X67953000Y-131139845D01*
X67723110Y-131018524D01*
X67575901Y-131063175D01*
X67313080Y-131188359D01*
X67079731Y-131362412D01*
X66884822Y-131578645D01*
X66735843Y-131828748D01*
X66651264Y-132067179D01*
X66583044Y-131902481D01*
X66454236Y-131709706D01*
X66290294Y-131545764D01*
X66097519Y-131416956D01*
X65883318Y-131328231D01*
X65655924Y-131283000D01*
X65424076Y-131283000D01*
X65196682Y-131328231D01*
X64982481Y-131416956D01*
X64789706Y-131545764D01*
X64625764Y-131709706D01*
X64496956Y-131902481D01*
X64408231Y-132116682D01*
X64363000Y-132344076D01*
X64177000Y-132344076D01*
X64131769Y-132116682D01*
X64043044Y-131902481D01*
X63914236Y-131709706D01*
X63750294Y-131545764D01*
X63557519Y-131416956D01*
X63343318Y-131328231D01*
X63115924Y-131283000D01*
X62884076Y-131283000D01*
X62656682Y-131328231D01*
X62442481Y-131416956D01*
X62249706Y-131545764D01*
X62085764Y-131709706D01*
X61956956Y-131902481D01*
X61868231Y-132116682D01*
X61823000Y-132344076D01*
X20268496Y-132344076D01*
X20295998Y-132063595D01*
X20422737Y-131643816D01*
X20628600Y-131256644D01*
X20905739Y-130916836D01*
X21243612Y-130637324D01*
X21629336Y-130428764D01*
X22048216Y-130299100D01*
X22496202Y-130252014D01*
X22500343Y-130252000D01*
X73870540Y-130287379D01*
%TA.AperFunction,Conductor*%
D25*
G36*
X73870540Y-130287379D02*
G01*
X73781053Y-130374941D01*
X73651901Y-130563754D01*
X73562066Y-130774135D01*
X73515000Y-130998000D01*
X73515000Y-131423000D01*
X74548000Y-131423000D01*
X74548000Y-131403000D01*
X74802000Y-131403000D01*
X74802000Y-131423000D01*
X75835000Y-131423000D01*
X75835000Y-130998000D01*
X75787934Y-130774135D01*
X75698099Y-130563754D01*
X75568947Y-130374941D01*
X75480593Y-130288488D01*
X81015511Y-130292300D01*
X80931053Y-130374941D01*
X80801901Y-130563754D01*
X80712066Y-130774135D01*
X80665000Y-130998000D01*
X80665000Y-131423000D01*
X81698000Y-131423000D01*
X81698000Y-131403000D01*
X81952000Y-131403000D01*
X81952000Y-131423000D01*
X82985000Y-131423000D01*
X82985000Y-130998000D01*
X82937934Y-130774135D01*
X82848099Y-130563754D01*
X82718947Y-130374941D01*
X82635629Y-130293416D01*
X92952745Y-130300522D01*
X93360169Y-130424384D01*
X93746941Y-130630986D01*
X94086223Y-130908783D01*
X94365081Y-131247186D01*
X94572901Y-131633308D01*
X94701764Y-132052442D01*
X94748000Y-132500621D01*
X94748001Y-187487668D01*
X94704002Y-187936401D01*
X94577264Y-188356182D01*
X94371400Y-188743355D01*
X94094259Y-189083166D01*
X93756387Y-189362676D01*
X93370669Y-189571234D01*
X92951784Y-189700900D01*
X92503798Y-189747986D01*
X92499691Y-189748000D01*
X22512322Y-189748000D01*
X22063599Y-189704002D01*
X21643818Y-189577264D01*
X21256645Y-189371400D01*
X20916834Y-189094259D01*
X20637324Y-188756387D01*
X20428766Y-188370669D01*
X20299100Y-187951784D01*
X20252014Y-187503798D01*
X20252000Y-187499691D01*
X20252000Y-185310207D01*
X22573000Y-185310207D01*
X22573000Y-185689793D01*
X22647053Y-186062085D01*
X22792315Y-186412777D01*
X23003201Y-186728391D01*
X23271609Y-186996799D01*
X23587223Y-187207685D01*
X23937915Y-187352947D01*
X24310207Y-187427000D01*
X24689793Y-187427000D01*
X25062085Y-187352947D01*
X25412777Y-187207685D01*
X25728391Y-186996799D01*
X25996799Y-186728391D01*
X26092232Y-186585565D01*
X40594040Y-186585565D01*
X40661020Y-186825656D01*
X40910048Y-186942756D01*
X41177135Y-187009023D01*
X41452017Y-187021910D01*
X41724133Y-186980922D01*
X41983023Y-186887636D01*
X42098980Y-186825656D01*
X42165960Y-186585565D01*
X41380000Y-185799605D01*
X40594040Y-186585565D01*
X26092232Y-186585565D01*
X26207685Y-186412777D01*
X26352947Y-186062085D01*
X26426557Y-185692017D01*
X39978090Y-185692017D01*
X40019078Y-185964133D01*
X40112364Y-186223023D01*
X40174344Y-186338980D01*
X40414435Y-186405960D01*
X41200395Y-185620000D01*
X41559605Y-185620000D01*
X42345565Y-186405960D01*
X42585656Y-186338980D01*
X42702756Y-186089952D01*
X42769023Y-185822865D01*
X42781910Y-185547983D01*
X42740922Y-185275867D01*
X42647636Y-185016977D01*
X42585656Y-184901020D01*
X42345565Y-184834040D01*
X41559605Y-185620000D01*
X41200395Y-185620000D01*
X40414435Y-184834040D01*
X40174344Y-184901020D01*
X40057244Y-185150048D01*
X39990977Y-185417135D01*
X39978090Y-185692017D01*
X26426557Y-185692017D01*
X26427000Y-185689793D01*
X26427000Y-185310207D01*
X26352947Y-184937915D01*
X26235526Y-184654435D01*
X40594040Y-184654435D01*
X41380000Y-185440395D01*
X42165960Y-184654435D01*
X42098980Y-184414344D01*
X41849952Y-184297244D01*
X41582865Y-184230977D01*
X41307983Y-184218090D01*
X41035867Y-184259078D01*
X40776977Y-184352364D01*
X40661020Y-184414344D01*
X40594040Y-184654435D01*
X26235526Y-184654435D01*
X26207685Y-184587223D01*
X25996799Y-184271609D01*
X25728391Y-184003201D01*
X25412777Y-183792315D01*
X25062085Y-183647053D01*
X24689793Y-183573000D01*
X24310207Y-183573000D01*
X23937915Y-183647053D01*
X23587223Y-183792315D01*
X23271609Y-184003201D01*
X23003201Y-184271609D01*
X22792315Y-184587223D01*
X22647053Y-184937915D01*
X22573000Y-185310207D01*
X20252000Y-185310207D01*
X20252000Y-180540000D01*
X39845612Y-180540000D01*
X39875095Y-180839344D01*
X39962410Y-181127185D01*
X40104203Y-181392460D01*
X40295024Y-181624976D01*
X40527540Y-181815797D01*
X40792815Y-181957590D01*
X41080656Y-182044905D01*
X41304989Y-182067000D01*
X52407497Y-182067000D01*
X59313899Y-188973403D01*
X59313901Y-188973406D01*
X59526594Y-189186099D01*
X59589281Y-189227985D01*
X59647539Y-189275796D01*
X59714007Y-189311324D01*
X59776694Y-189353210D01*
X59846346Y-189382061D01*
X59912814Y-189417589D01*
X59984933Y-189439466D01*
X60054590Y-189468319D01*
X60128540Y-189483028D01*
X60200655Y-189504904D01*
X60275655Y-189512291D01*
X60349604Y-189527000D01*
X60424998Y-189527000D01*
X60499999Y-189534387D01*
X60575000Y-189527000D01*
X60650396Y-189527000D01*
X60724346Y-189512291D01*
X60799344Y-189504904D01*
X60871456Y-189483029D01*
X60945410Y-189468319D01*
X61015072Y-189439464D01*
X61087184Y-189417589D01*
X61153646Y-189382064D01*
X61223306Y-189353210D01*
X61285998Y-189311321D01*
X61352460Y-189275796D01*
X61410715Y-189227988D01*
X61473406Y-189186099D01*
X61526719Y-189132786D01*
X61584976Y-189084976D01*
X61632786Y-189026719D01*
X61686099Y-188973406D01*
X61727988Y-188910715D01*
X61775796Y-188852460D01*
X61811321Y-188785998D01*
X61853210Y-188723306D01*
X61882064Y-188653646D01*
X61917589Y-188587184D01*
X61939464Y-188515072D01*
X61968319Y-188445410D01*
X61983029Y-188371456D01*
X62004904Y-188299344D01*
X62012291Y-188224346D01*
X62027000Y-188150396D01*
X62027000Y-188075000D01*
X62034387Y-187999999D01*
X62027000Y-187924998D01*
X62027000Y-187849604D01*
X62012291Y-187775655D01*
X62004904Y-187700655D01*
X61983028Y-187628540D01*
X61968319Y-187554590D01*
X61939466Y-187484933D01*
X61917589Y-187412814D01*
X61882061Y-187346346D01*
X61853210Y-187276694D01*
X61832701Y-187246000D01*
X61917590Y-187087185D01*
X62004905Y-186799344D01*
X62034387Y-186500000D01*
X62004905Y-186200655D01*
X61934642Y-185969029D01*
X61955443Y-185930115D01*
X61997330Y-185867426D01*
X62026180Y-185797776D01*
X62061710Y-185731305D01*
X62083587Y-185659183D01*
X62112439Y-185589530D01*
X62127148Y-185515579D01*
X62149024Y-185443464D01*
X62156411Y-185368466D01*
X62167998Y-185310207D01*
X88573000Y-185310207D01*
X88573000Y-185689793D01*
X88647053Y-186062085D01*
X88792315Y-186412777D01*
X89003201Y-186728391D01*
X89271609Y-186996799D01*
X89587223Y-187207685D01*
X89937915Y-187352947D01*
X90310207Y-187427000D01*
X90689793Y-187427000D01*
X91062085Y-187352947D01*
X91412777Y-187207685D01*
X91728391Y-186996799D01*
X91996799Y-186728391D01*
X92207685Y-186412777D01*
X92352947Y-186062085D01*
X92427000Y-185689793D01*
X92427000Y-185310207D01*
X92352947Y-184937915D01*
X92207685Y-184587223D01*
X91996799Y-184271609D01*
X91728391Y-184003201D01*
X91412777Y-183792315D01*
X91062085Y-183647053D01*
X90689793Y-183573000D01*
X90310207Y-183573000D01*
X89937915Y-183647053D01*
X89587223Y-183792315D01*
X89271609Y-184003201D01*
X89003201Y-184271609D01*
X88792315Y-184587223D01*
X88647053Y-184937915D01*
X88573000Y-185310207D01*
X62167998Y-185310207D01*
X62171120Y-185294516D01*
X62171120Y-185219121D01*
X62178507Y-185144120D01*
X62171120Y-185069119D01*
X62171120Y-184993724D01*
X62156411Y-184919775D01*
X62149024Y-184844775D01*
X62127148Y-184772659D01*
X62112439Y-184698710D01*
X62083588Y-184629057D01*
X62061710Y-184556935D01*
X62026180Y-184490463D01*
X61997330Y-184420814D01*
X61955445Y-184358128D01*
X61919916Y-184291659D01*
X61872105Y-184233401D01*
X61830219Y-184170714D01*
X61617526Y-183958021D01*
X61617523Y-183958019D01*
X57172797Y-179513294D01*
X57124976Y-179455024D01*
X56892460Y-179264203D01*
X56627185Y-179122410D01*
X56339344Y-179035095D01*
X56115011Y-179013000D01*
X56115001Y-179013000D01*
X56040000Y-179005613D01*
X55964999Y-179013000D01*
X54615001Y-179013000D01*
X54540000Y-179005613D01*
X54464999Y-179013000D01*
X53115001Y-179013000D01*
X53040000Y-179005613D01*
X52964999Y-179013000D01*
X41780095Y-179013000D01*
X41895835Y-178965059D01*
X42074197Y-178845881D01*
X42225881Y-178694197D01*
X42345059Y-178515835D01*
X42427150Y-178317650D01*
X42469000Y-178107257D01*
X42469000Y-177892743D01*
X42427150Y-177682350D01*
X42345059Y-177484165D01*
X42307796Y-177428397D01*
X56773000Y-177428397D01*
X56773000Y-177571603D01*
X56800938Y-177712058D01*
X56855741Y-177844364D01*
X56935302Y-177963436D01*
X56971866Y-178000000D01*
X56935302Y-178036564D01*
X56855741Y-178155636D01*
X56800938Y-178287942D01*
X56773000Y-178428397D01*
X56773000Y-178571603D01*
X56800938Y-178712058D01*
X56855741Y-178844364D01*
X56935302Y-178963436D01*
X57036564Y-179064698D01*
X57155636Y-179144259D01*
X57287942Y-179199062D01*
X57428397Y-179227000D01*
X57571603Y-179227000D01*
X57712058Y-179199062D01*
X57844364Y-179144259D01*
X57963436Y-179064698D01*
X58064698Y-178963436D01*
X58072339Y-178952000D01*
X61550797Y-178952000D01*
X61573002Y-178954187D01*
X61595207Y-178952000D01*
X61661609Y-178945460D01*
X61746812Y-178919614D01*
X61825335Y-178877643D01*
X61894161Y-178821159D01*
X61908325Y-178803900D01*
X69303912Y-171408315D01*
X69321159Y-171394161D01*
X69377643Y-171325335D01*
X69419614Y-171246812D01*
X69445460Y-171161609D01*
X69452000Y-171095207D01*
X69452000Y-171095206D01*
X69454187Y-171073003D01*
X69452000Y-171050798D01*
X69452000Y-168572339D01*
X69463436Y-168564698D01*
X69564698Y-168463436D01*
X69644259Y-168344364D01*
X69699062Y-168212058D01*
X69727000Y-168071603D01*
X69727000Y-167928397D01*
X69699062Y-167787942D01*
X69644259Y-167655636D01*
X69564698Y-167536564D01*
X69463436Y-167435302D01*
X69344364Y-167355741D01*
X69212058Y-167300938D01*
X69071603Y-167273000D01*
X68928397Y-167273000D01*
X68787942Y-167300938D01*
X68655636Y-167355741D01*
X68536564Y-167435302D01*
X68500000Y-167471866D01*
X68463436Y-167435302D01*
X68452000Y-167427661D01*
X68452000Y-160847339D01*
X68463436Y-160839698D01*
X68564698Y-160738436D01*
X68644259Y-160619364D01*
X68699062Y-160487058D01*
X68727000Y-160346603D01*
X68727000Y-160203397D01*
X68699062Y-160062942D01*
X68644259Y-159930636D01*
X68564698Y-159811564D01*
X68463436Y-159710302D01*
X68344364Y-159630741D01*
X68212058Y-159575938D01*
X68071603Y-159548000D01*
X67928397Y-159548000D01*
X67787942Y-159575938D01*
X67655636Y-159630741D01*
X67536564Y-159710302D01*
X67435302Y-159811564D01*
X67355741Y-159930636D01*
X67300938Y-160062942D01*
X67273000Y-160203397D01*
X67273000Y-160346603D01*
X67300938Y-160487058D01*
X67355741Y-160619364D01*
X67435302Y-160738436D01*
X67536564Y-160839698D01*
X67548000Y-160847339D01*
X67548001Y-167427660D01*
X67536564Y-167435302D01*
X67435302Y-167536564D01*
X67355741Y-167655636D01*
X67300938Y-167787942D01*
X67273000Y-167928397D01*
X67273000Y-168071603D01*
X67300938Y-168212058D01*
X67355741Y-168344364D01*
X67435302Y-168463436D01*
X67536564Y-168564698D01*
X67655636Y-168644259D01*
X67787942Y-168699062D01*
X67928397Y-168727000D01*
X68071603Y-168727000D01*
X68212058Y-168699062D01*
X68344364Y-168644259D01*
X68463436Y-168564698D01*
X68500000Y-168528134D01*
X68536564Y-168564698D01*
X68548001Y-168572340D01*
X68548000Y-170885777D01*
X62183473Y-177250306D01*
X62144259Y-177155636D01*
X62064698Y-177036564D01*
X61963436Y-176935302D01*
X61844364Y-176855741D01*
X61712058Y-176800938D01*
X61571603Y-176773000D01*
X61428397Y-176773000D01*
X61287942Y-176800938D01*
X61155636Y-176855741D01*
X61036564Y-176935302D01*
X60935302Y-177036564D01*
X60927661Y-177048000D01*
X58072339Y-177048000D01*
X58064698Y-177036564D01*
X57963436Y-176935302D01*
X57844364Y-176855741D01*
X57712058Y-176800938D01*
X57571603Y-176773000D01*
X57428397Y-176773000D01*
X57287942Y-176800938D01*
X57155636Y-176855741D01*
X57036564Y-176935302D01*
X56935302Y-177036564D01*
X56855741Y-177155636D01*
X56800938Y-177287942D01*
X56773000Y-177428397D01*
X42307796Y-177428397D01*
X42225881Y-177305803D01*
X42074197Y-177154119D01*
X41895835Y-177034941D01*
X41697650Y-176952850D01*
X41487257Y-176911000D01*
X41272743Y-176911000D01*
X41062350Y-176952850D01*
X40864165Y-177034941D01*
X40685803Y-177154119D01*
X40534119Y-177305803D01*
X40414941Y-177484165D01*
X40332850Y-177682350D01*
X40291000Y-177892743D01*
X40291000Y-178107257D01*
X40332850Y-178317650D01*
X40414941Y-178515835D01*
X40534119Y-178694197D01*
X40685803Y-178845881D01*
X40864165Y-178965059D01*
X41053289Y-179043397D01*
X40792815Y-179122410D01*
X40527540Y-179264203D01*
X40295024Y-179455024D01*
X40104203Y-179687540D01*
X39962410Y-179952815D01*
X39875095Y-180240656D01*
X39845612Y-180540000D01*
X20252000Y-180540000D01*
X20252000Y-178849604D01*
X29973000Y-178849604D01*
X29973000Y-179150396D01*
X30031681Y-179445410D01*
X30146790Y-179723306D01*
X30313901Y-179973406D01*
X30526594Y-180186099D01*
X30776694Y-180353210D01*
X31054590Y-180468319D01*
X31349604Y-180527000D01*
X31650396Y-180527000D01*
X31945410Y-180468319D01*
X32223306Y-180353210D01*
X32473406Y-180186099D01*
X32686099Y-179973406D01*
X32853210Y-179723306D01*
X32968319Y-179445410D01*
X33027000Y-179150396D01*
X33027000Y-178849604D01*
X32968319Y-178554590D01*
X32853210Y-178276694D01*
X32686099Y-178026594D01*
X32473406Y-177813901D01*
X32223306Y-177646790D01*
X31945410Y-177531681D01*
X31650396Y-177473000D01*
X31349604Y-177473000D01*
X31054590Y-177531681D01*
X30776694Y-177646790D01*
X30526594Y-177813901D01*
X30313901Y-178026594D01*
X30146790Y-178276694D01*
X30031681Y-178554590D01*
X29973000Y-178849604D01*
X20252000Y-178849604D01*
X20252000Y-175349604D01*
X29973000Y-175349604D01*
X29973000Y-175650396D01*
X30031681Y-175945410D01*
X30146790Y-176223306D01*
X30313901Y-176473406D01*
X30526594Y-176686099D01*
X30776694Y-176853210D01*
X31054590Y-176968319D01*
X31349604Y-177027000D01*
X31650396Y-177027000D01*
X31945410Y-176968319D01*
X32223306Y-176853210D01*
X32473406Y-176686099D01*
X32686099Y-176473406D01*
X32853210Y-176223306D01*
X32968319Y-175945410D01*
X33027000Y-175650396D01*
X33027000Y-175352743D01*
X40291000Y-175352743D01*
X40291000Y-175567257D01*
X40332850Y-175777650D01*
X40414941Y-175975835D01*
X40534119Y-176154197D01*
X40685803Y-176305881D01*
X40864165Y-176425059D01*
X41062350Y-176507150D01*
X41272743Y-176549000D01*
X41487257Y-176549000D01*
X41697650Y-176507150D01*
X41895835Y-176425059D01*
X42074197Y-176305881D01*
X42225881Y-176154197D01*
X42345059Y-175975835D01*
X42427150Y-175777650D01*
X42469000Y-175567257D01*
X42469000Y-175352743D01*
X42427150Y-175142350D01*
X42345059Y-174944165D01*
X42225881Y-174765803D01*
X42074197Y-174614119D01*
X41895835Y-174494941D01*
X41697650Y-174412850D01*
X41487257Y-174371000D01*
X41272743Y-174371000D01*
X41062350Y-174412850D01*
X40864165Y-174494941D01*
X40685803Y-174614119D01*
X40534119Y-174765803D01*
X40414941Y-174944165D01*
X40332850Y-175142350D01*
X40291000Y-175352743D01*
X33027000Y-175352743D01*
X33027000Y-175349604D01*
X32968319Y-175054590D01*
X32853210Y-174776694D01*
X32686099Y-174526594D01*
X32473406Y-174313901D01*
X32223306Y-174146790D01*
X31945410Y-174031681D01*
X31650396Y-173973000D01*
X31349604Y-173973000D01*
X31054590Y-174031681D01*
X30776694Y-174146790D01*
X30526594Y-174313901D01*
X30313901Y-174526594D01*
X30146790Y-174776694D01*
X30031681Y-175054590D01*
X29973000Y-175349604D01*
X20252000Y-175349604D01*
X20252000Y-173885565D01*
X40594040Y-173885565D01*
X40661020Y-174125656D01*
X40910048Y-174242756D01*
X41177135Y-174309023D01*
X41452017Y-174321910D01*
X41724133Y-174280922D01*
X41983023Y-174187636D01*
X42098980Y-174125656D01*
X42165960Y-173885565D01*
X41380000Y-173099605D01*
X40594040Y-173885565D01*
X20252000Y-173885565D01*
X20252000Y-171849604D01*
X29973000Y-171849604D01*
X29973000Y-172150396D01*
X30031681Y-172445410D01*
X30146790Y-172723306D01*
X30313901Y-172973406D01*
X30526594Y-173186099D01*
X30776694Y-173353210D01*
X31054590Y-173468319D01*
X31349604Y-173527000D01*
X31650396Y-173527000D01*
X31945410Y-173468319D01*
X32223306Y-173353210D01*
X32473406Y-173186099D01*
X32667488Y-172992017D01*
X39978090Y-172992017D01*
X40019078Y-173264133D01*
X40112364Y-173523023D01*
X40174344Y-173638980D01*
X40414435Y-173705960D01*
X41200395Y-172920000D01*
X41559605Y-172920000D01*
X42345565Y-173705960D01*
X42585656Y-173638980D01*
X42702756Y-173389952D01*
X42769023Y-173122865D01*
X42781910Y-172847983D01*
X42740922Y-172575867D01*
X42647636Y-172316977D01*
X42585656Y-172201020D01*
X42345565Y-172134040D01*
X41559605Y-172920000D01*
X41200395Y-172920000D01*
X40414435Y-172134040D01*
X40174344Y-172201020D01*
X40057244Y-172450048D01*
X39990977Y-172717135D01*
X39978090Y-172992017D01*
X32667488Y-172992017D01*
X32686099Y-172973406D01*
X32853210Y-172723306D01*
X32968319Y-172445410D01*
X33027000Y-172150396D01*
X33027000Y-171849604D01*
X32968319Y-171554590D01*
X32853210Y-171276694D01*
X32686099Y-171026594D01*
X32473406Y-170813901D01*
X32223306Y-170646790D01*
X31945410Y-170531681D01*
X31650396Y-170473000D01*
X31349604Y-170473000D01*
X31054590Y-170531681D01*
X30776694Y-170646790D01*
X30526594Y-170813901D01*
X30313901Y-171026594D01*
X30146790Y-171276694D01*
X30031681Y-171554590D01*
X29973000Y-171849604D01*
X20252000Y-171849604D01*
X20252000Y-168349604D01*
X29973000Y-168349604D01*
X29973000Y-168650396D01*
X30031681Y-168945410D01*
X30146790Y-169223306D01*
X30313901Y-169473406D01*
X30526594Y-169686099D01*
X30776694Y-169853210D01*
X31054590Y-169968319D01*
X31349604Y-170027000D01*
X31650396Y-170027000D01*
X31945410Y-169968319D01*
X32223306Y-169853210D01*
X32473406Y-169686099D01*
X32686099Y-169473406D01*
X32853210Y-169223306D01*
X32968319Y-168945410D01*
X33027000Y-168650396D01*
X33027000Y-168349604D01*
X32968319Y-168054590D01*
X32853210Y-167776694D01*
X32686099Y-167526594D01*
X32473406Y-167313901D01*
X32223306Y-167146790D01*
X31945410Y-167031681D01*
X31650396Y-166973000D01*
X31349604Y-166973000D01*
X31054590Y-167031681D01*
X30776694Y-167146790D01*
X30526594Y-167313901D01*
X30313901Y-167526594D01*
X30146790Y-167776694D01*
X30031681Y-168054590D01*
X29973000Y-168349604D01*
X20252000Y-168349604D01*
X20252000Y-166200000D01*
X29661928Y-166200000D01*
X29674188Y-166324482D01*
X29710498Y-166444180D01*
X29769463Y-166554494D01*
X29848815Y-166651185D01*
X29945506Y-166730537D01*
X30055820Y-166789502D01*
X30175518Y-166825812D01*
X30300000Y-166838072D01*
X31214250Y-166835000D01*
X31373000Y-166676250D01*
X31373000Y-165127000D01*
X31627000Y-165127000D01*
X31627000Y-166676250D01*
X31785750Y-166835000D01*
X32700000Y-166838072D01*
X32824482Y-166825812D01*
X32944180Y-166789502D01*
X33054494Y-166730537D01*
X33151185Y-166651185D01*
X33230537Y-166554494D01*
X33289502Y-166444180D01*
X33325812Y-166324482D01*
X33338072Y-166200000D01*
X33335000Y-165285750D01*
X33176250Y-165127000D01*
X31627000Y-165127000D01*
X31373000Y-165127000D01*
X29823750Y-165127000D01*
X29665000Y-165285750D01*
X29661928Y-166200000D01*
X20252000Y-166200000D01*
X20252000Y-163800000D01*
X29661928Y-163800000D01*
X29665000Y-164714250D01*
X29823750Y-164873000D01*
X31373000Y-164873000D01*
X31373000Y-163323750D01*
X31214250Y-163165000D01*
X30300000Y-163161928D01*
X30175518Y-163174188D01*
X30055820Y-163210498D01*
X29945506Y-163269463D01*
X29848815Y-163348815D01*
X29769463Y-163445506D01*
X29710498Y-163555820D01*
X29674188Y-163675518D01*
X29661928Y-163800000D01*
X20252000Y-163800000D01*
X20252000Y-158349604D01*
X29973000Y-158349604D01*
X29973000Y-158650396D01*
X30031681Y-158945410D01*
X30146790Y-159223306D01*
X30173000Y-159262533D01*
X30173001Y-160434817D01*
X30166581Y-160500000D01*
X30192202Y-160760137D01*
X30268081Y-161010277D01*
X30391302Y-161240808D01*
X30515578Y-161392238D01*
X30557131Y-161442870D01*
X30607761Y-161484421D01*
X32286657Y-163163317D01*
X31785750Y-163165000D01*
X31627000Y-163323750D01*
X31627000Y-164873000D01*
X33176250Y-164873000D01*
X33335000Y-164714250D01*
X33336683Y-164213343D01*
X40487761Y-171364422D01*
X40639191Y-171488698D01*
X40869722Y-171611919D01*
X40880309Y-171615130D01*
X40776977Y-171652364D01*
X40661020Y-171714344D01*
X40594040Y-171954435D01*
X41380000Y-172740395D01*
X42165960Y-171954435D01*
X42098980Y-171714344D01*
X41884735Y-171613600D01*
X41890277Y-171611919D01*
X42120808Y-171488698D01*
X42322870Y-171322870D01*
X42488698Y-171120808D01*
X42611919Y-170890277D01*
X42687798Y-170640137D01*
X42713419Y-170380000D01*
X42687798Y-170119862D01*
X42611919Y-169869722D01*
X42488698Y-169639191D01*
X42364422Y-169487761D01*
X32827000Y-159950340D01*
X32827000Y-159262532D01*
X32853210Y-159223306D01*
X32968319Y-158945410D01*
X33027000Y-158650396D01*
X33027000Y-158349604D01*
X32968319Y-158054590D01*
X32853210Y-157776694D01*
X32686099Y-157526594D01*
X32473406Y-157313901D01*
X32223306Y-157146790D01*
X31945410Y-157031681D01*
X31650396Y-156973000D01*
X31349604Y-156973000D01*
X31054590Y-157031681D01*
X30776694Y-157146790D01*
X30526594Y-157313901D01*
X30313901Y-157526594D01*
X30146790Y-157776694D01*
X30031681Y-158054590D01*
X29973000Y-158349604D01*
X20252000Y-158349604D01*
X20252000Y-154849604D01*
X29973000Y-154849604D01*
X29973000Y-155150396D01*
X30031681Y-155445410D01*
X30146790Y-155723306D01*
X30313901Y-155973406D01*
X30526594Y-156186099D01*
X30776694Y-156353210D01*
X31054590Y-156468319D01*
X31349604Y-156527000D01*
X31650396Y-156527000D01*
X31945410Y-156468319D01*
X32223306Y-156353210D01*
X32262532Y-156327000D01*
X38838588Y-156327000D01*
X38903762Y-156333419D01*
X38968936Y-156327000D01*
X38968946Y-156327000D01*
X39163899Y-156307799D01*
X39414040Y-156231919D01*
X39644570Y-156108698D01*
X39846632Y-155942870D01*
X39888187Y-155892235D01*
X44434247Y-151346177D01*
X44484871Y-151304631D01*
X44526417Y-151254007D01*
X44526423Y-151254001D01*
X44650698Y-151102571D01*
X44700700Y-151009023D01*
X44773920Y-150872039D01*
X44849800Y-150621898D01*
X44868857Y-150428397D01*
X51273000Y-150428397D01*
X51273000Y-150571603D01*
X51300938Y-150712058D01*
X51355741Y-150844364D01*
X51435302Y-150963436D01*
X51536564Y-151064698D01*
X51655636Y-151144259D01*
X51787942Y-151199062D01*
X51928397Y-151227000D01*
X52071603Y-151227000D01*
X52212058Y-151199062D01*
X52344364Y-151144259D01*
X52378650Y-151121350D01*
X52355741Y-151155636D01*
X52300938Y-151287942D01*
X52273000Y-151428397D01*
X52273000Y-151571603D01*
X52300938Y-151712058D01*
X52355741Y-151844364D01*
X52435302Y-151963436D01*
X52536564Y-152064698D01*
X52655636Y-152144259D01*
X52787942Y-152199062D01*
X52928397Y-152227000D01*
X53041941Y-152227000D01*
X53041941Y-152302662D01*
X53069879Y-152443117D01*
X53124682Y-152575423D01*
X53204243Y-152694495D01*
X53305505Y-152795757D01*
X53424577Y-152875318D01*
X53556883Y-152930121D01*
X53697338Y-152958059D01*
X53773000Y-152958059D01*
X53773000Y-153071603D01*
X53800938Y-153212058D01*
X53855741Y-153344364D01*
X53935302Y-153463436D01*
X54036564Y-153564698D01*
X54155636Y-153644259D01*
X54287942Y-153699062D01*
X54428397Y-153727000D01*
X54571603Y-153727000D01*
X54585093Y-153724317D01*
X59709411Y-158848636D01*
X59723566Y-158865884D01*
X59792392Y-158922368D01*
X59870915Y-158964339D01*
X59936287Y-158984169D01*
X59956117Y-158990185D01*
X60044724Y-158998912D01*
X60066929Y-158996725D01*
X68927547Y-158996725D01*
X68935188Y-159008161D01*
X69036450Y-159109423D01*
X69155522Y-159188984D01*
X69287828Y-159243787D01*
X69428283Y-159271725D01*
X69571489Y-159271725D01*
X69711944Y-159243787D01*
X69844250Y-159188984D01*
X69963322Y-159109423D01*
X70048000Y-159024745D01*
X70048001Y-172312775D01*
X69196096Y-173164681D01*
X69178842Y-173178841D01*
X69151600Y-173212036D01*
X69122358Y-173247667D01*
X69080386Y-173326191D01*
X69054540Y-173411393D01*
X69045813Y-173500000D01*
X69048001Y-173522215D01*
X69048000Y-176927661D01*
X69036564Y-176935302D01*
X68935302Y-177036564D01*
X68855741Y-177155636D01*
X68800938Y-177287942D01*
X68773000Y-177428397D01*
X68773000Y-177571603D01*
X68800938Y-177712058D01*
X68855741Y-177844364D01*
X68935302Y-177963436D01*
X69036564Y-178064698D01*
X69155636Y-178144259D01*
X69287942Y-178199062D01*
X69428397Y-178227000D01*
X69571603Y-178227000D01*
X69712058Y-178199062D01*
X69844364Y-178144259D01*
X69963436Y-178064698D01*
X70064698Y-177963436D01*
X70144259Y-177844364D01*
X70199062Y-177712058D01*
X70227000Y-177571603D01*
X70227000Y-177428397D01*
X70199062Y-177287942D01*
X70144259Y-177155636D01*
X70064698Y-177036564D01*
X69963436Y-176935302D01*
X69952000Y-176927661D01*
X69952000Y-173980134D01*
X70049217Y-174077351D01*
X70168289Y-174156912D01*
X70300595Y-174211715D01*
X70441050Y-174239653D01*
X70584256Y-174239653D01*
X70724711Y-174211715D01*
X70857017Y-174156912D01*
X70957678Y-174089653D01*
X77161519Y-174089653D01*
X77236564Y-174164698D01*
X77355636Y-174244259D01*
X77487942Y-174299062D01*
X77628397Y-174327000D01*
X77771603Y-174327000D01*
X77912058Y-174299062D01*
X78044364Y-174244259D01*
X78163436Y-174164698D01*
X78264698Y-174063436D01*
X78344259Y-173944364D01*
X78399062Y-173812058D01*
X78427000Y-173671603D01*
X78427000Y-173528397D01*
X78399062Y-173387942D01*
X78344259Y-173255636D01*
X78264698Y-173136564D01*
X78163436Y-173035302D01*
X78044364Y-172955741D01*
X77912058Y-172900938D01*
X77771603Y-172873000D01*
X77628397Y-172873000D01*
X77487942Y-172900938D01*
X77404133Y-172935653D01*
X70957678Y-172935653D01*
X70857017Y-172868394D01*
X70796074Y-172843150D01*
X70803905Y-172835319D01*
X70821159Y-172821159D01*
X70877643Y-172752333D01*
X70919614Y-172673810D01*
X70945460Y-172588607D01*
X70952000Y-172522205D01*
X70954187Y-172500000D01*
X70952000Y-172477795D01*
X70952000Y-170904528D01*
X87113000Y-170904528D01*
X87113000Y-171195472D01*
X87169760Y-171480825D01*
X87281099Y-171749622D01*
X87442739Y-171991533D01*
X87648467Y-172197261D01*
X87890378Y-172358901D01*
X88159175Y-172470240D01*
X88444528Y-172527000D01*
X88735472Y-172527000D01*
X89020825Y-172470240D01*
X89289622Y-172358901D01*
X89531533Y-172197261D01*
X89737261Y-171991533D01*
X89898901Y-171749622D01*
X90010240Y-171480825D01*
X90067000Y-171195472D01*
X90067000Y-170904528D01*
X90010240Y-170619175D01*
X89898901Y-170350378D01*
X89737261Y-170108467D01*
X89531533Y-169902739D01*
X89289622Y-169741099D01*
X89020825Y-169629760D01*
X88735472Y-169573000D01*
X88444528Y-169573000D01*
X88159175Y-169629760D01*
X87890378Y-169741099D01*
X87648467Y-169902739D01*
X87442739Y-170108467D01*
X87281099Y-170350378D01*
X87169760Y-170619175D01*
X87113000Y-170904528D01*
X70952000Y-170904528D01*
X70952000Y-168564137D01*
X85505469Y-168564137D01*
X85572206Y-168804025D01*
X85820892Y-168920924D01*
X86087606Y-168987061D01*
X86362097Y-168999895D01*
X86633817Y-168958931D01*
X86892326Y-168865744D01*
X87007794Y-168804025D01*
X87074531Y-168564137D01*
X86290000Y-167779605D01*
X85505469Y-168564137D01*
X70952000Y-168564137D01*
X70952000Y-167672097D01*
X84890105Y-167672097D01*
X84931069Y-167943817D01*
X85024256Y-168202326D01*
X85085975Y-168317794D01*
X85325863Y-168384531D01*
X86110395Y-167600000D01*
X86469605Y-167600000D01*
X87254137Y-168384531D01*
X87494025Y-168317794D01*
X87610924Y-168069108D01*
X87677061Y-167802394D01*
X87689895Y-167527903D01*
X87648931Y-167256183D01*
X87555744Y-166997674D01*
X87494025Y-166882206D01*
X87254137Y-166815469D01*
X86469605Y-167600000D01*
X86110395Y-167600000D01*
X85325863Y-166815469D01*
X85085975Y-166882206D01*
X84969076Y-167130892D01*
X84902939Y-167397606D01*
X84890105Y-167672097D01*
X70952000Y-167672097D01*
X70952000Y-166472940D01*
X82663000Y-166472940D01*
X82663000Y-166687060D01*
X82704772Y-166897066D01*
X82786713Y-167094888D01*
X82905672Y-167272922D01*
X83057078Y-167424328D01*
X83235112Y-167543287D01*
X83432934Y-167625228D01*
X83642940Y-167667000D01*
X83857060Y-167667000D01*
X84067066Y-167625228D01*
X84264888Y-167543287D01*
X84442922Y-167424328D01*
X84594328Y-167272922D01*
X84713287Y-167094888D01*
X84795228Y-166897066D01*
X84837000Y-166687060D01*
X84837000Y-166472940D01*
X84795228Y-166262934D01*
X84713287Y-166065112D01*
X84594328Y-165887078D01*
X84457029Y-165749779D01*
X84467794Y-165744025D01*
X84534531Y-165504137D01*
X83750000Y-164719605D01*
X82965469Y-165504137D01*
X83032206Y-165744025D01*
X83043443Y-165749307D01*
X82905672Y-165887078D01*
X82786713Y-166065112D01*
X82704772Y-166262934D01*
X82663000Y-166472940D01*
X70952000Y-166472940D01*
X70952000Y-164612097D01*
X82350105Y-164612097D01*
X82391069Y-164883817D01*
X82484256Y-165142326D01*
X82545975Y-165257794D01*
X82785863Y-165324531D01*
X83570395Y-164540000D01*
X83929605Y-164540000D01*
X84714137Y-165324531D01*
X84954025Y-165257794D01*
X85070924Y-165009108D01*
X85137061Y-164742394D01*
X85149895Y-164467903D01*
X85108931Y-164196183D01*
X85015744Y-163937674D01*
X84954025Y-163822206D01*
X84714137Y-163755469D01*
X83929605Y-164540000D01*
X83570395Y-164540000D01*
X82785863Y-163755469D01*
X82545975Y-163822206D01*
X82429076Y-164070892D01*
X82362939Y-164337606D01*
X82350105Y-164612097D01*
X70952000Y-164612097D01*
X70952000Y-161740000D01*
X82661418Y-161740000D01*
X82661418Y-163260000D01*
X82667732Y-163324103D01*
X82686430Y-163385743D01*
X82716794Y-163442550D01*
X82757657Y-163492343D01*
X82807450Y-163533206D01*
X82864257Y-163563570D01*
X82925897Y-163582268D01*
X82976897Y-163587291D01*
X83750000Y-164360395D01*
X84523103Y-163587291D01*
X84574103Y-163582268D01*
X84635743Y-163563570D01*
X84692550Y-163533206D01*
X84742343Y-163492343D01*
X84783206Y-163442550D01*
X84813570Y-163385743D01*
X84832268Y-163324103D01*
X84838582Y-163260000D01*
X84838582Y-161740000D01*
X84832268Y-161675897D01*
X84813570Y-161614257D01*
X84783206Y-161557450D01*
X84742343Y-161507657D01*
X84692550Y-161466794D01*
X84635743Y-161436430D01*
X84574103Y-161417732D01*
X84510000Y-161411418D01*
X82990000Y-161411418D01*
X82925897Y-161417732D01*
X82864257Y-161436430D01*
X82807450Y-161466794D01*
X82757657Y-161507657D01*
X82716794Y-161557450D01*
X82686430Y-161614257D01*
X82667732Y-161675897D01*
X82661418Y-161740000D01*
X70952000Y-161740000D01*
X70952000Y-161480134D01*
X71036564Y-161564698D01*
X71155636Y-161644259D01*
X71287942Y-161699062D01*
X71428397Y-161727000D01*
X71571603Y-161727000D01*
X71712058Y-161699062D01*
X71844364Y-161644259D01*
X71963436Y-161564698D01*
X72064698Y-161463436D01*
X72144259Y-161344364D01*
X72199062Y-161212058D01*
X72227000Y-161071603D01*
X72227000Y-160928397D01*
X72199062Y-160787942D01*
X72144259Y-160655636D01*
X72064698Y-160536564D01*
X71964653Y-160436519D01*
X71964653Y-154784992D01*
X71976089Y-154777351D01*
X72077351Y-154676089D01*
X72156912Y-154557017D01*
X72211715Y-154424711D01*
X72239653Y-154284256D01*
X72239653Y-154141050D01*
X72211715Y-154000595D01*
X72156912Y-153868289D01*
X72077351Y-153749217D01*
X71976089Y-153647955D01*
X71857017Y-153568394D01*
X71724711Y-153513591D01*
X71584256Y-153485653D01*
X71441050Y-153485653D01*
X71300595Y-153513591D01*
X71168289Y-153568394D01*
X71049217Y-153647955D01*
X71012653Y-153684519D01*
X70963436Y-153635302D01*
X70844364Y-153555741D01*
X70712058Y-153500938D01*
X70571603Y-153473000D01*
X70428397Y-153473000D01*
X70287942Y-153500938D01*
X70155636Y-153555741D01*
X70036564Y-153635302D01*
X69935302Y-153736564D01*
X69855741Y-153855636D01*
X69800938Y-153987942D01*
X69773000Y-154128397D01*
X69773000Y-154271603D01*
X69800938Y-154412058D01*
X69855741Y-154544364D01*
X69935302Y-154663436D01*
X70036564Y-154764698D01*
X70048000Y-154772339D01*
X70048000Y-155019866D01*
X69963436Y-154935302D01*
X69844364Y-154855741D01*
X69712058Y-154800938D01*
X69571603Y-154773000D01*
X69428397Y-154773000D01*
X69287942Y-154800938D01*
X69155636Y-154855741D01*
X69036564Y-154935302D01*
X68935302Y-155036564D01*
X68927661Y-155048000D01*
X60687224Y-155048000D01*
X56953361Y-151314137D01*
X85505469Y-151314137D01*
X85572206Y-151554025D01*
X85820892Y-151670924D01*
X86087606Y-151737061D01*
X86362097Y-151749895D01*
X86633817Y-151708931D01*
X86892326Y-151615744D01*
X87007794Y-151554025D01*
X87074531Y-151314137D01*
X86290000Y-150529605D01*
X85505469Y-151314137D01*
X56953361Y-151314137D01*
X55835323Y-150196100D01*
X55821159Y-150178841D01*
X55752333Y-150122357D01*
X55673810Y-150080386D01*
X55588607Y-150054540D01*
X55522205Y-150048000D01*
X55500000Y-150045813D01*
X55477795Y-150048000D01*
X52572339Y-150048000D01*
X52564698Y-150036564D01*
X52463436Y-149935302D01*
X52344364Y-149855741D01*
X52212058Y-149800938D01*
X52071603Y-149773000D01*
X51928397Y-149773000D01*
X51787942Y-149800938D01*
X51655636Y-149855741D01*
X51536564Y-149935302D01*
X51435302Y-150036564D01*
X51355741Y-150155636D01*
X51300938Y-150287942D01*
X51273000Y-150428397D01*
X44868857Y-150428397D01*
X44869001Y-150426945D01*
X44869001Y-150426933D01*
X44875420Y-150361762D01*
X44869001Y-150296590D01*
X44869001Y-149523551D01*
X63868154Y-149523551D01*
X63868154Y-149666757D01*
X63896092Y-149807212D01*
X63950895Y-149939518D01*
X64030456Y-150058590D01*
X64131718Y-150159852D01*
X64250790Y-150239413D01*
X64383096Y-150294216D01*
X64523551Y-150322154D01*
X64666757Y-150322154D01*
X64807212Y-150294216D01*
X64939518Y-150239413D01*
X65058590Y-150159852D01*
X65159852Y-150058590D01*
X65239413Y-149939518D01*
X65294216Y-149807212D01*
X65322154Y-149666757D01*
X65322154Y-149523551D01*
X65319471Y-149510061D01*
X65901135Y-148928397D01*
X67273000Y-148928397D01*
X67273000Y-149071603D01*
X67300938Y-149212058D01*
X67355741Y-149344364D01*
X67435302Y-149463436D01*
X67471866Y-149500000D01*
X67435302Y-149536564D01*
X67355741Y-149655636D01*
X67300938Y-149787942D01*
X67273000Y-149928397D01*
X67273000Y-150071603D01*
X67300938Y-150212058D01*
X67355741Y-150344364D01*
X67435302Y-150463436D01*
X67536564Y-150564698D01*
X67655636Y-150644259D01*
X67787942Y-150699062D01*
X67928397Y-150727000D01*
X68071603Y-150727000D01*
X68212058Y-150699062D01*
X68344364Y-150644259D01*
X68463436Y-150564698D01*
X68564698Y-150463436D01*
X68572339Y-150452000D01*
X80927661Y-150452000D01*
X80935302Y-150463436D01*
X81036564Y-150564698D01*
X81155636Y-150644259D01*
X81287942Y-150699062D01*
X81428397Y-150727000D01*
X81571603Y-150727000D01*
X81712058Y-150699062D01*
X81844364Y-150644259D01*
X81963436Y-150564698D01*
X82064698Y-150463436D01*
X82144259Y-150344364D01*
X82199062Y-150212058D01*
X82227000Y-150071603D01*
X82227000Y-150052026D01*
X82893880Y-150718906D01*
X82908040Y-150736160D01*
X82976866Y-150792644D01*
X83038628Y-150825656D01*
X83055389Y-150834615D01*
X83140591Y-150860461D01*
X83229199Y-150869188D01*
X83251404Y-150867001D01*
X84248596Y-150867001D01*
X84270801Y-150869188D01*
X84293006Y-150867001D01*
X84359408Y-150860461D01*
X84444611Y-150834615D01*
X84523134Y-150792644D01*
X84591960Y-150736160D01*
X84606124Y-150718901D01*
X84891785Y-150433240D01*
X84931069Y-150693817D01*
X85024256Y-150952326D01*
X85085975Y-151067794D01*
X85325863Y-151134531D01*
X86110395Y-150350000D01*
X86469605Y-150350000D01*
X87254137Y-151134531D01*
X87494025Y-151067794D01*
X87610924Y-150819108D01*
X87677061Y-150552394D01*
X87689895Y-150277903D01*
X87648931Y-150006183D01*
X87555744Y-149747674D01*
X87494025Y-149632206D01*
X87254137Y-149565469D01*
X86469605Y-150350000D01*
X86110395Y-150350000D01*
X86096252Y-150335858D01*
X86275858Y-150156252D01*
X86290000Y-150170395D01*
X87074531Y-149385863D01*
X87007794Y-149145975D01*
X86996557Y-149140693D01*
X87134328Y-149002922D01*
X87253287Y-148824888D01*
X87335228Y-148627066D01*
X87377000Y-148417060D01*
X87377000Y-148202940D01*
X87335228Y-147992934D01*
X87308016Y-147927240D01*
X89613001Y-150232225D01*
X89613001Y-152734207D01*
X89531533Y-152652739D01*
X89289622Y-152491099D01*
X89020825Y-152379760D01*
X88735472Y-152323000D01*
X88444528Y-152323000D01*
X88159175Y-152379760D01*
X87890378Y-152491099D01*
X87648467Y-152652739D01*
X87442739Y-152858467D01*
X87281099Y-153100378D01*
X87169760Y-153369175D01*
X87113000Y-153654528D01*
X87113000Y-153945472D01*
X87169760Y-154230825D01*
X87281099Y-154499622D01*
X87442739Y-154741533D01*
X87648467Y-154947261D01*
X87890378Y-155108901D01*
X88159175Y-155220240D01*
X88444528Y-155277000D01*
X88735472Y-155277000D01*
X89020825Y-155220240D01*
X89289622Y-155108901D01*
X89531533Y-154947261D01*
X89613001Y-154865793D01*
X89613002Y-157984208D01*
X89531533Y-157902739D01*
X89289622Y-157741099D01*
X89020825Y-157629760D01*
X88735472Y-157573000D01*
X88444528Y-157573000D01*
X88159175Y-157629760D01*
X87890378Y-157741099D01*
X87648467Y-157902739D01*
X87442739Y-158108467D01*
X87281099Y-158350378D01*
X87169760Y-158619175D01*
X87113000Y-158904528D01*
X87113000Y-159195472D01*
X87169760Y-159480825D01*
X87281099Y-159749622D01*
X87442739Y-159991533D01*
X87648467Y-160197261D01*
X87890378Y-160358901D01*
X88159175Y-160470240D01*
X88444528Y-160527000D01*
X88643776Y-160527000D01*
X86669955Y-162500822D01*
X86607066Y-162474772D01*
X86397060Y-162433000D01*
X86182940Y-162433000D01*
X85972934Y-162474772D01*
X85775112Y-162556713D01*
X85597078Y-162675672D01*
X85445672Y-162827078D01*
X85326713Y-163005112D01*
X85244772Y-163202934D01*
X85203000Y-163412940D01*
X85203000Y-163627060D01*
X85244772Y-163837066D01*
X85326713Y-164034888D01*
X85445672Y-164212922D01*
X85597078Y-164364328D01*
X85775112Y-164483287D01*
X85912029Y-164540000D01*
X85775112Y-164596713D01*
X85597078Y-164715672D01*
X85445672Y-164867078D01*
X85326713Y-165045112D01*
X85244772Y-165242934D01*
X85203000Y-165452940D01*
X85203000Y-165667060D01*
X85244772Y-165877066D01*
X85326713Y-166074888D01*
X85445672Y-166252922D01*
X85582971Y-166390221D01*
X85572206Y-166395975D01*
X85505469Y-166635863D01*
X86290000Y-167420395D01*
X87074531Y-166635863D01*
X87007794Y-166395975D01*
X86996557Y-166390693D01*
X87134328Y-166252922D01*
X87253287Y-166074888D01*
X87335228Y-165877066D01*
X87377000Y-165667060D01*
X87377000Y-165452940D01*
X87335228Y-165242934D01*
X87253287Y-165045112D01*
X87134328Y-164867078D01*
X86982922Y-164715672D01*
X86804888Y-164596713D01*
X86667971Y-164540000D01*
X86804888Y-164483287D01*
X86982922Y-164364328D01*
X87134328Y-164212922D01*
X87253287Y-164034888D01*
X87335228Y-163837066D01*
X87377000Y-163627060D01*
X87377000Y-163412940D01*
X87335228Y-163202934D01*
X87309178Y-163140045D01*
X90368906Y-160080318D01*
X90386160Y-160066158D01*
X90442644Y-159997332D01*
X90484615Y-159918809D01*
X90510461Y-159833606D01*
X90510862Y-159829540D01*
X90519188Y-159744999D01*
X90517001Y-159722794D01*
X90517001Y-150067206D01*
X90519188Y-150045001D01*
X90510461Y-149956393D01*
X90484615Y-149871191D01*
X90470556Y-149844888D01*
X90442644Y-149792668D01*
X90386160Y-149723842D01*
X90368907Y-149709683D01*
X87309178Y-146649955D01*
X87335228Y-146587066D01*
X87377000Y-146377060D01*
X87377000Y-146162940D01*
X87335228Y-145952934D01*
X87253287Y-145755112D01*
X87134328Y-145577078D01*
X86982922Y-145425672D01*
X86804888Y-145306713D01*
X86607066Y-145224772D01*
X86397060Y-145183000D01*
X86182940Y-145183000D01*
X85972934Y-145224772D01*
X85775112Y-145306713D01*
X85597078Y-145425672D01*
X85445672Y-145577078D01*
X85326713Y-145755112D01*
X85244772Y-145952934D01*
X85203000Y-146162940D01*
X85203000Y-146377060D01*
X85244772Y-146587066D01*
X85326713Y-146784888D01*
X85445672Y-146962922D01*
X85597078Y-147114328D01*
X85775112Y-147233287D01*
X85912029Y-147290000D01*
X85775112Y-147346713D01*
X85597078Y-147465672D01*
X85445672Y-147617078D01*
X85326713Y-147795112D01*
X85244772Y-147992934D01*
X85203000Y-148202940D01*
X85203000Y-148417060D01*
X85244772Y-148627066D01*
X85295952Y-148750626D01*
X84834783Y-149211795D01*
X84795228Y-149012934D01*
X84713287Y-148815112D01*
X84594328Y-148637078D01*
X84457029Y-148499779D01*
X84467794Y-148494025D01*
X84534531Y-148254137D01*
X83750000Y-147469605D01*
X82965469Y-148254137D01*
X83032206Y-148494025D01*
X83043443Y-148499307D01*
X82905672Y-148637078D01*
X82786713Y-148815112D01*
X82704772Y-149012934D01*
X82665217Y-149211795D01*
X82149521Y-148696100D01*
X82135357Y-148678841D01*
X82066531Y-148622357D01*
X81988008Y-148580386D01*
X81902805Y-148554540D01*
X81836403Y-148548000D01*
X81814198Y-148545813D01*
X81791993Y-148548000D01*
X68572339Y-148548000D01*
X68564698Y-148536564D01*
X68463436Y-148435302D01*
X68344364Y-148355741D01*
X68212058Y-148300938D01*
X68071603Y-148273000D01*
X67928397Y-148273000D01*
X67787942Y-148300938D01*
X67655636Y-148355741D01*
X67536564Y-148435302D01*
X67435302Y-148536564D01*
X67355741Y-148655636D01*
X67300938Y-148787942D01*
X67273000Y-148928397D01*
X65901135Y-148928397D01*
X67467435Y-147362097D01*
X82350105Y-147362097D01*
X82391069Y-147633817D01*
X82484256Y-147892326D01*
X82545975Y-148007794D01*
X82785863Y-148074531D01*
X83570395Y-147290000D01*
X83929605Y-147290000D01*
X84714137Y-148074531D01*
X84954025Y-148007794D01*
X85070924Y-147759108D01*
X85137061Y-147492394D01*
X85149895Y-147217903D01*
X85108931Y-146946183D01*
X85015744Y-146687674D01*
X84954025Y-146572206D01*
X84714137Y-146505469D01*
X83929605Y-147290000D01*
X83570395Y-147290000D01*
X82785863Y-146505469D01*
X82545975Y-146572206D01*
X82429076Y-146820892D01*
X82362939Y-147087606D01*
X82350105Y-147362097D01*
X67467435Y-147362097D01*
X68110213Y-146719320D01*
X68212058Y-146699062D01*
X68344364Y-146644259D01*
X68463436Y-146564698D01*
X68564698Y-146463436D01*
X68644259Y-146344364D01*
X68699062Y-146212058D01*
X68727000Y-146071603D01*
X68727000Y-145928397D01*
X68699062Y-145787942D01*
X68644259Y-145655636D01*
X68564698Y-145536564D01*
X68463436Y-145435302D01*
X68344364Y-145355741D01*
X68212058Y-145300938D01*
X68071603Y-145273000D01*
X67928397Y-145273000D01*
X67787942Y-145300938D01*
X67655636Y-145355741D01*
X67536564Y-145435302D01*
X67435302Y-145536564D01*
X67355741Y-145655636D01*
X67300938Y-145787942D01*
X67273000Y-145928397D01*
X67273000Y-146071603D01*
X67300938Y-146212058D01*
X67312093Y-146238990D01*
X64680247Y-148870837D01*
X64666757Y-148868154D01*
X64523551Y-148868154D01*
X64383096Y-148896092D01*
X64250790Y-148950895D01*
X64131718Y-149030456D01*
X64030456Y-149131718D01*
X63950895Y-149250790D01*
X63896092Y-149383096D01*
X63868154Y-149523551D01*
X44869001Y-149523551D01*
X44869001Y-144490000D01*
X82661418Y-144490000D01*
X82661418Y-146010000D01*
X82667732Y-146074103D01*
X82686430Y-146135743D01*
X82716794Y-146192550D01*
X82757657Y-146242343D01*
X82807450Y-146283206D01*
X82864257Y-146313570D01*
X82925897Y-146332268D01*
X82976897Y-146337291D01*
X83750000Y-147110395D01*
X84523103Y-146337291D01*
X84574103Y-146332268D01*
X84635743Y-146313570D01*
X84692550Y-146283206D01*
X84742343Y-146242343D01*
X84783206Y-146192550D01*
X84813570Y-146135743D01*
X84832268Y-146074103D01*
X84838582Y-146010000D01*
X84838582Y-144490000D01*
X84832268Y-144425897D01*
X84813570Y-144364257D01*
X84783206Y-144307450D01*
X84742343Y-144257657D01*
X84692550Y-144216794D01*
X84635743Y-144186430D01*
X84574103Y-144167732D01*
X84510000Y-144161418D01*
X82990000Y-144161418D01*
X82925897Y-144167732D01*
X82864257Y-144186430D01*
X82807450Y-144216794D01*
X82757657Y-144257657D01*
X82716794Y-144307450D01*
X82686430Y-144364257D01*
X82667732Y-144425897D01*
X82661418Y-144490000D01*
X44869001Y-144490000D01*
X44869001Y-136243413D01*
X44875420Y-136178239D01*
X44869001Y-136113065D01*
X44869001Y-136113055D01*
X44849800Y-135918102D01*
X44773920Y-135667961D01*
X44715721Y-135559078D01*
X44650699Y-135437430D01*
X44526423Y-135286000D01*
X44526422Y-135285999D01*
X44484871Y-135235369D01*
X44434242Y-135193819D01*
X43390423Y-134150000D01*
X61821418Y-134150000D01*
X61821418Y-135850000D01*
X61827732Y-135914103D01*
X61846430Y-135975743D01*
X61876794Y-136032550D01*
X61917657Y-136082343D01*
X61967450Y-136123206D01*
X62024257Y-136153570D01*
X62085897Y-136172268D01*
X62150000Y-136178582D01*
X63850000Y-136178582D01*
X63914103Y-136172268D01*
X63975743Y-136153570D01*
X64032550Y-136123206D01*
X64082343Y-136082343D01*
X64123206Y-136032550D01*
X64153570Y-135975743D01*
X64172268Y-135914103D01*
X64178582Y-135850000D01*
X64178582Y-134884076D01*
X64363000Y-134884076D01*
X64363000Y-135115924D01*
X64408231Y-135343318D01*
X64496956Y-135557519D01*
X64625764Y-135750294D01*
X64789706Y-135914236D01*
X64982481Y-136043044D01*
X65196682Y-136131769D01*
X65424076Y-136177000D01*
X65655924Y-136177000D01*
X65883318Y-136131769D01*
X66097519Y-136043044D01*
X66290294Y-135914236D01*
X66454236Y-135750294D01*
X66583044Y-135557519D01*
X66671769Y-135343318D01*
X66717000Y-135115924D01*
X66717000Y-134884076D01*
X66671769Y-134656682D01*
X66583044Y-134442481D01*
X66454236Y-134249706D01*
X66290294Y-134085764D01*
X66097519Y-133956956D01*
X65883318Y-133868231D01*
X65655924Y-133823000D01*
X65424076Y-133823000D01*
X65196682Y-133868231D01*
X64982481Y-133956956D01*
X64789706Y-134085764D01*
X64625764Y-134249706D01*
X64496956Y-134442481D01*
X64408231Y-134656682D01*
X64363000Y-134884076D01*
X64178582Y-134884076D01*
X64178582Y-134150000D01*
X64172268Y-134085897D01*
X64153570Y-134024257D01*
X64123206Y-133967450D01*
X64082343Y-133917657D01*
X64032550Y-133876794D01*
X63975743Y-133846430D01*
X63914103Y-133827732D01*
X63850000Y-133821418D01*
X62150000Y-133821418D01*
X62085897Y-133827732D01*
X62024257Y-133846430D01*
X61967450Y-133876794D01*
X61917657Y-133917657D01*
X61876794Y-133967450D01*
X61846430Y-134024257D01*
X61827732Y-134085897D01*
X61821418Y-134150000D01*
X43390423Y-134150000D01*
X43306186Y-134065764D01*
X43264631Y-134015129D01*
X43062569Y-133849301D01*
X42832039Y-133726080D01*
X42581898Y-133650200D01*
X42489730Y-133641122D01*
X42488698Y-133639192D01*
X42322870Y-133437130D01*
X42120807Y-133271302D01*
X41890277Y-133148081D01*
X41640136Y-133072201D01*
X41380000Y-133046580D01*
X41119863Y-133072201D01*
X40869722Y-133148081D01*
X40639192Y-133271302D01*
X40437130Y-133437130D01*
X40271302Y-133639193D01*
X40148081Y-133869723D01*
X40072201Y-134119864D01*
X40053000Y-134314817D01*
X40053000Y-134814826D01*
X40046581Y-134880000D01*
X40053000Y-134945174D01*
X40053000Y-134945184D01*
X40072201Y-135140137D01*
X40148081Y-135390278D01*
X40190159Y-135469000D01*
X40271302Y-135620808D01*
X40335315Y-135698807D01*
X40437131Y-135822870D01*
X40479969Y-135858026D01*
X40515129Y-135900869D01*
X40622149Y-135988698D01*
X40656469Y-136016864D01*
X41380000Y-136740395D01*
X41394143Y-136726253D01*
X41573748Y-136905858D01*
X41559605Y-136920000D01*
X41573748Y-136934143D01*
X41394143Y-137113748D01*
X41380000Y-137099605D01*
X40594040Y-137885565D01*
X40661020Y-138125656D01*
X40910048Y-138242756D01*
X41177135Y-138309023D01*
X41452017Y-138321910D01*
X41724133Y-138280922D01*
X41983023Y-138187636D01*
X42098980Y-138125656D01*
X42165959Y-137885567D01*
X42215001Y-137934609D01*
X42215001Y-138754923D01*
X42074197Y-138614119D01*
X41895835Y-138494941D01*
X41697650Y-138412850D01*
X41487257Y-138371000D01*
X41272743Y-138371000D01*
X41062350Y-138412850D01*
X40864165Y-138494941D01*
X40685803Y-138614119D01*
X40534119Y-138765803D01*
X40414941Y-138944165D01*
X40332850Y-139142350D01*
X40291000Y-139352743D01*
X40291000Y-139567257D01*
X40332850Y-139777650D01*
X40414941Y-139975835D01*
X40534119Y-140154197D01*
X40685803Y-140305881D01*
X40864165Y-140425059D01*
X41062350Y-140507150D01*
X41272743Y-140549000D01*
X41487257Y-140549000D01*
X41697650Y-140507150D01*
X41895835Y-140425059D01*
X42074197Y-140305881D01*
X42215001Y-140165077D01*
X42215001Y-141294923D01*
X42074197Y-141154119D01*
X41895835Y-141034941D01*
X41697650Y-140952850D01*
X41487257Y-140911000D01*
X41272743Y-140911000D01*
X41062350Y-140952850D01*
X40864165Y-141034941D01*
X40685803Y-141154119D01*
X40534119Y-141305803D01*
X40414941Y-141484165D01*
X40332850Y-141682350D01*
X40291000Y-141892743D01*
X40291000Y-142107257D01*
X40332850Y-142317650D01*
X40414941Y-142515835D01*
X40534119Y-142694197D01*
X40685803Y-142845881D01*
X40864165Y-142965059D01*
X41062350Y-143047150D01*
X41272743Y-143089000D01*
X41487257Y-143089000D01*
X41697650Y-143047150D01*
X41895835Y-142965059D01*
X42074197Y-142845881D01*
X42215001Y-142705077D01*
X42215002Y-143552080D01*
X42201690Y-143538768D01*
X41990570Y-143397703D01*
X41755987Y-143300535D01*
X41506955Y-143251000D01*
X41253045Y-143251000D01*
X41004013Y-143300535D01*
X40769430Y-143397703D01*
X40558310Y-143538768D01*
X40378768Y-143718310D01*
X40237703Y-143929430D01*
X40140535Y-144164013D01*
X40091000Y-144413045D01*
X40091000Y-144666955D01*
X40140535Y-144915987D01*
X40237703Y-145150570D01*
X40378768Y-145361690D01*
X40558310Y-145541232D01*
X40769430Y-145682297D01*
X41004013Y-145779465D01*
X41253045Y-145829000D01*
X41506955Y-145829000D01*
X41755987Y-145779465D01*
X41990570Y-145682297D01*
X42201690Y-145541232D01*
X42215002Y-145527920D01*
X42215002Y-148605390D01*
X42165959Y-148654433D01*
X42098980Y-148414344D01*
X41849952Y-148297244D01*
X41582865Y-148230977D01*
X41307983Y-148218090D01*
X41035867Y-148259078D01*
X40776977Y-148352364D01*
X40661020Y-148414344D01*
X40594040Y-148654435D01*
X41380000Y-149440395D01*
X41394143Y-149426253D01*
X41573748Y-149605858D01*
X41559605Y-149620000D01*
X41573748Y-149634143D01*
X41394143Y-149813748D01*
X41380000Y-149799605D01*
X40594040Y-150585565D01*
X40661020Y-150825656D01*
X40910048Y-150942756D01*
X41049696Y-150977404D01*
X38354102Y-153673000D01*
X32262532Y-153673000D01*
X32223306Y-153646790D01*
X31945410Y-153531681D01*
X31650396Y-153473000D01*
X31349604Y-153473000D01*
X31054590Y-153531681D01*
X30776694Y-153646790D01*
X30526594Y-153813901D01*
X30313901Y-154026594D01*
X30146790Y-154276694D01*
X30031681Y-154554590D01*
X29973000Y-154849604D01*
X20252000Y-154849604D01*
X20252000Y-152700000D01*
X29661928Y-152700000D01*
X29674188Y-152824482D01*
X29710498Y-152944180D01*
X29769463Y-153054494D01*
X29848815Y-153151185D01*
X29945506Y-153230537D01*
X30055820Y-153289502D01*
X30175518Y-153325812D01*
X30300000Y-153338072D01*
X31214250Y-153335000D01*
X31373000Y-153176250D01*
X31373000Y-151627000D01*
X31627000Y-151627000D01*
X31627000Y-153176250D01*
X31785750Y-153335000D01*
X32700000Y-153338072D01*
X32824482Y-153325812D01*
X32944180Y-153289502D01*
X33054494Y-153230537D01*
X33151185Y-153151185D01*
X33230537Y-153054494D01*
X33289502Y-152944180D01*
X33325812Y-152824482D01*
X33338072Y-152700000D01*
X33335000Y-151785750D01*
X33176250Y-151627000D01*
X31627000Y-151627000D01*
X31373000Y-151627000D01*
X29823750Y-151627000D01*
X29665000Y-151785750D01*
X29661928Y-152700000D01*
X20252000Y-152700000D01*
X20252000Y-150300000D01*
X29661928Y-150300000D01*
X29665000Y-151214250D01*
X29823750Y-151373000D01*
X31373000Y-151373000D01*
X31373000Y-149823750D01*
X31627000Y-149823750D01*
X31627000Y-151373000D01*
X33176250Y-151373000D01*
X33335000Y-151214250D01*
X33338072Y-150300000D01*
X33325812Y-150175518D01*
X33289502Y-150055820D01*
X33230537Y-149945506D01*
X33151185Y-149848815D01*
X33054494Y-149769463D01*
X32944180Y-149710498D01*
X32883257Y-149692017D01*
X39978090Y-149692017D01*
X40019078Y-149964133D01*
X40112364Y-150223023D01*
X40174344Y-150338980D01*
X40414435Y-150405960D01*
X41200395Y-149620000D01*
X40414435Y-148834040D01*
X40174344Y-148901020D01*
X40057244Y-149150048D01*
X39990977Y-149417135D01*
X39978090Y-149692017D01*
X32883257Y-149692017D01*
X32824482Y-149674188D01*
X32700000Y-149661928D01*
X31785750Y-149665000D01*
X31627000Y-149823750D01*
X31373000Y-149823750D01*
X31214250Y-149665000D01*
X30300000Y-149661928D01*
X30175518Y-149674188D01*
X30055820Y-149710498D01*
X29945506Y-149769463D01*
X29848815Y-149848815D01*
X29769463Y-149945506D01*
X29710498Y-150055820D01*
X29674188Y-150175518D01*
X29661928Y-150300000D01*
X20252000Y-150300000D01*
X20252000Y-142700000D01*
X29661928Y-142700000D01*
X29674188Y-142824482D01*
X29710498Y-142944180D01*
X29769463Y-143054494D01*
X29848815Y-143151185D01*
X29945506Y-143230537D01*
X30055820Y-143289502D01*
X30175518Y-143325812D01*
X30300000Y-143338072D01*
X31014844Y-143335670D01*
X30996253Y-143339368D01*
X30681959Y-143469553D01*
X30399102Y-143658552D01*
X30158552Y-143899102D01*
X29969553Y-144181959D01*
X29839368Y-144496253D01*
X29773000Y-144829905D01*
X29773000Y-145170095D01*
X29839368Y-145503747D01*
X29969553Y-145818041D01*
X30158552Y-146100898D01*
X30399102Y-146341448D01*
X30681959Y-146530447D01*
X30996253Y-146660632D01*
X31329905Y-146727000D01*
X31670095Y-146727000D01*
X32003747Y-146660632D01*
X32318041Y-146530447D01*
X32600898Y-146341448D01*
X32841448Y-146100898D01*
X33030447Y-145818041D01*
X33160632Y-145503747D01*
X33227000Y-145170095D01*
X33227000Y-144829905D01*
X33160632Y-144496253D01*
X33030447Y-144181959D01*
X32841448Y-143899102D01*
X32600898Y-143658552D01*
X32318041Y-143469553D01*
X32003747Y-143339368D01*
X31985156Y-143335670D01*
X32700000Y-143338072D01*
X32824482Y-143325812D01*
X32944180Y-143289502D01*
X33054494Y-143230537D01*
X33151185Y-143151185D01*
X33230537Y-143054494D01*
X33289502Y-142944180D01*
X33325812Y-142824482D01*
X33338072Y-142700000D01*
X33335000Y-141785750D01*
X33176250Y-141627000D01*
X31627000Y-141627000D01*
X31627000Y-141647000D01*
X31373000Y-141647000D01*
X31373000Y-141627000D01*
X29823750Y-141627000D01*
X29665000Y-141785750D01*
X29661928Y-142700000D01*
X20252000Y-142700000D01*
X20252000Y-140300000D01*
X29661928Y-140300000D01*
X29665000Y-141214250D01*
X29823750Y-141373000D01*
X31373000Y-141373000D01*
X31373000Y-139823750D01*
X31627000Y-139823750D01*
X31627000Y-141373000D01*
X33176250Y-141373000D01*
X33335000Y-141214250D01*
X33338072Y-140300000D01*
X33325812Y-140175518D01*
X33289502Y-140055820D01*
X33230537Y-139945506D01*
X33151185Y-139848815D01*
X33054494Y-139769463D01*
X32944180Y-139710498D01*
X32824482Y-139674188D01*
X32700000Y-139661928D01*
X31785750Y-139665000D01*
X31627000Y-139823750D01*
X31373000Y-139823750D01*
X31214250Y-139665000D01*
X30300000Y-139661928D01*
X30175518Y-139674188D01*
X30055820Y-139710498D01*
X29945506Y-139769463D01*
X29848815Y-139848815D01*
X29769463Y-139945506D01*
X29710498Y-140055820D01*
X29674188Y-140175518D01*
X29661928Y-140300000D01*
X20252000Y-140300000D01*
X20252000Y-136992017D01*
X39978090Y-136992017D01*
X40019078Y-137264133D01*
X40112364Y-137523023D01*
X40174344Y-137638980D01*
X40414435Y-137705960D01*
X41200395Y-136920000D01*
X40414435Y-136134040D01*
X40174344Y-136201020D01*
X40057244Y-136450048D01*
X39990977Y-136717135D01*
X39978090Y-136992017D01*
X20252000Y-136992017D01*
X20252000Y-134810207D01*
X22573000Y-134810207D01*
X22573000Y-135189793D01*
X22647053Y-135562085D01*
X22792315Y-135912777D01*
X23003201Y-136228391D01*
X23271609Y-136496799D01*
X23587223Y-136707685D01*
X23937915Y-136852947D01*
X24310207Y-136927000D01*
X24689793Y-136927000D01*
X25062085Y-136852947D01*
X25412777Y-136707685D01*
X25728391Y-136496799D01*
X25996799Y-136228391D01*
X26207685Y-135912777D01*
X26352947Y-135562085D01*
X26427000Y-135189793D01*
X26427000Y-134810207D01*
X26352947Y-134437915D01*
X26207685Y-134087223D01*
X25996799Y-133771609D01*
X25728391Y-133503201D01*
X25412777Y-133292315D01*
X25062085Y-133147053D01*
X24689793Y-133073000D01*
X24310207Y-133073000D01*
X23937915Y-133147053D01*
X23587223Y-133292315D01*
X23271609Y-133503201D01*
X23003201Y-133771609D01*
X22792315Y-134087223D01*
X22647053Y-134437915D01*
X22573000Y-134810207D01*
X20252000Y-134810207D01*
X20252000Y-132512322D01*
X20268496Y-132344076D01*
X61823000Y-132344076D01*
X61823000Y-132575924D01*
X61868231Y-132803318D01*
X61956956Y-133017519D01*
X62085764Y-133210294D01*
X62249706Y-133374236D01*
X62442481Y-133503044D01*
X62656682Y-133591769D01*
X62884076Y-133637000D01*
X63115924Y-133637000D01*
X63343318Y-133591769D01*
X63557519Y-133503044D01*
X63750294Y-133374236D01*
X63914236Y-133210294D01*
X64043044Y-133017519D01*
X64131769Y-132803318D01*
X64177000Y-132575924D01*
X64177000Y-132344076D01*
X64363000Y-132344076D01*
X64363000Y-132575924D01*
X64408231Y-132803318D01*
X64496956Y-133017519D01*
X64625764Y-133210294D01*
X64789706Y-133374236D01*
X64982481Y-133503044D01*
X65196682Y-133591769D01*
X65424076Y-133637000D01*
X65655924Y-133637000D01*
X65883318Y-133591769D01*
X66097519Y-133503044D01*
X66290294Y-133374236D01*
X66454236Y-133210294D01*
X66583044Y-133017519D01*
X66651264Y-132852821D01*
X66735843Y-133091252D01*
X66884822Y-133341355D01*
X67079731Y-133557588D01*
X67313080Y-133731641D01*
X67575901Y-133856825D01*
X67684612Y-133889799D01*
X67522481Y-133956956D01*
X67329706Y-134085764D01*
X67165764Y-134249706D01*
X67036956Y-134442481D01*
X66948231Y-134656682D01*
X66903000Y-134884076D01*
X66903000Y-135115924D01*
X66948231Y-135343318D01*
X67036956Y-135557519D01*
X67165764Y-135750294D01*
X67329706Y-135914236D01*
X67522481Y-136043044D01*
X67628000Y-136086751D01*
X67628001Y-142874206D01*
X67536564Y-142935302D01*
X67435302Y-143036564D01*
X67355741Y-143155636D01*
X67300938Y-143287942D01*
X67273000Y-143428397D01*
X67273000Y-143571603D01*
X67300938Y-143712058D01*
X67355741Y-143844364D01*
X67435302Y-143963436D01*
X67536564Y-144064698D01*
X67655636Y-144144259D01*
X67787942Y-144199062D01*
X67928397Y-144227000D01*
X68071603Y-144227000D01*
X68212058Y-144199062D01*
X68344364Y-144144259D01*
X68463436Y-144064698D01*
X68564698Y-143963436D01*
X68644259Y-143844364D01*
X68699062Y-143712058D01*
X68727000Y-143571603D01*
X68727000Y-143428397D01*
X68699062Y-143287942D01*
X68644259Y-143155636D01*
X68564698Y-143036564D01*
X68532000Y-143003866D01*
X68532000Y-142428397D01*
X70023000Y-142428397D01*
X70023000Y-142571603D01*
X70050938Y-142712058D01*
X70105741Y-142844364D01*
X70185302Y-142963436D01*
X70286564Y-143064698D01*
X70405636Y-143144259D01*
X70537942Y-143199062D01*
X70678397Y-143227000D01*
X70821603Y-143227000D01*
X70962058Y-143199062D01*
X71094364Y-143144259D01*
X71213436Y-143064698D01*
X71314698Y-142963436D01*
X71322339Y-142952000D01*
X83177661Y-142952000D01*
X83185302Y-142963436D01*
X83286564Y-143064698D01*
X83405636Y-143144259D01*
X83537942Y-143199062D01*
X83678397Y-143227000D01*
X83821603Y-143227000D01*
X83962058Y-143199062D01*
X84094364Y-143144259D01*
X84213436Y-143064698D01*
X84314698Y-142963436D01*
X84394259Y-142844364D01*
X84449062Y-142712058D01*
X84477000Y-142571603D01*
X84477000Y-142428397D01*
X84449062Y-142287942D01*
X84394259Y-142155636D01*
X84314698Y-142036564D01*
X84213436Y-141935302D01*
X84094364Y-141855741D01*
X83962058Y-141800938D01*
X83821603Y-141773000D01*
X83678397Y-141773000D01*
X83537942Y-141800938D01*
X83405636Y-141855741D01*
X83286564Y-141935302D01*
X83185302Y-142036564D01*
X83177661Y-142048000D01*
X71322339Y-142048000D01*
X71314698Y-142036564D01*
X71213436Y-141935302D01*
X71094364Y-141855741D01*
X70962058Y-141800938D01*
X70821603Y-141773000D01*
X70678397Y-141773000D01*
X70537942Y-141800938D01*
X70405636Y-141855741D01*
X70286564Y-141935302D01*
X70185302Y-142036564D01*
X70105741Y-142155636D01*
X70050938Y-142287942D01*
X70023000Y-142428397D01*
X68532000Y-142428397D01*
X68532000Y-141654528D01*
X87113000Y-141654528D01*
X87113000Y-141945472D01*
X87169760Y-142230825D01*
X87281099Y-142499622D01*
X87442739Y-142741533D01*
X87648467Y-142947261D01*
X87890378Y-143108901D01*
X88159175Y-143220240D01*
X88444528Y-143277000D01*
X88735472Y-143277000D01*
X89020825Y-143220240D01*
X89289622Y-143108901D01*
X89531533Y-142947261D01*
X89737261Y-142741533D01*
X89898901Y-142499622D01*
X90010240Y-142230825D01*
X90067000Y-141945472D01*
X90067000Y-141654528D01*
X90010240Y-141369175D01*
X89898901Y-141100378D01*
X89737261Y-140858467D01*
X89531533Y-140652739D01*
X89289622Y-140491099D01*
X89020825Y-140379760D01*
X88735472Y-140323000D01*
X88444528Y-140323000D01*
X88159175Y-140379760D01*
X87890378Y-140491099D01*
X87648467Y-140652739D01*
X87442739Y-140858467D01*
X87281099Y-141100378D01*
X87169760Y-141369175D01*
X87113000Y-141654528D01*
X68532000Y-141654528D01*
X68532000Y-137428397D01*
X69523000Y-137428397D01*
X69523000Y-137571603D01*
X69550938Y-137712058D01*
X69605741Y-137844364D01*
X69685302Y-137963436D01*
X69786564Y-138064698D01*
X69905636Y-138144259D01*
X70037942Y-138199062D01*
X70178397Y-138227000D01*
X70321603Y-138227000D01*
X70462058Y-138199062D01*
X70594364Y-138144259D01*
X70713436Y-138064698D01*
X70814698Y-137963436D01*
X70822339Y-137952000D01*
X72927661Y-137952000D01*
X72935302Y-137963436D01*
X73036564Y-138064698D01*
X73155636Y-138144259D01*
X73287942Y-138199062D01*
X73428397Y-138227000D01*
X73571603Y-138227000D01*
X73712058Y-138199062D01*
X73844364Y-138144259D01*
X73963436Y-138064698D01*
X74064698Y-137963436D01*
X74144259Y-137844364D01*
X74199062Y-137712058D01*
X74227000Y-137571603D01*
X74227000Y-137428397D01*
X74199062Y-137287942D01*
X74144259Y-137155636D01*
X74064698Y-137036564D01*
X73963436Y-136935302D01*
X73844364Y-136855741D01*
X73712058Y-136800938D01*
X73571603Y-136773000D01*
X73428397Y-136773000D01*
X73287942Y-136800938D01*
X73155636Y-136855741D01*
X73036564Y-136935302D01*
X72935302Y-137036564D01*
X72927661Y-137048000D01*
X70822339Y-137048000D01*
X70814698Y-137036564D01*
X70713436Y-136935302D01*
X70594364Y-136855741D01*
X70462058Y-136800938D01*
X70321603Y-136773000D01*
X70178397Y-136773000D01*
X70037942Y-136800938D01*
X69905636Y-136855741D01*
X69786564Y-136935302D01*
X69685302Y-137036564D01*
X69605741Y-137155636D01*
X69550938Y-137287942D01*
X69523000Y-137428397D01*
X68532000Y-137428397D01*
X68532000Y-136086751D01*
X68637519Y-136043044D01*
X68830294Y-135914236D01*
X68994236Y-135750294D01*
X69123044Y-135557519D01*
X69211769Y-135343318D01*
X69257000Y-135115924D01*
X69257000Y-134884076D01*
X69242307Y-134810207D01*
X88573000Y-134810207D01*
X88573000Y-135189793D01*
X88647053Y-135562085D01*
X88792315Y-135912777D01*
X89003201Y-136228391D01*
X89271609Y-136496799D01*
X89587223Y-136707685D01*
X89937915Y-136852947D01*
X90310207Y-136927000D01*
X90689793Y-136927000D01*
X91062085Y-136852947D01*
X91412777Y-136707685D01*
X91728391Y-136496799D01*
X91996799Y-136228391D01*
X92207685Y-135912777D01*
X92352947Y-135562085D01*
X92427000Y-135189793D01*
X92427000Y-134810207D01*
X92352947Y-134437915D01*
X92207685Y-134087223D01*
X91996799Y-133771609D01*
X91728391Y-133503201D01*
X91412777Y-133292315D01*
X91062085Y-133147053D01*
X90689793Y-133073000D01*
X90310207Y-133073000D01*
X89937915Y-133147053D01*
X89587223Y-133292315D01*
X89271609Y-133503201D01*
X89003201Y-133771609D01*
X88792315Y-134087223D01*
X88647053Y-134437915D01*
X88573000Y-134810207D01*
X69242307Y-134810207D01*
X69211769Y-134656682D01*
X69123044Y-134442481D01*
X68994236Y-134249706D01*
X68830294Y-134085764D01*
X68637519Y-133956956D01*
X68475388Y-133889799D01*
X68584099Y-133856825D01*
X68846920Y-133731641D01*
X69080269Y-133557588D01*
X69275178Y-133341355D01*
X69424157Y-133091252D01*
X69521481Y-132816891D01*
X69400814Y-132587000D01*
X68207000Y-132587000D01*
X68207000Y-132607000D01*
X67953000Y-132607000D01*
X67953000Y-132587000D01*
X67933000Y-132587000D01*
X67933000Y-132333000D01*
X67953000Y-132333000D01*
X67953000Y-131139845D01*
X68207000Y-131139845D01*
X68207000Y-132333000D01*
X69400814Y-132333000D01*
X69521481Y-132103109D01*
X69424157Y-131828748D01*
X69333766Y-131677000D01*
X73515000Y-131677000D01*
X73515000Y-132102000D01*
X73562066Y-132325865D01*
X73651901Y-132536246D01*
X73781053Y-132725059D01*
X73944559Y-132885047D01*
X74136136Y-133010063D01*
X74369190Y-133093964D01*
X74548000Y-132968163D01*
X74548000Y-131677000D01*
X74802000Y-131677000D01*
X74802000Y-132968163D01*
X74980810Y-133093964D01*
X75213864Y-133010063D01*
X75405441Y-132885047D01*
X75568947Y-132725059D01*
X75698099Y-132536246D01*
X75787934Y-132325865D01*
X75835000Y-132102000D01*
X75835000Y-131677000D01*
X80665000Y-131677000D01*
X80665000Y-132102000D01*
X80712066Y-132325865D01*
X80801901Y-132536246D01*
X80931053Y-132725059D01*
X81094559Y-132885047D01*
X81286136Y-133010063D01*
X81519190Y-133093964D01*
X81698000Y-132968163D01*
X81698000Y-131677000D01*
X81952000Y-131677000D01*
X81952000Y-132968163D01*
X82130810Y-133093964D01*
X82363864Y-133010063D01*
X82555441Y-132885047D01*
X82718947Y-132725059D01*
X82848099Y-132536246D01*
X82937934Y-132325865D01*
X82985000Y-132102000D01*
X82985000Y-131677000D01*
X81952000Y-131677000D01*
X81698000Y-131677000D01*
X80665000Y-131677000D01*
X75835000Y-131677000D01*
X74802000Y-131677000D01*
X74548000Y-131677000D01*
X73515000Y-131677000D01*
X69333766Y-131677000D01*
X69275178Y-131578645D01*
X69080269Y-131362412D01*
X68846920Y-131188359D01*
X68584099Y-131063175D01*
X68436890Y-131018524D01*
X68207000Y-131139845D01*
X67953000Y-131139845D01*
X67723110Y-131018524D01*
X67575901Y-131063175D01*
X67313080Y-131188359D01*
X67079731Y-131362412D01*
X66884822Y-131578645D01*
X66735843Y-131828748D01*
X66651264Y-132067179D01*
X66583044Y-131902481D01*
X66454236Y-131709706D01*
X66290294Y-131545764D01*
X66097519Y-131416956D01*
X65883318Y-131328231D01*
X65655924Y-131283000D01*
X65424076Y-131283000D01*
X65196682Y-131328231D01*
X64982481Y-131416956D01*
X64789706Y-131545764D01*
X64625764Y-131709706D01*
X64496956Y-131902481D01*
X64408231Y-132116682D01*
X64363000Y-132344076D01*
X64177000Y-132344076D01*
X64131769Y-132116682D01*
X64043044Y-131902481D01*
X63914236Y-131709706D01*
X63750294Y-131545764D01*
X63557519Y-131416956D01*
X63343318Y-131328231D01*
X63115924Y-131283000D01*
X62884076Y-131283000D01*
X62656682Y-131328231D01*
X62442481Y-131416956D01*
X62249706Y-131545764D01*
X62085764Y-131709706D01*
X61956956Y-131902481D01*
X61868231Y-132116682D01*
X61823000Y-132344076D01*
X20268496Y-132344076D01*
X20295998Y-132063595D01*
X20422737Y-131643816D01*
X20628600Y-131256644D01*
X20905739Y-130916836D01*
X21243612Y-130637324D01*
X21629336Y-130428764D01*
X22048216Y-130299100D01*
X22496202Y-130252014D01*
X22500343Y-130252000D01*
X73870540Y-130287379D01*
G37*
%TD.AperFunction*%
%TD*%
M02*
