%TF.GenerationSoftware,KiCad,Pcbnew,(5.1.8)-1*%
%TF.CreationDate,2021-08-18T00:45:11+02:00*%
%TF.ProjectId,Haubenblitzer_Treiber,48617562-656e-4626-9c69-747a65725f54,rev?*%
%TF.SameCoordinates,Original*%
%TF.FileFunction,Legend,Top*%
%TF.FilePolarity,Positive*%
%FSLAX46Y46*%
G04 Gerber Fmt 4.6, Leading zero omitted, Abs format (unit mm)*
G04 Created by KiCad (PCBNEW (5.1.8)-1) date 2021-08-18 00:45:11*
%MOMM*%
%LPD*%
G01*
G04 APERTURE LIST*
%ADD10C,0.100000*%
%ADD11C,0.150000*%
%ADD12C,0.120000*%
%ADD13C,0.300000*%
G04 APERTURE END LIST*
D10*
X28465000Y-184014285D02*
X28465000Y-184621428D01*
X28429285Y-184692857D01*
X28393571Y-184728571D01*
X28322142Y-184764285D01*
X28215000Y-184764285D01*
X28143571Y-184728571D01*
X28465000Y-184478571D02*
X28393571Y-184514285D01*
X28250714Y-184514285D01*
X28179285Y-184478571D01*
X28143571Y-184442857D01*
X28107857Y-184371428D01*
X28107857Y-184157142D01*
X28143571Y-184085714D01*
X28179285Y-184050000D01*
X28250714Y-184014285D01*
X28393571Y-184014285D01*
X28465000Y-184050000D01*
X28822142Y-184514285D02*
X28822142Y-184014285D01*
X28822142Y-183764285D02*
X28786428Y-183800000D01*
X28822142Y-183835714D01*
X28857857Y-183800000D01*
X28822142Y-183764285D01*
X28822142Y-183835714D01*
X29072142Y-184014285D02*
X29357857Y-184014285D01*
X29179285Y-183764285D02*
X29179285Y-184407142D01*
X29215000Y-184478571D01*
X29286428Y-184514285D01*
X29357857Y-184514285D01*
X29607857Y-184514285D02*
X29607857Y-183764285D01*
X29929285Y-184514285D02*
X29929285Y-184121428D01*
X29893571Y-184050000D01*
X29822142Y-184014285D01*
X29715000Y-184014285D01*
X29643571Y-184050000D01*
X29607857Y-184085714D01*
X30607857Y-184014285D02*
X30607857Y-184514285D01*
X30286428Y-184014285D02*
X30286428Y-184407142D01*
X30322142Y-184478571D01*
X30393571Y-184514285D01*
X30500714Y-184514285D01*
X30572142Y-184478571D01*
X30607857Y-184442857D01*
X30965000Y-184514285D02*
X30965000Y-183764285D01*
X30965000Y-184050000D02*
X31036428Y-184014285D01*
X31179285Y-184014285D01*
X31250714Y-184050000D01*
X31286428Y-184085714D01*
X31322142Y-184157142D01*
X31322142Y-184371428D01*
X31286428Y-184442857D01*
X31250714Y-184478571D01*
X31179285Y-184514285D01*
X31036428Y-184514285D01*
X30965000Y-184478571D01*
X31643571Y-184442857D02*
X31679285Y-184478571D01*
X31643571Y-184514285D01*
X31607857Y-184478571D01*
X31643571Y-184442857D01*
X31643571Y-184514285D01*
X32322142Y-184478571D02*
X32250714Y-184514285D01*
X32107857Y-184514285D01*
X32036428Y-184478571D01*
X32000714Y-184442857D01*
X31965000Y-184371428D01*
X31965000Y-184157142D01*
X32000714Y-184085714D01*
X32036428Y-184050000D01*
X32107857Y-184014285D01*
X32250714Y-184014285D01*
X32322142Y-184050000D01*
X32750714Y-184514285D02*
X32679285Y-184478571D01*
X32643571Y-184442857D01*
X32607857Y-184371428D01*
X32607857Y-184157142D01*
X32643571Y-184085714D01*
X32679285Y-184050000D01*
X32750714Y-184014285D01*
X32857857Y-184014285D01*
X32929285Y-184050000D01*
X32965000Y-184085714D01*
X33000714Y-184157142D01*
X33000714Y-184371428D01*
X32965000Y-184442857D01*
X32929285Y-184478571D01*
X32857857Y-184514285D01*
X32750714Y-184514285D01*
X33322142Y-184514285D02*
X33322142Y-184014285D01*
X33322142Y-184085714D02*
X33357857Y-184050000D01*
X33429285Y-184014285D01*
X33536428Y-184014285D01*
X33607857Y-184050000D01*
X33643571Y-184121428D01*
X33643571Y-184514285D01*
X33643571Y-184121428D02*
X33679285Y-184050000D01*
X33750714Y-184014285D01*
X33857857Y-184014285D01*
X33929285Y-184050000D01*
X33965000Y-184121428D01*
X33965000Y-184514285D01*
X34857857Y-183728571D02*
X34215000Y-184692857D01*
X28357857Y-184989285D02*
X28357857Y-185525000D01*
X28322142Y-185632142D01*
X28250714Y-185703571D01*
X28143571Y-185739285D01*
X28072142Y-185739285D01*
X29000714Y-185703571D02*
X28929285Y-185739285D01*
X28786428Y-185739285D01*
X28715000Y-185703571D01*
X28679285Y-185632142D01*
X28679285Y-185346428D01*
X28715000Y-185275000D01*
X28786428Y-185239285D01*
X28929285Y-185239285D01*
X29000714Y-185275000D01*
X29036428Y-185346428D01*
X29036428Y-185417857D01*
X28679285Y-185489285D01*
X29357857Y-185239285D02*
X29357857Y-185739285D01*
X29357857Y-185310714D02*
X29393571Y-185275000D01*
X29465000Y-185239285D01*
X29572142Y-185239285D01*
X29643571Y-185275000D01*
X29679285Y-185346428D01*
X29679285Y-185739285D01*
X30000714Y-185703571D02*
X30072142Y-185739285D01*
X30215000Y-185739285D01*
X30286428Y-185703571D01*
X30322142Y-185632142D01*
X30322142Y-185596428D01*
X30286428Y-185525000D01*
X30215000Y-185489285D01*
X30107857Y-185489285D01*
X30036428Y-185453571D01*
X30000714Y-185382142D01*
X30000714Y-185346428D01*
X30036428Y-185275000D01*
X30107857Y-185239285D01*
X30215000Y-185239285D01*
X30286428Y-185275000D01*
X30643571Y-185739285D02*
X30643571Y-184989285D01*
X31072142Y-185739285D02*
X30750714Y-185310714D01*
X31072142Y-184989285D02*
X30643571Y-185417857D01*
X31715000Y-185739285D02*
X31715000Y-185346428D01*
X31679285Y-185275000D01*
X31607857Y-185239285D01*
X31465000Y-185239285D01*
X31393571Y-185275000D01*
X31715000Y-185703571D02*
X31643571Y-185739285D01*
X31465000Y-185739285D01*
X31393571Y-185703571D01*
X31357857Y-185632142D01*
X31357857Y-185560714D01*
X31393571Y-185489285D01*
X31465000Y-185453571D01*
X31643571Y-185453571D01*
X31715000Y-185417857D01*
X32072142Y-185739285D02*
X32072142Y-185239285D01*
X32072142Y-184989285D02*
X32036428Y-185025000D01*
X32072142Y-185060714D01*
X32107857Y-185025000D01*
X32072142Y-184989285D01*
X32072142Y-185060714D01*
X32393571Y-185703571D02*
X32465000Y-185739285D01*
X32607857Y-185739285D01*
X32679285Y-185703571D01*
X32715000Y-185632142D01*
X32715000Y-185596428D01*
X32679285Y-185525000D01*
X32607857Y-185489285D01*
X32500714Y-185489285D01*
X32429285Y-185453571D01*
X32393571Y-185382142D01*
X32393571Y-185346428D01*
X32429285Y-185275000D01*
X32500714Y-185239285D01*
X32607857Y-185239285D01*
X32679285Y-185275000D01*
X33322142Y-185703571D02*
X33250714Y-185739285D01*
X33107857Y-185739285D01*
X33036428Y-185703571D01*
X33000714Y-185632142D01*
X33000714Y-185346428D01*
X33036428Y-185275000D01*
X33107857Y-185239285D01*
X33250714Y-185239285D01*
X33322142Y-185275000D01*
X33357857Y-185346428D01*
X33357857Y-185417857D01*
X33000714Y-185489285D01*
X33679285Y-185739285D02*
X33679285Y-185239285D01*
X33679285Y-185382142D02*
X33715000Y-185310714D01*
X33750714Y-185275000D01*
X33822142Y-185239285D01*
X33893571Y-185239285D01*
X34179285Y-185739285D02*
X34322142Y-185739285D01*
X34393571Y-185703571D01*
X34429285Y-185667857D01*
X34500714Y-185560714D01*
X34536428Y-185417857D01*
X34536428Y-185132142D01*
X34500714Y-185060714D01*
X34465000Y-185025000D01*
X34393571Y-184989285D01*
X34250714Y-184989285D01*
X34179285Y-185025000D01*
X34143571Y-185060714D01*
X34107857Y-185132142D01*
X34107857Y-185310714D01*
X34143571Y-185382142D01*
X34179285Y-185417857D01*
X34250714Y-185453571D01*
X34393571Y-185453571D01*
X34465000Y-185417857D01*
X34500714Y-185382142D01*
X34536428Y-185310714D01*
X35179285Y-184989285D02*
X35036428Y-184989285D01*
X34965000Y-185025000D01*
X34929285Y-185060714D01*
X34857857Y-185167857D01*
X34822142Y-185310714D01*
X34822142Y-185596428D01*
X34857857Y-185667857D01*
X34893571Y-185703571D01*
X34965000Y-185739285D01*
X35107857Y-185739285D01*
X35179285Y-185703571D01*
X35215000Y-185667857D01*
X35250714Y-185596428D01*
X35250714Y-185417857D01*
X35215000Y-185346428D01*
X35179285Y-185310714D01*
X35107857Y-185275000D01*
X34965000Y-185275000D01*
X34893571Y-185310714D01*
X34857857Y-185346428D01*
X34822142Y-185417857D01*
X36107857Y-184953571D02*
X35465000Y-185917857D01*
X28143571Y-186964285D02*
X28143571Y-186214285D01*
X28215000Y-186678571D02*
X28429285Y-186964285D01*
X28429285Y-186464285D02*
X28143571Y-186750000D01*
X28857857Y-186964285D02*
X28786428Y-186928571D01*
X28750714Y-186892857D01*
X28715000Y-186821428D01*
X28715000Y-186607142D01*
X28750714Y-186535714D01*
X28786428Y-186500000D01*
X28857857Y-186464285D01*
X28965000Y-186464285D01*
X29036428Y-186500000D01*
X29072142Y-186535714D01*
X29107857Y-186607142D01*
X29107857Y-186821428D01*
X29072142Y-186892857D01*
X29036428Y-186928571D01*
X28965000Y-186964285D01*
X28857857Y-186964285D01*
X29536428Y-186964285D02*
X29465000Y-186928571D01*
X29429285Y-186857142D01*
X29429285Y-186214285D01*
X29929285Y-186964285D02*
X29857857Y-186928571D01*
X29822142Y-186857142D01*
X29822142Y-186214285D01*
X30215000Y-186964285D02*
X30215000Y-186464285D01*
X30215000Y-186214285D02*
X30179285Y-186250000D01*
X30215000Y-186285714D01*
X30250714Y-186250000D01*
X30215000Y-186214285D01*
X30215000Y-186285714D01*
X30536428Y-186928571D02*
X30607857Y-186964285D01*
X30750714Y-186964285D01*
X30822142Y-186928571D01*
X30857857Y-186857142D01*
X30857857Y-186821428D01*
X30822142Y-186750000D01*
X30750714Y-186714285D01*
X30643571Y-186714285D01*
X30572142Y-186678571D01*
X30536428Y-186607142D01*
X30536428Y-186571428D01*
X30572142Y-186500000D01*
X30643571Y-186464285D01*
X30750714Y-186464285D01*
X30822142Y-186500000D01*
X31179285Y-186964285D02*
X31179285Y-186464285D01*
X31179285Y-186214285D02*
X31143571Y-186250000D01*
X31179285Y-186285714D01*
X31215000Y-186250000D01*
X31179285Y-186214285D01*
X31179285Y-186285714D01*
X31643571Y-186964285D02*
X31572142Y-186928571D01*
X31536428Y-186892857D01*
X31500714Y-186821428D01*
X31500714Y-186607142D01*
X31536428Y-186535714D01*
X31572142Y-186500000D01*
X31643571Y-186464285D01*
X31750714Y-186464285D01*
X31822142Y-186500000D01*
X31857857Y-186535714D01*
X31893571Y-186607142D01*
X31893571Y-186821428D01*
X31857857Y-186892857D01*
X31822142Y-186928571D01*
X31750714Y-186964285D01*
X31643571Y-186964285D01*
X32215000Y-186464285D02*
X32215000Y-186964285D01*
X32215000Y-186535714D02*
X32250714Y-186500000D01*
X32322142Y-186464285D01*
X32429285Y-186464285D01*
X32500714Y-186500000D01*
X32536428Y-186571428D01*
X32536428Y-186964285D01*
X32857857Y-186928571D02*
X32929285Y-186964285D01*
X33072142Y-186964285D01*
X33143571Y-186928571D01*
X33179285Y-186857142D01*
X33179285Y-186821428D01*
X33143571Y-186750000D01*
X33072142Y-186714285D01*
X32965000Y-186714285D01*
X32893571Y-186678571D01*
X32857857Y-186607142D01*
X32857857Y-186571428D01*
X32893571Y-186500000D01*
X32965000Y-186464285D01*
X33072142Y-186464285D01*
X33143571Y-186500000D01*
X33429285Y-186464285D02*
X33572142Y-186964285D01*
X33715000Y-186607142D01*
X33857857Y-186964285D01*
X34000714Y-186464285D01*
X34607857Y-186964285D02*
X34607857Y-186571428D01*
X34572142Y-186500000D01*
X34500714Y-186464285D01*
X34357857Y-186464285D01*
X34286428Y-186500000D01*
X34607857Y-186928571D02*
X34536428Y-186964285D01*
X34357857Y-186964285D01*
X34286428Y-186928571D01*
X34250714Y-186857142D01*
X34250714Y-186785714D01*
X34286428Y-186714285D01*
X34357857Y-186678571D01*
X34536428Y-186678571D01*
X34607857Y-186642857D01*
X34965000Y-186964285D02*
X34965000Y-186464285D01*
X34965000Y-186607142D02*
X35000714Y-186535714D01*
X35036428Y-186500000D01*
X35107857Y-186464285D01*
X35179285Y-186464285D01*
X35429285Y-186464285D02*
X35429285Y-186964285D01*
X35429285Y-186535714D02*
X35465000Y-186500000D01*
X35536428Y-186464285D01*
X35643571Y-186464285D01*
X35715000Y-186500000D01*
X35750714Y-186571428D01*
X35750714Y-186964285D01*
X36215000Y-186964285D02*
X36143571Y-186928571D01*
X36107857Y-186857142D01*
X36107857Y-186214285D01*
X36500714Y-186964285D02*
X36500714Y-186464285D01*
X36500714Y-186214285D02*
X36465000Y-186250000D01*
X36500714Y-186285714D01*
X36536428Y-186250000D01*
X36500714Y-186214285D01*
X36500714Y-186285714D01*
X37179285Y-186928571D02*
X37107857Y-186964285D01*
X36965000Y-186964285D01*
X36893571Y-186928571D01*
X36857857Y-186892857D01*
X36822142Y-186821428D01*
X36822142Y-186607142D01*
X36857857Y-186535714D01*
X36893571Y-186500000D01*
X36965000Y-186464285D01*
X37107857Y-186464285D01*
X37179285Y-186500000D01*
X37500714Y-186964285D02*
X37500714Y-186214285D01*
X37822142Y-186964285D02*
X37822142Y-186571428D01*
X37786428Y-186500000D01*
X37715000Y-186464285D01*
X37607857Y-186464285D01*
X37536428Y-186500000D01*
X37500714Y-186535714D01*
X38072142Y-186464285D02*
X38357857Y-186464285D01*
X38179285Y-186214285D02*
X38179285Y-186857142D01*
X38215000Y-186928571D01*
X38286428Y-186964285D01*
X38357857Y-186964285D01*
X21473809Y-141923809D02*
X21473809Y-141638095D01*
X21473809Y-141780952D02*
X21973809Y-141780952D01*
X21902380Y-141733333D01*
X21854761Y-141685714D01*
X21830952Y-141638095D01*
X21973809Y-142233333D02*
X21973809Y-142280952D01*
X21950000Y-142328571D01*
X21926190Y-142352380D01*
X21878571Y-142376190D01*
X21783333Y-142400000D01*
X21664285Y-142400000D01*
X21569047Y-142376190D01*
X21521428Y-142352380D01*
X21497619Y-142328571D01*
X21473809Y-142280952D01*
X21473809Y-142233333D01*
X21497619Y-142185714D01*
X21521428Y-142161904D01*
X21569047Y-142138095D01*
X21664285Y-142114285D01*
X21783333Y-142114285D01*
X21878571Y-142138095D01*
X21926190Y-142161904D01*
X21950000Y-142185714D01*
X21973809Y-142233333D01*
X21664285Y-142995238D02*
X21664285Y-143376190D01*
X21473809Y-144257142D02*
X21473809Y-143971428D01*
X21473809Y-144114285D02*
X21973809Y-144114285D01*
X21902380Y-144066666D01*
X21854761Y-144019047D01*
X21830952Y-143971428D01*
X21973809Y-144709523D02*
X21973809Y-144471428D01*
X21735714Y-144447619D01*
X21759523Y-144471428D01*
X21783333Y-144519047D01*
X21783333Y-144638095D01*
X21759523Y-144685714D01*
X21735714Y-144709523D01*
X21688095Y-144733333D01*
X21569047Y-144733333D01*
X21521428Y-144709523D01*
X21497619Y-144685714D01*
X21473809Y-144638095D01*
X21473809Y-144519047D01*
X21497619Y-144471428D01*
X21521428Y-144447619D01*
X21973809Y-144876190D02*
X21473809Y-145042857D01*
X21973809Y-145209523D01*
D11*
X60952380Y-134976190D02*
X59952380Y-134976190D01*
X60904761Y-134547619D02*
X60952380Y-134404761D01*
X60952380Y-134166666D01*
X60904761Y-134071428D01*
X60857142Y-134023809D01*
X60761904Y-133976190D01*
X60666666Y-133976190D01*
X60571428Y-134023809D01*
X60523809Y-134071428D01*
X60476190Y-134166666D01*
X60428571Y-134357142D01*
X60380952Y-134452380D01*
X60333333Y-134500000D01*
X60238095Y-134547619D01*
X60142857Y-134547619D01*
X60047619Y-134500000D01*
X60000000Y-134452380D01*
X59952380Y-134357142D01*
X59952380Y-134119047D01*
X60000000Y-133976190D01*
X60857142Y-132976190D02*
X60904761Y-133023809D01*
X60952380Y-133166666D01*
X60952380Y-133261904D01*
X60904761Y-133404761D01*
X60809523Y-133500000D01*
X60714285Y-133547619D01*
X60523809Y-133595238D01*
X60380952Y-133595238D01*
X60190476Y-133547619D01*
X60095238Y-133500000D01*
X60000000Y-133404761D01*
X59952380Y-133261904D01*
X59952380Y-133166666D01*
X60000000Y-133023809D01*
X60047619Y-132976190D01*
X60952380Y-132547619D02*
X59952380Y-132547619D01*
X59952380Y-132166666D01*
X60000000Y-132071428D01*
X60047619Y-132023809D01*
X60142857Y-131976190D01*
X60285714Y-131976190D01*
X60380952Y-132023809D01*
X60428571Y-132071428D01*
X60476190Y-132166666D01*
X60476190Y-132547619D01*
X28335595Y-132477380D02*
X28335595Y-131477380D01*
X28335595Y-131953571D02*
X28907023Y-131953571D01*
X28907023Y-132477380D02*
X28907023Y-131477380D01*
X29811785Y-132477380D02*
X29811785Y-131953571D01*
X29764166Y-131858333D01*
X29668928Y-131810714D01*
X29478452Y-131810714D01*
X29383214Y-131858333D01*
X29811785Y-132429761D02*
X29716547Y-132477380D01*
X29478452Y-132477380D01*
X29383214Y-132429761D01*
X29335595Y-132334523D01*
X29335595Y-132239285D01*
X29383214Y-132144047D01*
X29478452Y-132096428D01*
X29716547Y-132096428D01*
X29811785Y-132048809D01*
X30716547Y-131810714D02*
X30716547Y-132477380D01*
X30287976Y-131810714D02*
X30287976Y-132334523D01*
X30335595Y-132429761D01*
X30430833Y-132477380D01*
X30573690Y-132477380D01*
X30668928Y-132429761D01*
X30716547Y-132382142D01*
X31192738Y-132477380D02*
X31192738Y-131477380D01*
X31192738Y-131858333D02*
X31287976Y-131810714D01*
X31478452Y-131810714D01*
X31573690Y-131858333D01*
X31621309Y-131905952D01*
X31668928Y-132001190D01*
X31668928Y-132286904D01*
X31621309Y-132382142D01*
X31573690Y-132429761D01*
X31478452Y-132477380D01*
X31287976Y-132477380D01*
X31192738Y-132429761D01*
X32478452Y-132429761D02*
X32383214Y-132477380D01*
X32192738Y-132477380D01*
X32097500Y-132429761D01*
X32049880Y-132334523D01*
X32049880Y-131953571D01*
X32097500Y-131858333D01*
X32192738Y-131810714D01*
X32383214Y-131810714D01*
X32478452Y-131858333D01*
X32526071Y-131953571D01*
X32526071Y-132048809D01*
X32049880Y-132144047D01*
X32954642Y-131810714D02*
X32954642Y-132477380D01*
X32954642Y-131905952D02*
X33002261Y-131858333D01*
X33097500Y-131810714D01*
X33240357Y-131810714D01*
X33335595Y-131858333D01*
X33383214Y-131953571D01*
X33383214Y-132477380D01*
X33859404Y-132477380D02*
X33859404Y-131477380D01*
X33859404Y-131858333D02*
X33954642Y-131810714D01*
X34145119Y-131810714D01*
X34240357Y-131858333D01*
X34287976Y-131905952D01*
X34335595Y-132001190D01*
X34335595Y-132286904D01*
X34287976Y-132382142D01*
X34240357Y-132429761D01*
X34145119Y-132477380D01*
X33954642Y-132477380D01*
X33859404Y-132429761D01*
X34907023Y-132477380D02*
X34811785Y-132429761D01*
X34764166Y-132334523D01*
X34764166Y-131477380D01*
X35287976Y-132477380D02*
X35287976Y-131810714D01*
X35287976Y-131477380D02*
X35240357Y-131525000D01*
X35287976Y-131572619D01*
X35335595Y-131525000D01*
X35287976Y-131477380D01*
X35287976Y-131572619D01*
X35621309Y-131810714D02*
X36002261Y-131810714D01*
X35764166Y-131477380D02*
X35764166Y-132334523D01*
X35811785Y-132429761D01*
X35907023Y-132477380D01*
X36002261Y-132477380D01*
X36240357Y-131810714D02*
X36764166Y-131810714D01*
X36240357Y-132477380D01*
X36764166Y-132477380D01*
X37526071Y-132429761D02*
X37430833Y-132477380D01*
X37240357Y-132477380D01*
X37145119Y-132429761D01*
X37097500Y-132334523D01*
X37097500Y-131953571D01*
X37145119Y-131858333D01*
X37240357Y-131810714D01*
X37430833Y-131810714D01*
X37526071Y-131858333D01*
X37573690Y-131953571D01*
X37573690Y-132048809D01*
X37097500Y-132144047D01*
X38002261Y-132477380D02*
X38002261Y-131810714D01*
X38002261Y-132001190D02*
X38049880Y-131905952D01*
X38097500Y-131858333D01*
X38192738Y-131810714D01*
X38287976Y-131810714D01*
X28240357Y-133460714D02*
X28478452Y-134127380D01*
X28716547Y-133460714D01*
X29621309Y-134127380D02*
X29049880Y-134127380D01*
X29335595Y-134127380D02*
X29335595Y-133127380D01*
X29240357Y-133270238D01*
X29145119Y-133365476D01*
X29049880Y-133413095D01*
X30049880Y-134032142D02*
X30097500Y-134079761D01*
X30049880Y-134127380D01*
X30002261Y-134079761D01*
X30049880Y-134032142D01*
X30049880Y-134127380D01*
X30716547Y-133127380D02*
X30811785Y-133127380D01*
X30907023Y-133175000D01*
X30954642Y-133222619D01*
X31002261Y-133317857D01*
X31049880Y-133508333D01*
X31049880Y-133746428D01*
X31002261Y-133936904D01*
X30954642Y-134032142D01*
X30907023Y-134079761D01*
X30811785Y-134127380D01*
X30716547Y-134127380D01*
X30621309Y-134079761D01*
X30573690Y-134032142D01*
X30526071Y-133936904D01*
X30478452Y-133746428D01*
X30478452Y-133508333D01*
X30526071Y-133317857D01*
X30573690Y-133222619D01*
X30621309Y-133175000D01*
X30716547Y-133127380D01*
X31478452Y-134032142D02*
X31526071Y-134079761D01*
X31478452Y-134127380D01*
X31430833Y-134079761D01*
X31478452Y-134032142D01*
X31478452Y-134127380D01*
X32145119Y-133127380D02*
X32240357Y-133127380D01*
X32335595Y-133175000D01*
X32383214Y-133222619D01*
X32430833Y-133317857D01*
X32478452Y-133508333D01*
X32478452Y-133746428D01*
X32430833Y-133936904D01*
X32383214Y-134032142D01*
X32335595Y-134079761D01*
X32240357Y-134127380D01*
X32145119Y-134127380D01*
X32049880Y-134079761D01*
X32002261Y-134032142D01*
X31954642Y-133936904D01*
X31907023Y-133746428D01*
X31907023Y-133508333D01*
X31954642Y-133317857D01*
X32002261Y-133222619D01*
X32049880Y-133175000D01*
X32145119Y-133127380D01*
X28621309Y-134777380D02*
X28621309Y-135491666D01*
X28573690Y-135634523D01*
X28478452Y-135729761D01*
X28335595Y-135777380D01*
X28240357Y-135777380D01*
X29478452Y-135729761D02*
X29383214Y-135777380D01*
X29192738Y-135777380D01*
X29097500Y-135729761D01*
X29049880Y-135634523D01*
X29049880Y-135253571D01*
X29097500Y-135158333D01*
X29192738Y-135110714D01*
X29383214Y-135110714D01*
X29478452Y-135158333D01*
X29526071Y-135253571D01*
X29526071Y-135348809D01*
X29049880Y-135444047D01*
X29954642Y-135110714D02*
X29954642Y-135777380D01*
X29954642Y-135205952D02*
X30002261Y-135158333D01*
X30097500Y-135110714D01*
X30240357Y-135110714D01*
X30335595Y-135158333D01*
X30383214Y-135253571D01*
X30383214Y-135777380D01*
X30811785Y-135729761D02*
X30907023Y-135777380D01*
X31097500Y-135777380D01*
X31192738Y-135729761D01*
X31240357Y-135634523D01*
X31240357Y-135586904D01*
X31192738Y-135491666D01*
X31097500Y-135444047D01*
X30954642Y-135444047D01*
X30859404Y-135396428D01*
X30811785Y-135301190D01*
X30811785Y-135253571D01*
X30859404Y-135158333D01*
X30954642Y-135110714D01*
X31097500Y-135110714D01*
X31192738Y-135158333D01*
X32430833Y-135777380D02*
X32430833Y-134777380D01*
X33002261Y-135777380D02*
X32573690Y-135205952D01*
X33002261Y-134777380D02*
X32430833Y-135348809D01*
X33859404Y-135777380D02*
X33859404Y-135253571D01*
X33811785Y-135158333D01*
X33716547Y-135110714D01*
X33526071Y-135110714D01*
X33430833Y-135158333D01*
X33859404Y-135729761D02*
X33764166Y-135777380D01*
X33526071Y-135777380D01*
X33430833Y-135729761D01*
X33383214Y-135634523D01*
X33383214Y-135539285D01*
X33430833Y-135444047D01*
X33526071Y-135396428D01*
X33764166Y-135396428D01*
X33859404Y-135348809D01*
X34335595Y-135777380D02*
X34335595Y-135110714D01*
X34335595Y-134777380D02*
X34287976Y-134825000D01*
X34335595Y-134872619D01*
X34383214Y-134825000D01*
X34335595Y-134777380D01*
X34335595Y-134872619D01*
X34764166Y-135729761D02*
X34859404Y-135777380D01*
X35049880Y-135777380D01*
X35145119Y-135729761D01*
X35192738Y-135634523D01*
X35192738Y-135586904D01*
X35145119Y-135491666D01*
X35049880Y-135444047D01*
X34907023Y-135444047D01*
X34811785Y-135396428D01*
X34764166Y-135301190D01*
X34764166Y-135253571D01*
X34811785Y-135158333D01*
X34907023Y-135110714D01*
X35049880Y-135110714D01*
X35145119Y-135158333D01*
X36002261Y-135729761D02*
X35907023Y-135777380D01*
X35716547Y-135777380D01*
X35621309Y-135729761D01*
X35573690Y-135634523D01*
X35573690Y-135253571D01*
X35621309Y-135158333D01*
X35716547Y-135110714D01*
X35907023Y-135110714D01*
X36002261Y-135158333D01*
X36049880Y-135253571D01*
X36049880Y-135348809D01*
X35573690Y-135444047D01*
X36478452Y-135777380D02*
X36478452Y-135110714D01*
X36478452Y-135301190D02*
X36526071Y-135205952D01*
X36573690Y-135158333D01*
X36668928Y-135110714D01*
X36764166Y-135110714D01*
X28668928Y-136903571D02*
X28335595Y-136903571D01*
X28335595Y-137427380D02*
X28335595Y-136427380D01*
X28811785Y-136427380D01*
X29145119Y-137379761D02*
X29287976Y-137427380D01*
X29526071Y-137427380D01*
X29621309Y-137379761D01*
X29668928Y-137332142D01*
X29716547Y-137236904D01*
X29716547Y-137141666D01*
X29668928Y-137046428D01*
X29621309Y-136998809D01*
X29526071Y-136951190D01*
X29335595Y-136903571D01*
X29240357Y-136855952D01*
X29192738Y-136808333D01*
X29145119Y-136713095D01*
X29145119Y-136617857D01*
X29192738Y-136522619D01*
X29240357Y-136475000D01*
X29335595Y-136427380D01*
X29573690Y-136427380D01*
X29716547Y-136475000D01*
X30668928Y-136475000D02*
X30573690Y-136427380D01*
X30430833Y-136427380D01*
X30287976Y-136475000D01*
X30192738Y-136570238D01*
X30145119Y-136665476D01*
X30097500Y-136855952D01*
X30097500Y-136998809D01*
X30145119Y-137189285D01*
X30192738Y-137284523D01*
X30287976Y-137379761D01*
X30430833Y-137427380D01*
X30526071Y-137427380D01*
X30668928Y-137379761D01*
X30716547Y-137332142D01*
X30716547Y-136998809D01*
X30526071Y-136998809D01*
X31145119Y-137427380D02*
X31145119Y-136427380D01*
X31145119Y-136903571D02*
X31716547Y-136903571D01*
X31716547Y-137427380D02*
X31716547Y-136427380D01*
X32954642Y-137427380D02*
X32954642Y-136427380D01*
X32954642Y-136903571D02*
X33526071Y-136903571D01*
X33526071Y-137427380D02*
X33526071Y-136427380D01*
X34383214Y-137379761D02*
X34287976Y-137427380D01*
X34097500Y-137427380D01*
X34002261Y-137379761D01*
X33954642Y-137284523D01*
X33954642Y-136903571D01*
X34002261Y-136808333D01*
X34097500Y-136760714D01*
X34287976Y-136760714D01*
X34383214Y-136808333D01*
X34430833Y-136903571D01*
X34430833Y-136998809D01*
X33954642Y-137094047D01*
X34859404Y-137427380D02*
X34859404Y-136760714D01*
X34859404Y-136427380D02*
X34811785Y-136475000D01*
X34859404Y-136522619D01*
X34907023Y-136475000D01*
X34859404Y-136427380D01*
X34859404Y-136522619D01*
X35335595Y-136760714D02*
X35335595Y-137427380D01*
X35335595Y-136855952D02*
X35383214Y-136808333D01*
X35478452Y-136760714D01*
X35621309Y-136760714D01*
X35716547Y-136808333D01*
X35764166Y-136903571D01*
X35764166Y-137427380D01*
X36240357Y-137427380D02*
X36240357Y-136427380D01*
X36335595Y-137046428D02*
X36621309Y-137427380D01*
X36621309Y-136760714D02*
X36240357Y-137141666D01*
X37430833Y-137379761D02*
X37335595Y-137427380D01*
X37145119Y-137427380D01*
X37049880Y-137379761D01*
X37002261Y-137284523D01*
X37002261Y-136903571D01*
X37049880Y-136808333D01*
X37145119Y-136760714D01*
X37335595Y-136760714D01*
X37430833Y-136808333D01*
X37478452Y-136903571D01*
X37478452Y-136998809D01*
X37002261Y-137094047D01*
X38049880Y-137427380D02*
X37954642Y-137379761D01*
X37907023Y-137284523D01*
X37907023Y-136427380D01*
D12*
X35250000Y-181750000D02*
X20000000Y-181750000D01*
X35250000Y-138750000D02*
X20000000Y-138750000D01*
X35250000Y-148250000D02*
X20000000Y-148250000D01*
X35250000Y-161750000D02*
X20000000Y-161750000D01*
D11*
X26630952Y-144928571D02*
X25869047Y-144928571D01*
X26250000Y-144547619D02*
X26250000Y-145309523D01*
X26071428Y-141880952D02*
X26071428Y-141119047D01*
X26702380Y-158214285D02*
X26750000Y-158261904D01*
X26797619Y-158357142D01*
X26797619Y-158595238D01*
X26750000Y-158690476D01*
X26702380Y-158738095D01*
X26607142Y-158785714D01*
X26511904Y-158785714D01*
X26369047Y-158738095D01*
X25797619Y-158166666D01*
X25797619Y-158785714D01*
X25797619Y-155285714D02*
X25797619Y-154714285D01*
X25797619Y-155000000D02*
X26797619Y-155000000D01*
X26654761Y-154904761D01*
X26559523Y-154809523D01*
X26511904Y-154714285D01*
X26750000Y-150738095D02*
X26797619Y-150642857D01*
X26797619Y-150500000D01*
X26750000Y-150357142D01*
X26654761Y-150261904D01*
X26559523Y-150214285D01*
X26369047Y-150166666D01*
X26226190Y-150166666D01*
X26035714Y-150214285D01*
X25940476Y-150261904D01*
X25845238Y-150357142D01*
X25797619Y-150500000D01*
X25797619Y-150595238D01*
X25845238Y-150738095D01*
X25892857Y-150785714D01*
X26226190Y-150785714D01*
X26226190Y-150595238D01*
X25797619Y-151214285D02*
X26797619Y-151214285D01*
X25797619Y-151785714D01*
X26797619Y-151785714D01*
X25797619Y-152261904D02*
X26797619Y-152261904D01*
X26797619Y-152500000D01*
X26750000Y-152642857D01*
X26654761Y-152738095D01*
X26559523Y-152785714D01*
X26369047Y-152833333D01*
X26226190Y-152833333D01*
X26035714Y-152785714D01*
X25940476Y-152738095D01*
X25845238Y-152642857D01*
X25797619Y-152500000D01*
X25797619Y-152261904D01*
X26750000Y-164238095D02*
X26797619Y-164142857D01*
X26797619Y-164000000D01*
X26750000Y-163857142D01*
X26654761Y-163761904D01*
X26559523Y-163714285D01*
X26369047Y-163666666D01*
X26226190Y-163666666D01*
X26035714Y-163714285D01*
X25940476Y-163761904D01*
X25845238Y-163857142D01*
X25797619Y-164000000D01*
X25797619Y-164095238D01*
X25845238Y-164238095D01*
X25892857Y-164285714D01*
X26226190Y-164285714D01*
X26226190Y-164095238D01*
X25797619Y-164714285D02*
X26797619Y-164714285D01*
X25797619Y-165285714D01*
X26797619Y-165285714D01*
X25797619Y-165761904D02*
X26797619Y-165761904D01*
X26797619Y-166000000D01*
X26750000Y-166142857D01*
X26654761Y-166238095D01*
X26559523Y-166285714D01*
X26369047Y-166333333D01*
X26226190Y-166333333D01*
X26035714Y-166285714D01*
X25940476Y-166238095D01*
X25845238Y-166142857D01*
X25797619Y-166000000D01*
X25797619Y-165761904D01*
X26714285Y-179190476D02*
X26047619Y-179190476D01*
X27095238Y-178952380D02*
X26380952Y-178714285D01*
X26380952Y-179333333D01*
X26797619Y-175166666D02*
X26797619Y-175785714D01*
X26416666Y-175452380D01*
X26416666Y-175595238D01*
X26369047Y-175690476D01*
X26321428Y-175738095D01*
X26226190Y-175785714D01*
X25988095Y-175785714D01*
X25892857Y-175738095D01*
X25845238Y-175690476D01*
X25797619Y-175595238D01*
X25797619Y-175309523D01*
X25845238Y-175214285D01*
X25892857Y-175166666D01*
X26702380Y-171714285D02*
X26750000Y-171761904D01*
X26797619Y-171857142D01*
X26797619Y-172095238D01*
X26750000Y-172190476D01*
X26702380Y-172238095D01*
X26607142Y-172285714D01*
X26511904Y-172285714D01*
X26369047Y-172238095D01*
X25797619Y-171666666D01*
X25797619Y-172285714D01*
X25797619Y-168785714D02*
X25797619Y-168214285D01*
X25797619Y-168500000D02*
X26797619Y-168500000D01*
X26654761Y-168404761D01*
X26559523Y-168309523D01*
X26511904Y-168214285D01*
D13*
X22345238Y-169904761D02*
X24345238Y-169904761D01*
X24440476Y-172285714D02*
X21869047Y-170571428D01*
X24345238Y-173333333D02*
X24345238Y-173714285D01*
X24250000Y-173904761D01*
X24059523Y-174095238D01*
X23678571Y-174190476D01*
X23011904Y-174190476D01*
X22630952Y-174095238D01*
X22440476Y-173904761D01*
X22345238Y-173714285D01*
X22345238Y-173333333D01*
X22440476Y-173142857D01*
X22630952Y-172952380D01*
X23011904Y-172857142D01*
X23678571Y-172857142D01*
X24059523Y-172952380D01*
X24250000Y-173142857D01*
X24345238Y-173333333D01*
X22345238Y-152904761D02*
X22345238Y-151952380D01*
X24345238Y-151952380D01*
X23392857Y-153571428D02*
X23392857Y-154238095D01*
X22345238Y-154523809D02*
X22345238Y-153571428D01*
X24345238Y-153571428D01*
X24345238Y-154523809D01*
X22345238Y-155380952D02*
X24345238Y-155380952D01*
X24345238Y-155857142D01*
X24250000Y-156142857D01*
X24059523Y-156333333D01*
X23869047Y-156428571D01*
X23488095Y-156523809D01*
X23202380Y-156523809D01*
X22821428Y-156428571D01*
X22630952Y-156333333D01*
X22440476Y-156142857D01*
X22345238Y-155857142D01*
X22345238Y-155380952D01*
X22440476Y-157285714D02*
X22345238Y-157476190D01*
X22345238Y-157857142D01*
X22440476Y-158047619D01*
X22630952Y-158142857D01*
X22726190Y-158142857D01*
X22916666Y-158047619D01*
X23011904Y-157857142D01*
X23011904Y-157571428D01*
X23107142Y-157380952D01*
X23297619Y-157285714D01*
X23392857Y-157285714D01*
X23583333Y-157380952D01*
X23678571Y-157571428D01*
X23678571Y-157857142D01*
X23583333Y-158047619D01*
X24345238Y-141202380D02*
X22345238Y-141869047D01*
X24345238Y-142535714D01*
X22345238Y-143202380D02*
X23678571Y-143202380D01*
X24345238Y-143202380D02*
X24250000Y-143107142D01*
X24154761Y-143202380D01*
X24250000Y-143297619D01*
X24345238Y-143202380D01*
X24154761Y-143202380D01*
X23678571Y-144154761D02*
X22345238Y-144154761D01*
X23488095Y-144154761D02*
X23583333Y-144250000D01*
X23678571Y-144440476D01*
X23678571Y-144726190D01*
X23583333Y-144916666D01*
X23392857Y-145011904D01*
X22345238Y-145011904D01*
D12*
%TO.C,U5*%
X76640000Y-136600000D02*
X76640000Y-139050000D01*
X79860000Y-138400000D02*
X79860000Y-136600000D01*
%TO.C,U2*%
X61190000Y-183000000D02*
X61190000Y-184950000D01*
X61190000Y-183000000D02*
X61190000Y-181050000D01*
X66310000Y-183000000D02*
X66310000Y-184950000D01*
X66310000Y-183000000D02*
X66310000Y-179550000D01*
%TO.C,R9*%
X89265000Y-175227064D02*
X89265000Y-174772936D01*
X90735000Y-175227064D02*
X90735000Y-174772936D01*
%TO.C,R8*%
X89265000Y-179727064D02*
X89265000Y-179272936D01*
X90735000Y-179727064D02*
X90735000Y-179272936D01*
%TO.C,R7*%
X74727064Y-163235000D02*
X74272936Y-163235000D01*
X74727064Y-161765000D02*
X74272936Y-161765000D01*
%TO.C,R6*%
X74272936Y-164265000D02*
X74727064Y-164265000D01*
X74272936Y-165735000D02*
X74727064Y-165735000D01*
%TO.C,R5*%
X66227064Y-163235000D02*
X65772936Y-163235000D01*
X66227064Y-161765000D02*
X65772936Y-161765000D01*
%TO.C,R4*%
X65772936Y-164265000D02*
X66227064Y-164265000D01*
X65772936Y-165735000D02*
X66227064Y-165735000D01*
%TO.C,D2*%
X92540000Y-174000000D02*
X92540000Y-176685000D01*
X92540000Y-176685000D02*
X94460000Y-176685000D01*
X94460000Y-176685000D02*
X94460000Y-174000000D01*
%TO.C,D1*%
X92540000Y-178500000D02*
X92540000Y-181185000D01*
X92540000Y-181185000D02*
X94460000Y-181185000D01*
X94460000Y-181185000D02*
X94460000Y-178500000D01*
%TO.C,C2*%
X37740000Y-165260000D02*
X41490000Y-165260000D01*
X48260000Y-165260000D02*
X44510000Y-165260000D01*
X48260000Y-155804437D02*
X48260000Y-165260000D01*
X37740000Y-155804437D02*
X37740000Y-165260000D01*
X38804437Y-154740000D02*
X41490000Y-154740000D01*
X47195563Y-154740000D02*
X44510000Y-154740000D01*
X47195563Y-154740000D02*
X48260000Y-155804437D01*
X38804437Y-154740000D02*
X37740000Y-155804437D01*
X45760000Y-153250000D02*
X45760000Y-154500000D01*
X46385000Y-153875000D02*
X45135000Y-153875000D01*
%TO.C,C1*%
X49740000Y-165260000D02*
X53490000Y-165260000D01*
X60260000Y-165260000D02*
X56510000Y-165260000D01*
X60260000Y-155804437D02*
X60260000Y-165260000D01*
X49740000Y-155804437D02*
X49740000Y-165260000D01*
X50804437Y-154740000D02*
X53490000Y-154740000D01*
X59195563Y-154740000D02*
X56510000Y-154740000D01*
X59195563Y-154740000D02*
X60260000Y-155804437D01*
X50804437Y-154740000D02*
X49740000Y-155804437D01*
X57760000Y-153250000D02*
X57760000Y-154500000D01*
X58385000Y-153875000D02*
X57135000Y-153875000D01*
%TO.C,R1*%
X79501000Y-187445000D02*
X82041000Y-187445000D01*
X79501000Y-178555000D02*
X82041000Y-178555000D01*
X67309000Y-187445000D02*
X69849000Y-187445000D01*
X82041000Y-187445000D02*
X82041000Y-178555000D01*
X67309000Y-187445000D02*
X67309000Y-178555000D01*
X67309000Y-178555000D02*
X69849000Y-178555000D01*
%TO.C,Y1*%
X61645000Y-146000000D02*
X64945000Y-146000000D01*
X64945000Y-146000000D02*
X64945000Y-142000000D01*
%TO.C,RV2*%
X76540000Y-170880000D02*
X77120000Y-170880000D01*
X74240000Y-170880000D02*
X74760000Y-170880000D01*
X71880000Y-170880000D02*
X72461000Y-170880000D01*
X75740000Y-176120000D02*
X77120000Y-176120000D01*
X71880000Y-176120000D02*
X73260000Y-176120000D01*
X77120000Y-176120000D02*
X77120000Y-170880000D01*
X71880000Y-176120000D02*
X71880000Y-170880000D01*
%TO.C,RV1*%
X68040000Y-170880000D02*
X68620000Y-170880000D01*
X65740000Y-170880000D02*
X66260000Y-170880000D01*
X63380000Y-170880000D02*
X63961000Y-170880000D01*
X67240000Y-176120000D02*
X68620000Y-176120000D01*
X63380000Y-176120000D02*
X64760000Y-176120000D01*
X68620000Y-176120000D02*
X68620000Y-170880000D01*
X63380000Y-176120000D02*
X63380000Y-170880000D01*
D11*
%TO.C,U1*%
X77425000Y-141575000D02*
X76850000Y-141575000D01*
X77425000Y-151925000D02*
X76750000Y-151925000D01*
X67075000Y-151925000D02*
X67750000Y-151925000D01*
X67075000Y-141575000D02*
X67750000Y-141575000D01*
X77425000Y-141575000D02*
X77425000Y-142250000D01*
X67075000Y-141575000D02*
X67075000Y-142250000D01*
X67075000Y-151925000D02*
X67075000Y-151250000D01*
X77425000Y-151925000D02*
X77425000Y-151250000D01*
X76850000Y-141575000D02*
X76850000Y-140300000D01*
D12*
%TO.C,R3*%
X81985000Y-137272936D02*
X81985000Y-137727064D01*
X80515000Y-137272936D02*
X80515000Y-137727064D01*
%TO.C,R2*%
X74515000Y-137727064D02*
X74515000Y-137272936D01*
X75985000Y-137727064D02*
X75985000Y-137272936D01*
%TO.C,JP1*%
X71200000Y-132200000D02*
X71800000Y-132200000D01*
X70500000Y-134300000D02*
X70500000Y-132900000D01*
X71800000Y-135000000D02*
X71200000Y-135000000D01*
X72500000Y-132900000D02*
X72500000Y-134300000D01*
X71800000Y-132200000D02*
G75*
G02*
X72500000Y-132900000I0J-700000D01*
G01*
X70500000Y-132900000D02*
G75*
G02*
X71200000Y-132200000I700000J0D01*
G01*
X71200000Y-135000000D02*
G75*
G02*
X70500000Y-134300000I0J700000D01*
G01*
X72500000Y-134300000D02*
G75*
G02*
X71800000Y-135000000I-700000J0D01*
G01*
%TO.C,J7*%
X81480000Y-171260000D02*
X87220000Y-171260000D01*
X81480000Y-158840000D02*
X87220000Y-158840000D01*
X94700000Y-171260000D02*
X94700000Y-158840000D01*
X81480000Y-171260000D02*
X81480000Y-158840000D01*
X89970000Y-171260000D02*
X94700000Y-171260000D01*
X89970000Y-158840000D02*
X94700000Y-158840000D01*
X83750000Y-158680000D02*
X84250000Y-158180000D01*
X83250000Y-158180000D02*
X83750000Y-158680000D01*
X83250000Y-158180000D02*
X84250000Y-158180000D01*
%TO.C,J6*%
X81480000Y-154010000D02*
X87220000Y-154010000D01*
X81480000Y-141590000D02*
X87220000Y-141590000D01*
X94700000Y-154010000D02*
X94700000Y-141590000D01*
X81480000Y-154010000D02*
X81480000Y-141590000D01*
X89970000Y-154010000D02*
X94700000Y-154010000D01*
X89970000Y-141590000D02*
X94700000Y-141590000D01*
X83750000Y-141430000D02*
X84250000Y-140930000D01*
X83250000Y-140930000D02*
X83750000Y-141430000D01*
X83250000Y-140930000D02*
X84250000Y-140930000D01*
%TO.C,J5*%
X33055000Y-168500000D02*
G75*
G03*
X33055000Y-168500000I-1555000J0D01*
G01*
X33055000Y-172000000D02*
G75*
G03*
X33055000Y-172000000I-1555000J0D01*
G01*
X33055000Y-175500000D02*
G75*
G03*
X33055000Y-175500000I-1555000J0D01*
G01*
X33055000Y-179000000D02*
G75*
G03*
X33055000Y-179000000I-1555000J0D01*
G01*
X29400000Y-162840000D02*
X29400000Y-181160000D01*
X34960000Y-162840000D02*
X34960000Y-181160000D01*
X27840000Y-162840000D02*
X27840000Y-181160000D01*
X34960000Y-162840000D02*
X27840000Y-162840000D01*
X34960000Y-181160000D02*
X27840000Y-181160000D01*
X29340000Y-162600000D02*
X27600000Y-162600000D01*
X27600000Y-162600000D02*
X27600000Y-164100000D01*
X29944508Y-165027011D02*
G75*
G02*
X30068000Y-164392000I1555492J27011D01*
G01*
X30892258Y-163567891D02*
G75*
G02*
X32108000Y-163568000I607742J-1432109D01*
G01*
X32932109Y-164392258D02*
G75*
G02*
X32932000Y-165608000I-1432109J-607742D01*
G01*
X32107742Y-166432109D02*
G75*
G02*
X30892000Y-166432000I-607742J1432109D01*
G01*
X30068615Y-165607587D02*
G75*
G02*
X29945000Y-165000000I1431385J607587D01*
G01*
%TO.C,J4*%
X33055000Y-155000000D02*
G75*
G03*
X33055000Y-155000000I-1555000J0D01*
G01*
X33055000Y-158500000D02*
G75*
G03*
X33055000Y-158500000I-1555000J0D01*
G01*
X29400000Y-149340000D02*
X29400000Y-160660000D01*
X34960000Y-149340000D02*
X34960000Y-160660000D01*
X27840000Y-149340000D02*
X27840000Y-160660000D01*
X34960000Y-149340000D02*
X27840000Y-149340000D01*
X34960000Y-160660000D02*
X27840000Y-160660000D01*
X29340000Y-149100000D02*
X27600000Y-149100000D01*
X27600000Y-149100000D02*
X27600000Y-150600000D01*
X29944508Y-151527011D02*
G75*
G02*
X30068000Y-150892000I1555492J27011D01*
G01*
X30892258Y-150067891D02*
G75*
G02*
X32108000Y-150068000I607742J-1432109D01*
G01*
X32932109Y-150892258D02*
G75*
G02*
X32932000Y-152108000I-1432109J-607742D01*
G01*
X32107742Y-152932109D02*
G75*
G02*
X30892000Y-152932000I-607742J1432109D01*
G01*
X30068615Y-152107587D02*
G75*
G02*
X29945000Y-151500000I1431385J607587D01*
G01*
%TO.C,J3*%
X33055000Y-145000000D02*
G75*
G03*
X33055000Y-145000000I-1555000J0D01*
G01*
X29400000Y-139340000D02*
X29400000Y-147160000D01*
X34960000Y-139340000D02*
X34960000Y-147160000D01*
X27840000Y-139340000D02*
X27840000Y-147160000D01*
X34960000Y-139340000D02*
X27840000Y-139340000D01*
X34960000Y-147160000D02*
X27840000Y-147160000D01*
X29340000Y-139100000D02*
X27600000Y-139100000D01*
X27600000Y-139100000D02*
X27600000Y-140600000D01*
X29944508Y-141527011D02*
G75*
G02*
X30068000Y-140892000I1555492J27011D01*
G01*
X30892258Y-140067891D02*
G75*
G02*
X32108000Y-140068000I607742J-1432109D01*
G01*
X32932109Y-140892258D02*
G75*
G02*
X32932000Y-142108000I-1432109J-607742D01*
G01*
X32107742Y-142932109D02*
G75*
G02*
X30892000Y-142932000I-607742J1432109D01*
G01*
X30068615Y-142107587D02*
G75*
G02*
X29945000Y-141500000I1431385J607587D01*
G01*
%TO.C,J1*%
X69410000Y-136330000D02*
X69410000Y-131130000D01*
X64270000Y-136330000D02*
X69410000Y-136330000D01*
X61670000Y-131130000D02*
X69410000Y-131130000D01*
X64270000Y-136330000D02*
X64270000Y-133730000D01*
X64270000Y-133730000D02*
X61670000Y-133730000D01*
X61670000Y-133730000D02*
X61670000Y-131130000D01*
X63000000Y-136330000D02*
X61670000Y-136330000D01*
X61670000Y-136330000D02*
X61670000Y-135000000D01*
%TO.C,J2*%
X82060000Y-134460000D02*
X81400000Y-134460000D01*
X82060000Y-132730000D02*
X82060000Y-134460000D01*
X74440000Y-130160000D02*
X74440000Y-130370000D01*
X82060000Y-130160000D02*
X82060000Y-130370000D01*
X74440000Y-132730000D02*
X74440000Y-134460000D01*
X74440000Y-134460000D02*
X75090000Y-134460000D01*
X80010000Y-135160000D02*
X79560000Y-135160000D01*
X80010000Y-135160000D02*
X80010000Y-134770000D01*
%TO.C,C5*%
X72485000Y-137238748D02*
X72485000Y-137761252D01*
X71015000Y-137238748D02*
X71015000Y-137761252D01*
%TO.C,C7*%
X63033748Y-139820000D02*
X63556252Y-139820000D01*
X63033748Y-141290000D02*
X63556252Y-141290000D01*
%TO.C,C6*%
X63033748Y-146665000D02*
X63556252Y-146665000D01*
X63033748Y-148135000D02*
X63556252Y-148135000D01*
%TO.C,C4*%
X78836252Y-157385000D02*
X78313748Y-157385000D01*
X78836252Y-155915000D02*
X78313748Y-155915000D01*
%TO.C,C3*%
X78836252Y-159925000D02*
X78313748Y-159925000D01*
X78836252Y-158455000D02*
X78313748Y-158455000D01*
%TO.C,U5*%
D11*
X74988095Y-134702380D02*
X74988095Y-135511904D01*
X75035714Y-135607142D01*
X75083333Y-135654761D01*
X75178571Y-135702380D01*
X75369047Y-135702380D01*
X75464285Y-135654761D01*
X75511904Y-135607142D01*
X75559523Y-135511904D01*
X75559523Y-134702380D01*
X76511904Y-134702380D02*
X76035714Y-134702380D01*
X75988095Y-135178571D01*
X76035714Y-135130952D01*
X76130952Y-135083333D01*
X76369047Y-135083333D01*
X76464285Y-135130952D01*
X76511904Y-135178571D01*
X76559523Y-135273809D01*
X76559523Y-135511904D01*
X76511904Y-135607142D01*
X76464285Y-135654761D01*
X76369047Y-135702380D01*
X76130952Y-135702380D01*
X76035714Y-135654761D01*
X75988095Y-135607142D01*
%TO.C,U2*%
X61238095Y-177952380D02*
X61238095Y-178761904D01*
X61285714Y-178857142D01*
X61333333Y-178904761D01*
X61428571Y-178952380D01*
X61619047Y-178952380D01*
X61714285Y-178904761D01*
X61761904Y-178857142D01*
X61809523Y-178761904D01*
X61809523Y-177952380D01*
X62238095Y-178047619D02*
X62285714Y-178000000D01*
X62380952Y-177952380D01*
X62619047Y-177952380D01*
X62714285Y-178000000D01*
X62761904Y-178047619D01*
X62809523Y-178142857D01*
X62809523Y-178238095D01*
X62761904Y-178380952D01*
X62190476Y-178952380D01*
X62809523Y-178952380D01*
%TO.C,R9*%
X88802380Y-175166666D02*
X88326190Y-175500000D01*
X88802380Y-175738095D02*
X87802380Y-175738095D01*
X87802380Y-175357142D01*
X87850000Y-175261904D01*
X87897619Y-175214285D01*
X87992857Y-175166666D01*
X88135714Y-175166666D01*
X88230952Y-175214285D01*
X88278571Y-175261904D01*
X88326190Y-175357142D01*
X88326190Y-175738095D01*
X88802380Y-174690476D02*
X88802380Y-174500000D01*
X88754761Y-174404761D01*
X88707142Y-174357142D01*
X88564285Y-174261904D01*
X88373809Y-174214285D01*
X87992857Y-174214285D01*
X87897619Y-174261904D01*
X87850000Y-174309523D01*
X87802380Y-174404761D01*
X87802380Y-174595238D01*
X87850000Y-174690476D01*
X87897619Y-174738095D01*
X87992857Y-174785714D01*
X88230952Y-174785714D01*
X88326190Y-174738095D01*
X88373809Y-174690476D01*
X88421428Y-174595238D01*
X88421428Y-174404761D01*
X88373809Y-174309523D01*
X88326190Y-174261904D01*
X88230952Y-174214285D01*
%TO.C,R8*%
X88802380Y-179666666D02*
X88326190Y-180000000D01*
X88802380Y-180238095D02*
X87802380Y-180238095D01*
X87802380Y-179857142D01*
X87850000Y-179761904D01*
X87897619Y-179714285D01*
X87992857Y-179666666D01*
X88135714Y-179666666D01*
X88230952Y-179714285D01*
X88278571Y-179761904D01*
X88326190Y-179857142D01*
X88326190Y-180238095D01*
X88230952Y-179095238D02*
X88183333Y-179190476D01*
X88135714Y-179238095D01*
X88040476Y-179285714D01*
X87992857Y-179285714D01*
X87897619Y-179238095D01*
X87850000Y-179190476D01*
X87802380Y-179095238D01*
X87802380Y-178904761D01*
X87850000Y-178809523D01*
X87897619Y-178761904D01*
X87992857Y-178714285D01*
X88040476Y-178714285D01*
X88135714Y-178761904D01*
X88183333Y-178809523D01*
X88230952Y-178904761D01*
X88230952Y-179095238D01*
X88278571Y-179190476D01*
X88326190Y-179238095D01*
X88421428Y-179285714D01*
X88611904Y-179285714D01*
X88707142Y-179238095D01*
X88754761Y-179190476D01*
X88802380Y-179095238D01*
X88802380Y-178904761D01*
X88754761Y-178809523D01*
X88707142Y-178761904D01*
X88611904Y-178714285D01*
X88421428Y-178714285D01*
X88326190Y-178761904D01*
X88278571Y-178809523D01*
X88230952Y-178904761D01*
%TO.C,R7*%
X71333333Y-162952380D02*
X71000000Y-162476190D01*
X70761904Y-162952380D02*
X70761904Y-161952380D01*
X71142857Y-161952380D01*
X71238095Y-162000000D01*
X71285714Y-162047619D01*
X71333333Y-162142857D01*
X71333333Y-162285714D01*
X71285714Y-162380952D01*
X71238095Y-162428571D01*
X71142857Y-162476190D01*
X70761904Y-162476190D01*
X71666666Y-161952380D02*
X72333333Y-161952380D01*
X71904761Y-162952380D01*
%TO.C,R6*%
X71333333Y-165452380D02*
X71000000Y-164976190D01*
X70761904Y-165452380D02*
X70761904Y-164452380D01*
X71142857Y-164452380D01*
X71238095Y-164500000D01*
X71285714Y-164547619D01*
X71333333Y-164642857D01*
X71333333Y-164785714D01*
X71285714Y-164880952D01*
X71238095Y-164928571D01*
X71142857Y-164976190D01*
X70761904Y-164976190D01*
X72190476Y-164452380D02*
X72000000Y-164452380D01*
X71904761Y-164500000D01*
X71857142Y-164547619D01*
X71761904Y-164690476D01*
X71714285Y-164880952D01*
X71714285Y-165261904D01*
X71761904Y-165357142D01*
X71809523Y-165404761D01*
X71904761Y-165452380D01*
X72095238Y-165452380D01*
X72190476Y-165404761D01*
X72238095Y-165357142D01*
X72285714Y-165261904D01*
X72285714Y-165023809D01*
X72238095Y-164928571D01*
X72190476Y-164880952D01*
X72095238Y-164833333D01*
X71904761Y-164833333D01*
X71809523Y-164880952D01*
X71761904Y-164928571D01*
X71714285Y-165023809D01*
%TO.C,R5*%
X62833333Y-162952380D02*
X62500000Y-162476190D01*
X62261904Y-162952380D02*
X62261904Y-161952380D01*
X62642857Y-161952380D01*
X62738095Y-162000000D01*
X62785714Y-162047619D01*
X62833333Y-162142857D01*
X62833333Y-162285714D01*
X62785714Y-162380952D01*
X62738095Y-162428571D01*
X62642857Y-162476190D01*
X62261904Y-162476190D01*
X63738095Y-161952380D02*
X63261904Y-161952380D01*
X63214285Y-162428571D01*
X63261904Y-162380952D01*
X63357142Y-162333333D01*
X63595238Y-162333333D01*
X63690476Y-162380952D01*
X63738095Y-162428571D01*
X63785714Y-162523809D01*
X63785714Y-162761904D01*
X63738095Y-162857142D01*
X63690476Y-162904761D01*
X63595238Y-162952380D01*
X63357142Y-162952380D01*
X63261904Y-162904761D01*
X63214285Y-162857142D01*
%TO.C,R4*%
X62833333Y-165452380D02*
X62500000Y-164976190D01*
X62261904Y-165452380D02*
X62261904Y-164452380D01*
X62642857Y-164452380D01*
X62738095Y-164500000D01*
X62785714Y-164547619D01*
X62833333Y-164642857D01*
X62833333Y-164785714D01*
X62785714Y-164880952D01*
X62738095Y-164928571D01*
X62642857Y-164976190D01*
X62261904Y-164976190D01*
X63690476Y-164785714D02*
X63690476Y-165452380D01*
X63452380Y-164404761D02*
X63214285Y-165119047D01*
X63833333Y-165119047D01*
%TO.C,D2*%
X92302380Y-175738095D02*
X91302380Y-175738095D01*
X91302380Y-175500000D01*
X91350000Y-175357142D01*
X91445238Y-175261904D01*
X91540476Y-175214285D01*
X91730952Y-175166666D01*
X91873809Y-175166666D01*
X92064285Y-175214285D01*
X92159523Y-175261904D01*
X92254761Y-175357142D01*
X92302380Y-175500000D01*
X92302380Y-175738095D01*
X91397619Y-174785714D02*
X91350000Y-174738095D01*
X91302380Y-174642857D01*
X91302380Y-174404761D01*
X91350000Y-174309523D01*
X91397619Y-174261904D01*
X91492857Y-174214285D01*
X91588095Y-174214285D01*
X91730952Y-174261904D01*
X92302380Y-174833333D01*
X92302380Y-174214285D01*
%TO.C,D1*%
X92302380Y-180238095D02*
X91302380Y-180238095D01*
X91302380Y-180000000D01*
X91350000Y-179857142D01*
X91445238Y-179761904D01*
X91540476Y-179714285D01*
X91730952Y-179666666D01*
X91873809Y-179666666D01*
X92064285Y-179714285D01*
X92159523Y-179761904D01*
X92254761Y-179857142D01*
X92302380Y-180000000D01*
X92302380Y-180238095D01*
X92302380Y-178714285D02*
X92302380Y-179285714D01*
X92302380Y-179000000D02*
X91302380Y-179000000D01*
X91445238Y-179095238D01*
X91540476Y-179190476D01*
X91588095Y-179285714D01*
%TO.C,C2*%
X43357142Y-160166666D02*
X43404761Y-160214285D01*
X43452380Y-160357142D01*
X43452380Y-160452380D01*
X43404761Y-160595238D01*
X43309523Y-160690476D01*
X43214285Y-160738095D01*
X43023809Y-160785714D01*
X42880952Y-160785714D01*
X42690476Y-160738095D01*
X42595238Y-160690476D01*
X42500000Y-160595238D01*
X42452380Y-160452380D01*
X42452380Y-160357142D01*
X42500000Y-160214285D01*
X42547619Y-160166666D01*
X42547619Y-159785714D02*
X42500000Y-159738095D01*
X42452380Y-159642857D01*
X42452380Y-159404761D01*
X42500000Y-159309523D01*
X42547619Y-159261904D01*
X42642857Y-159214285D01*
X42738095Y-159214285D01*
X42880952Y-159261904D01*
X43452380Y-159833333D01*
X43452380Y-159214285D01*
%TO.C,C1*%
X55357142Y-160166666D02*
X55404761Y-160214285D01*
X55452380Y-160357142D01*
X55452380Y-160452380D01*
X55404761Y-160595238D01*
X55309523Y-160690476D01*
X55214285Y-160738095D01*
X55023809Y-160785714D01*
X54880952Y-160785714D01*
X54690476Y-160738095D01*
X54595238Y-160690476D01*
X54500000Y-160595238D01*
X54452380Y-160452380D01*
X54452380Y-160357142D01*
X54500000Y-160214285D01*
X54547619Y-160166666D01*
X55452380Y-159214285D02*
X55452380Y-159785714D01*
X55452380Y-159500000D02*
X54452380Y-159500000D01*
X54595238Y-159595238D01*
X54690476Y-159690476D01*
X54738095Y-159785714D01*
%TO.C,R1*%
X83255380Y-183166666D02*
X82779190Y-183500000D01*
X83255380Y-183738095D02*
X82255380Y-183738095D01*
X82255380Y-183357142D01*
X82303000Y-183261904D01*
X82350619Y-183214285D01*
X82445857Y-183166666D01*
X82588714Y-183166666D01*
X82683952Y-183214285D01*
X82731571Y-183261904D01*
X82779190Y-183357142D01*
X82779190Y-183738095D01*
X83255380Y-182214285D02*
X83255380Y-182785714D01*
X83255380Y-182500000D02*
X82255380Y-182500000D01*
X82398238Y-182595238D01*
X82493476Y-182690476D01*
X82541095Y-182785714D01*
%TO.C,Y1*%
X60023809Y-143726190D02*
X60023809Y-144202380D01*
X59690476Y-143202380D02*
X60023809Y-143726190D01*
X60357142Y-143202380D01*
X61214285Y-144202380D02*
X60642857Y-144202380D01*
X60928571Y-144202380D02*
X60928571Y-143202380D01*
X60833333Y-143345238D01*
X60738095Y-143440476D01*
X60642857Y-143488095D01*
%TO.C,U3*%
X60597619Y-150588095D02*
X59788095Y-150588095D01*
X59692857Y-150635714D01*
X59645238Y-150683333D01*
X59597619Y-150778571D01*
X59597619Y-150969047D01*
X59645238Y-151064285D01*
X59692857Y-151111904D01*
X59788095Y-151159523D01*
X60597619Y-151159523D01*
X60597619Y-151540476D02*
X60597619Y-152159523D01*
X60216666Y-151826190D01*
X60216666Y-151969047D01*
X60169047Y-152064285D01*
X60121428Y-152111904D01*
X60026190Y-152159523D01*
X59788095Y-152159523D01*
X59692857Y-152111904D01*
X59645238Y-152064285D01*
X59597619Y-151969047D01*
X59597619Y-151683333D01*
X59645238Y-151588095D01*
X59692857Y-151540476D01*
%TO.C,RV2*%
X73904761Y-178002380D02*
X73571428Y-177526190D01*
X73333333Y-178002380D02*
X73333333Y-177002380D01*
X73714285Y-177002380D01*
X73809523Y-177050000D01*
X73857142Y-177097619D01*
X73904761Y-177192857D01*
X73904761Y-177335714D01*
X73857142Y-177430952D01*
X73809523Y-177478571D01*
X73714285Y-177526190D01*
X73333333Y-177526190D01*
X74190476Y-177002380D02*
X74523809Y-178002380D01*
X74857142Y-177002380D01*
X75142857Y-177097619D02*
X75190476Y-177050000D01*
X75285714Y-177002380D01*
X75523809Y-177002380D01*
X75619047Y-177050000D01*
X75666666Y-177097619D01*
X75714285Y-177192857D01*
X75714285Y-177288095D01*
X75666666Y-177430952D01*
X75095238Y-178002380D01*
X75714285Y-178002380D01*
%TO.C,RV1*%
X65404761Y-177952380D02*
X65071428Y-177476190D01*
X64833333Y-177952380D02*
X64833333Y-176952380D01*
X65214285Y-176952380D01*
X65309523Y-177000000D01*
X65357142Y-177047619D01*
X65404761Y-177142857D01*
X65404761Y-177285714D01*
X65357142Y-177380952D01*
X65309523Y-177428571D01*
X65214285Y-177476190D01*
X64833333Y-177476190D01*
X65690476Y-176952380D02*
X66023809Y-177952380D01*
X66357142Y-176952380D01*
X67214285Y-177952380D02*
X66642857Y-177952380D01*
X66928571Y-177952380D02*
X66928571Y-176952380D01*
X66833333Y-177095238D01*
X66738095Y-177190476D01*
X66642857Y-177238095D01*
%TO.C,Q2*%
X71404761Y-168547619D02*
X71309523Y-168500000D01*
X71214285Y-168404761D01*
X71071428Y-168261904D01*
X70976190Y-168214285D01*
X70880952Y-168214285D01*
X70928571Y-168452380D02*
X70833333Y-168404761D01*
X70738095Y-168309523D01*
X70690476Y-168119047D01*
X70690476Y-167785714D01*
X70738095Y-167595238D01*
X70833333Y-167500000D01*
X70928571Y-167452380D01*
X71119047Y-167452380D01*
X71214285Y-167500000D01*
X71309523Y-167595238D01*
X71357142Y-167785714D01*
X71357142Y-168119047D01*
X71309523Y-168309523D01*
X71214285Y-168404761D01*
X71119047Y-168452380D01*
X70928571Y-168452380D01*
X71738095Y-167547619D02*
X71785714Y-167500000D01*
X71880952Y-167452380D01*
X72119047Y-167452380D01*
X72214285Y-167500000D01*
X72261904Y-167547619D01*
X72309523Y-167642857D01*
X72309523Y-167738095D01*
X72261904Y-167880952D01*
X71690476Y-168452380D01*
X72309523Y-168452380D01*
%TO.C,Q1*%
X62904761Y-168547619D02*
X62809523Y-168500000D01*
X62714285Y-168404761D01*
X62571428Y-168261904D01*
X62476190Y-168214285D01*
X62380952Y-168214285D01*
X62428571Y-168452380D02*
X62333333Y-168404761D01*
X62238095Y-168309523D01*
X62190476Y-168119047D01*
X62190476Y-167785714D01*
X62238095Y-167595238D01*
X62333333Y-167500000D01*
X62428571Y-167452380D01*
X62619047Y-167452380D01*
X62714285Y-167500000D01*
X62809523Y-167595238D01*
X62857142Y-167785714D01*
X62857142Y-168119047D01*
X62809523Y-168309523D01*
X62714285Y-168404761D01*
X62619047Y-168452380D01*
X62428571Y-168452380D01*
X63809523Y-168452380D02*
X63238095Y-168452380D01*
X63523809Y-168452380D02*
X63523809Y-167452380D01*
X63428571Y-167595238D01*
X63333333Y-167690476D01*
X63238095Y-167738095D01*
%TO.C,U4*%
X60647619Y-186538095D02*
X59838095Y-186538095D01*
X59742857Y-186585714D01*
X59695238Y-186633333D01*
X59647619Y-186728571D01*
X59647619Y-186919047D01*
X59695238Y-187014285D01*
X59742857Y-187061904D01*
X59838095Y-187109523D01*
X60647619Y-187109523D01*
X60314285Y-188014285D02*
X59647619Y-188014285D01*
X60695238Y-187776190D02*
X59980952Y-187538095D01*
X59980952Y-188157142D01*
%TO.C,U1*%
X79152380Y-147511904D02*
X79961904Y-147511904D01*
X80057142Y-147464285D01*
X80104761Y-147416666D01*
X80152380Y-147321428D01*
X80152380Y-147130952D01*
X80104761Y-147035714D01*
X80057142Y-146988095D01*
X79961904Y-146940476D01*
X79152380Y-146940476D01*
X80152380Y-145940476D02*
X80152380Y-146511904D01*
X80152380Y-146226190D02*
X79152380Y-146226190D01*
X79295238Y-146321428D01*
X79390476Y-146416666D01*
X79438095Y-146511904D01*
%TO.C,R3*%
X83452380Y-137666666D02*
X82976190Y-138000000D01*
X83452380Y-138238095D02*
X82452380Y-138238095D01*
X82452380Y-137857142D01*
X82500000Y-137761904D01*
X82547619Y-137714285D01*
X82642857Y-137666666D01*
X82785714Y-137666666D01*
X82880952Y-137714285D01*
X82928571Y-137761904D01*
X82976190Y-137857142D01*
X82976190Y-138238095D01*
X82452380Y-137333333D02*
X82452380Y-136714285D01*
X82833333Y-137047619D01*
X82833333Y-136904761D01*
X82880952Y-136809523D01*
X82928571Y-136761904D01*
X83023809Y-136714285D01*
X83261904Y-136714285D01*
X83357142Y-136761904D01*
X83404761Y-136809523D01*
X83452380Y-136904761D01*
X83452380Y-137190476D01*
X83404761Y-137285714D01*
X83357142Y-137333333D01*
%TO.C,R2*%
X74052380Y-137666666D02*
X73576190Y-138000000D01*
X74052380Y-138238095D02*
X73052380Y-138238095D01*
X73052380Y-137857142D01*
X73100000Y-137761904D01*
X73147619Y-137714285D01*
X73242857Y-137666666D01*
X73385714Y-137666666D01*
X73480952Y-137714285D01*
X73528571Y-137761904D01*
X73576190Y-137857142D01*
X73576190Y-138238095D01*
X73147619Y-137285714D02*
X73100000Y-137238095D01*
X73052380Y-137142857D01*
X73052380Y-136904761D01*
X73100000Y-136809523D01*
X73147619Y-136761904D01*
X73242857Y-136714285D01*
X73338095Y-136714285D01*
X73480952Y-136761904D01*
X74052380Y-137333333D01*
X74052380Y-136714285D01*
%TO.C,C5*%
X70357142Y-137666666D02*
X70404761Y-137714285D01*
X70452380Y-137857142D01*
X70452380Y-137952380D01*
X70404761Y-138095238D01*
X70309523Y-138190476D01*
X70214285Y-138238095D01*
X70023809Y-138285714D01*
X69880952Y-138285714D01*
X69690476Y-138238095D01*
X69595238Y-138190476D01*
X69500000Y-138095238D01*
X69452380Y-137952380D01*
X69452380Y-137857142D01*
X69500000Y-137714285D01*
X69547619Y-137666666D01*
X69452380Y-136761904D02*
X69452380Y-137238095D01*
X69928571Y-137285714D01*
X69880952Y-137238095D01*
X69833333Y-137142857D01*
X69833333Y-136904761D01*
X69880952Y-136809523D01*
X69928571Y-136761904D01*
X70023809Y-136714285D01*
X70261904Y-136714285D01*
X70357142Y-136761904D01*
X70404761Y-136809523D01*
X70452380Y-136904761D01*
X70452380Y-137142857D01*
X70404761Y-137238095D01*
X70357142Y-137285714D01*
%TO.C,C7*%
X60333333Y-140957142D02*
X60285714Y-141004761D01*
X60142857Y-141052380D01*
X60047619Y-141052380D01*
X59904761Y-141004761D01*
X59809523Y-140909523D01*
X59761904Y-140814285D01*
X59714285Y-140623809D01*
X59714285Y-140480952D01*
X59761904Y-140290476D01*
X59809523Y-140195238D01*
X59904761Y-140100000D01*
X60047619Y-140052380D01*
X60142857Y-140052380D01*
X60285714Y-140100000D01*
X60333333Y-140147619D01*
X60666666Y-140052380D02*
X61333333Y-140052380D01*
X60904761Y-141052380D01*
%TO.C,C6*%
X60333333Y-147712142D02*
X60285714Y-147759761D01*
X60142857Y-147807380D01*
X60047619Y-147807380D01*
X59904761Y-147759761D01*
X59809523Y-147664523D01*
X59761904Y-147569285D01*
X59714285Y-147378809D01*
X59714285Y-147235952D01*
X59761904Y-147045476D01*
X59809523Y-146950238D01*
X59904761Y-146855000D01*
X60047619Y-146807380D01*
X60142857Y-146807380D01*
X60285714Y-146855000D01*
X60333333Y-146902619D01*
X61190476Y-146807380D02*
X61000000Y-146807380D01*
X60904761Y-146855000D01*
X60857142Y-146902619D01*
X60761904Y-147045476D01*
X60714285Y-147235952D01*
X60714285Y-147616904D01*
X60761904Y-147712142D01*
X60809523Y-147759761D01*
X60904761Y-147807380D01*
X61095238Y-147807380D01*
X61190476Y-147759761D01*
X61238095Y-147712142D01*
X61285714Y-147616904D01*
X61285714Y-147378809D01*
X61238095Y-147283571D01*
X61190476Y-147235952D01*
X61095238Y-147188333D01*
X60904761Y-147188333D01*
X60809523Y-147235952D01*
X60761904Y-147283571D01*
X60714285Y-147378809D01*
%TO.C,C4*%
X75333333Y-156857142D02*
X75285714Y-156904761D01*
X75142857Y-156952380D01*
X75047619Y-156952380D01*
X74904761Y-156904761D01*
X74809523Y-156809523D01*
X74761904Y-156714285D01*
X74714285Y-156523809D01*
X74714285Y-156380952D01*
X74761904Y-156190476D01*
X74809523Y-156095238D01*
X74904761Y-156000000D01*
X75047619Y-155952380D01*
X75142857Y-155952380D01*
X75285714Y-156000000D01*
X75333333Y-156047619D01*
X76190476Y-156285714D02*
X76190476Y-156952380D01*
X75952380Y-155904761D02*
X75714285Y-156619047D01*
X76333333Y-156619047D01*
%TO.C,C3*%
X75333333Y-159357142D02*
X75285714Y-159404761D01*
X75142857Y-159452380D01*
X75047619Y-159452380D01*
X74904761Y-159404761D01*
X74809523Y-159309523D01*
X74761904Y-159214285D01*
X74714285Y-159023809D01*
X74714285Y-158880952D01*
X74761904Y-158690476D01*
X74809523Y-158595238D01*
X74904761Y-158500000D01*
X75047619Y-158452380D01*
X75142857Y-158452380D01*
X75285714Y-158500000D01*
X75333333Y-158547619D01*
X75666666Y-158452380D02*
X76285714Y-158452380D01*
X75952380Y-158833333D01*
X76095238Y-158833333D01*
X76190476Y-158880952D01*
X76238095Y-158928571D01*
X76285714Y-159023809D01*
X76285714Y-159261904D01*
X76238095Y-159357142D01*
X76190476Y-159404761D01*
X76095238Y-159452380D01*
X75809523Y-159452380D01*
X75714285Y-159404761D01*
X75666666Y-159357142D01*
%TD*%
M02*
