%TF.GenerationSoftware,KiCad,Pcbnew,(5.1.8)-1*%
%TF.CreationDate,2021-08-18T00:38:57+02:00*%
%TF.ProjectId,Haubenblitzer_LED,48617562-656e-4626-9c69-747a65725f4c,rev?*%
%TF.SameCoordinates,Original*%
%TF.FileFunction,Copper,L1,Top*%
%TF.FilePolarity,Positive*%
%FSLAX46Y46*%
G04 Gerber Fmt 4.6, Leading zero omitted, Abs format (unit mm)*
G04 Created by KiCad (PCBNEW (5.1.8)-1) date 2021-08-18 00:38:57*
%MOMM*%
%LPD*%
G01*
G04 APERTURE LIST*
%TA.AperFunction,SMDPad,CuDef*%
%ADD10R,2.500000X5.000000*%
%TD*%
%TA.AperFunction,SMDPad,CuDef*%
%ADD11R,0.500000X2.140000*%
%TD*%
%TA.AperFunction,Conductor*%
%ADD12C,0.800000*%
%TD*%
%TA.AperFunction,Conductor*%
%ADD13C,0.254000*%
%TD*%
%TA.AperFunction,Conductor*%
%ADD14C,0.100000*%
%TD*%
G04 APERTURE END LIST*
D10*
%TO.P,J3,1*%
%TO.N,Net-(D2-Pad3)*%
X171400000Y-117500000D03*
%TD*%
%TO.P,J2,1*%
%TO.N,Net-(D1-Pad1)*%
X149600000Y-117500000D03*
%TD*%
%TO.P,J1,1*%
%TO.N,GND*%
%TA.AperFunction,ComponentPad*%
G36*
G01*
X159350000Y-109600001D02*
X159350000Y-107799999D01*
G75*
G02*
X159599999Y-107550000I249999J0D01*
G01*
X161400001Y-107550000D01*
G75*
G02*
X161650000Y-107799999I0J-249999D01*
G01*
X161650000Y-109600001D01*
G75*
G02*
X161400001Y-109850000I-249999J0D01*
G01*
X159599999Y-109850000D01*
G75*
G02*
X159350000Y-109600001I0J249999D01*
G01*
G37*
%TD.AperFunction*%
%TD*%
D11*
%TO.P,D2,2*%
%TO.N,GND*%
X163110000Y-108430000D03*
%TO.P,D2,3*%
%TO.N,Net-(D2-Pad3)*%
X167390000Y-111070000D03*
%TO.P,D2,1*%
%TO.N,Net-(D2-Pad1)*%
X167390000Y-108430000D03*
%TO.P,D2,4*%
X163110000Y-111070000D03*
%TD*%
%TO.P,D1,2*%
%TO.N,Net-(D1-Pad2)*%
X157890000Y-111070000D03*
%TO.P,D1,3*%
X153610000Y-108430000D03*
%TO.P,D1,1*%
%TO.N,Net-(D1-Pad1)*%
X153610000Y-111070000D03*
%TO.P,D1,4*%
%TO.N,GND*%
X157890000Y-108430000D03*
%TD*%
D12*
%TO.N,Net-(D1-Pad2)*%
X157070000Y-111070000D02*
X157890000Y-111070000D01*
X154430000Y-108430000D02*
X157070000Y-111070000D01*
X153610000Y-108430000D02*
X154430000Y-108430000D01*
%TO.N,Net-(D1-Pad1)*%
X153610000Y-115540000D02*
X153610000Y-111070000D01*
X151650000Y-117500000D02*
X153610000Y-115540000D01*
X149600000Y-117500000D02*
X151650000Y-117500000D01*
%TO.N,GND*%
X160230000Y-108430000D02*
X160500000Y-108700000D01*
X157890000Y-108430000D02*
X160230000Y-108430000D01*
X160770000Y-108430000D02*
X160500000Y-108700000D01*
X163110000Y-108430000D02*
X160770000Y-108430000D01*
%TO.N,Net-(D2-Pad3)*%
X169350000Y-117500000D02*
X171400000Y-117500000D01*
X167390000Y-115540000D02*
X169350000Y-117500000D01*
X167390000Y-111070000D02*
X167390000Y-115540000D01*
%TO.N,Net-(D2-Pad1)*%
X166570000Y-108430000D02*
X167390000Y-108430000D01*
X163930000Y-111070000D02*
X166570000Y-108430000D01*
X163110000Y-111070000D02*
X163930000Y-111070000D01*
%TD*%
D13*
%TO.N,GND*%
X167664569Y-106668866D02*
X167822871Y-106716660D01*
X167968872Y-106794289D01*
X168097015Y-106898800D01*
X168202418Y-107026209D01*
X168281069Y-107171671D01*
X168329966Y-107329631D01*
X168348001Y-107501221D01*
X168348000Y-113807461D01*
X168348694Y-113814503D01*
X168348650Y-113820758D01*
X168348857Y-113822870D01*
X168369258Y-114016967D01*
X168372027Y-114030457D01*
X168374609Y-114043994D01*
X168375223Y-114046025D01*
X168432935Y-114232463D01*
X168438260Y-114245130D01*
X168443434Y-114257937D01*
X168444430Y-114259811D01*
X168537255Y-114431487D01*
X168544954Y-114442902D01*
X168552503Y-114454437D01*
X168553844Y-114456082D01*
X168678248Y-114606459D01*
X168688043Y-114616186D01*
X168697663Y-114626010D01*
X168699298Y-114627363D01*
X168850540Y-114750713D01*
X168862020Y-114758340D01*
X168873382Y-114766120D01*
X168875248Y-114767129D01*
X169047571Y-114858754D01*
X169060314Y-114864007D01*
X169072970Y-114869431D01*
X169074997Y-114870059D01*
X169261833Y-114926468D01*
X169275393Y-114929153D01*
X169288823Y-114932008D01*
X169290933Y-114932230D01*
X169485167Y-114951275D01*
X169485178Y-114951275D01*
X169492538Y-114952000D01*
X169826146Y-114952000D01*
X169821418Y-115000000D01*
X169821418Y-116773000D01*
X169651133Y-116773000D01*
X168117000Y-115238868D01*
X168117000Y-111034292D01*
X168106480Y-110927483D01*
X168064910Y-110790443D01*
X167997403Y-110664147D01*
X167968582Y-110629029D01*
X167968582Y-110000000D01*
X167962268Y-109935897D01*
X167943570Y-109874257D01*
X167913206Y-109817450D01*
X167872343Y-109767657D01*
X167850827Y-109750000D01*
X167872343Y-109732343D01*
X167913206Y-109682550D01*
X167943570Y-109625743D01*
X167962268Y-109564103D01*
X167968582Y-109500000D01*
X167968582Y-108870972D01*
X167997403Y-108835853D01*
X168064910Y-108709557D01*
X168106480Y-108572517D01*
X168120517Y-108430000D01*
X168106480Y-108287483D01*
X168064910Y-108150443D01*
X167997403Y-108024147D01*
X167968582Y-107989028D01*
X167968582Y-107360000D01*
X167962268Y-107295897D01*
X167943570Y-107234257D01*
X167913206Y-107177450D01*
X167872343Y-107127657D01*
X167822550Y-107086794D01*
X167765743Y-107056430D01*
X167704103Y-107037732D01*
X167640000Y-107031418D01*
X167140000Y-107031418D01*
X167075897Y-107037732D01*
X167014257Y-107056430D01*
X166957450Y-107086794D01*
X166907657Y-107127657D01*
X166866794Y-107177450D01*
X166836430Y-107234257D01*
X166817732Y-107295897D01*
X166811418Y-107360000D01*
X166811418Y-107703000D01*
X166605708Y-107703000D01*
X166570000Y-107699483D01*
X166427482Y-107713520D01*
X166290443Y-107755090D01*
X166164147Y-107822597D01*
X166053446Y-107913446D01*
X166030683Y-107941183D01*
X163688582Y-110283286D01*
X163688582Y-110044002D01*
X163720540Y-110026447D01*
X163816317Y-109945994D01*
X163894558Y-109848401D01*
X163952257Y-109737419D01*
X163987195Y-109617314D01*
X163998030Y-109492700D01*
X163995000Y-108715750D01*
X163836250Y-108557000D01*
X163233000Y-108557000D01*
X163233000Y-108577000D01*
X162987000Y-108577000D01*
X162987000Y-108557000D01*
X162963000Y-108557000D01*
X162963000Y-108303000D01*
X162987000Y-108303000D01*
X162987000Y-106883750D01*
X163233000Y-106883750D01*
X163233000Y-108303000D01*
X163836250Y-108303000D01*
X163995000Y-108144250D01*
X163998030Y-107367300D01*
X163987195Y-107242686D01*
X163952257Y-107122581D01*
X163894558Y-107011599D01*
X163816317Y-106914006D01*
X163720540Y-106833553D01*
X163610908Y-106773331D01*
X163491633Y-106735653D01*
X163391750Y-106725000D01*
X163233000Y-106883750D01*
X162987000Y-106883750D01*
X162828250Y-106725000D01*
X162728367Y-106735653D01*
X162609092Y-106773331D01*
X162499460Y-106833553D01*
X162403683Y-106914006D01*
X162325442Y-107011599D01*
X162267743Y-107122581D01*
X162232805Y-107242686D01*
X162229021Y-107286211D01*
X162180537Y-107195506D01*
X162101185Y-107098815D01*
X162004494Y-107019463D01*
X161894180Y-106960498D01*
X161774482Y-106924188D01*
X161650000Y-106911928D01*
X160785750Y-106915000D01*
X160627000Y-107073750D01*
X160627000Y-108573000D01*
X160647000Y-108573000D01*
X160647000Y-108827000D01*
X160627000Y-108827000D01*
X160627000Y-110326250D01*
X160785750Y-110485000D01*
X161650000Y-110488072D01*
X161774482Y-110475812D01*
X161894180Y-110439502D01*
X162004494Y-110380537D01*
X162101185Y-110301185D01*
X162180537Y-110204494D01*
X162239502Y-110094180D01*
X162275812Y-109974482D01*
X162288072Y-109850000D01*
X162287809Y-109776015D01*
X162325442Y-109848401D01*
X162403683Y-109945994D01*
X162499460Y-110026447D01*
X162531418Y-110044002D01*
X162531418Y-110629028D01*
X162502597Y-110664147D01*
X162435090Y-110790443D01*
X162393520Y-110927483D01*
X162379483Y-111070000D01*
X162393520Y-111212517D01*
X162435090Y-111349557D01*
X162502597Y-111475853D01*
X162531418Y-111510972D01*
X162531418Y-112140000D01*
X162537732Y-112204103D01*
X162556430Y-112265743D01*
X162586794Y-112322550D01*
X162627657Y-112372343D01*
X162677450Y-112413206D01*
X162734257Y-112443570D01*
X162795897Y-112462268D01*
X162860000Y-112468582D01*
X163360000Y-112468582D01*
X163424103Y-112462268D01*
X163485743Y-112443570D01*
X163542550Y-112413206D01*
X163592343Y-112372343D01*
X163633206Y-112322550D01*
X163663570Y-112265743D01*
X163682268Y-112204103D01*
X163688582Y-112140000D01*
X163688582Y-111797000D01*
X163894292Y-111797000D01*
X163930000Y-111800517D01*
X164072517Y-111786480D01*
X164209557Y-111744910D01*
X164335853Y-111677403D01*
X164446554Y-111586554D01*
X164469326Y-111558806D01*
X166811418Y-109216716D01*
X166811418Y-109500000D01*
X166817732Y-109564103D01*
X166836430Y-109625743D01*
X166866794Y-109682550D01*
X166907657Y-109732343D01*
X166929173Y-109750000D01*
X166907657Y-109767657D01*
X166866794Y-109817450D01*
X166836430Y-109874257D01*
X166817732Y-109935897D01*
X166811418Y-110000000D01*
X166811418Y-110629029D01*
X166782597Y-110664148D01*
X166715090Y-110790444D01*
X166673520Y-110927484D01*
X166663000Y-111034293D01*
X166663001Y-115504282D01*
X166659483Y-115540000D01*
X166673520Y-115682517D01*
X166715090Y-115819556D01*
X166782106Y-115944933D01*
X166782598Y-115945853D01*
X166873447Y-116056554D01*
X166901189Y-116079321D01*
X168810679Y-117988812D01*
X168833446Y-118016554D01*
X168944147Y-118107403D01*
X169070443Y-118174910D01*
X169207482Y-118216480D01*
X169350000Y-118230517D01*
X169385708Y-118227000D01*
X169821418Y-118227000D01*
X169821418Y-120000000D01*
X169827732Y-120064103D01*
X169846430Y-120125743D01*
X169876794Y-120182550D01*
X169917657Y-120232343D01*
X169967450Y-120273206D01*
X170024257Y-120303570D01*
X170085897Y-120322268D01*
X170150000Y-120328582D01*
X172650000Y-120328582D01*
X172714103Y-120322268D01*
X172775743Y-120303570D01*
X172832550Y-120273206D01*
X172882343Y-120232343D01*
X172923206Y-120182550D01*
X172953570Y-120125743D01*
X172972268Y-120064103D01*
X172978582Y-120000000D01*
X172978582Y-115000000D01*
X172973854Y-114952000D01*
X172992561Y-114952000D01*
X173455920Y-114997433D01*
X173894473Y-115129839D01*
X174298959Y-115344907D01*
X174653969Y-115634446D01*
X174945975Y-115987423D01*
X175163864Y-116390399D01*
X175299329Y-116828015D01*
X175347967Y-117290775D01*
X175348001Y-117300531D01*
X175348000Y-152292561D01*
X175302567Y-152755922D01*
X175170159Y-153194477D01*
X174955091Y-153598961D01*
X174665554Y-153953969D01*
X174312577Y-154245977D01*
X173909601Y-154463864D01*
X173471984Y-154599329D01*
X173009225Y-154647967D01*
X172999755Y-154648000D01*
X148007439Y-154648000D01*
X147544078Y-154602567D01*
X147105523Y-154470159D01*
X146701039Y-154255091D01*
X146346031Y-153965554D01*
X146054023Y-153612577D01*
X145836136Y-153209601D01*
X145700671Y-152771984D01*
X145652033Y-152309225D01*
X145652000Y-152299755D01*
X145652000Y-123610207D01*
X147573000Y-123610207D01*
X147573000Y-123989793D01*
X147647053Y-124362085D01*
X147792315Y-124712777D01*
X148003201Y-125028391D01*
X148271609Y-125296799D01*
X148587223Y-125507685D01*
X148937915Y-125652947D01*
X149310207Y-125727000D01*
X149689793Y-125727000D01*
X150062085Y-125652947D01*
X150412777Y-125507685D01*
X150728391Y-125296799D01*
X150996799Y-125028391D01*
X151207685Y-124712777D01*
X151352947Y-124362085D01*
X151427000Y-123989793D01*
X151427000Y-123610207D01*
X169573000Y-123610207D01*
X169573000Y-123989793D01*
X169647053Y-124362085D01*
X169792315Y-124712777D01*
X170003201Y-125028391D01*
X170271609Y-125296799D01*
X170587223Y-125507685D01*
X170937915Y-125652947D01*
X171310207Y-125727000D01*
X171689793Y-125727000D01*
X172062085Y-125652947D01*
X172412777Y-125507685D01*
X172728391Y-125296799D01*
X172996799Y-125028391D01*
X173207685Y-124712777D01*
X173352947Y-124362085D01*
X173427000Y-123989793D01*
X173427000Y-123610207D01*
X173352947Y-123237915D01*
X173207685Y-122887223D01*
X172996799Y-122571609D01*
X172728391Y-122303201D01*
X172412777Y-122092315D01*
X172062085Y-121947053D01*
X171689793Y-121873000D01*
X171310207Y-121873000D01*
X170937915Y-121947053D01*
X170587223Y-122092315D01*
X170271609Y-122303201D01*
X170003201Y-122571609D01*
X169792315Y-122887223D01*
X169647053Y-123237915D01*
X169573000Y-123610207D01*
X151427000Y-123610207D01*
X151352947Y-123237915D01*
X151207685Y-122887223D01*
X150996799Y-122571609D01*
X150728391Y-122303201D01*
X150412777Y-122092315D01*
X150062085Y-121947053D01*
X149689793Y-121873000D01*
X149310207Y-121873000D01*
X148937915Y-121947053D01*
X148587223Y-122092315D01*
X148271609Y-122303201D01*
X148003201Y-122571609D01*
X147792315Y-122887223D01*
X147647053Y-123237915D01*
X147573000Y-123610207D01*
X145652000Y-123610207D01*
X145652000Y-117307439D01*
X145697433Y-116844080D01*
X145829839Y-116405527D01*
X146044907Y-116001041D01*
X146334446Y-115646031D01*
X146687423Y-115354025D01*
X147090399Y-115136136D01*
X147528015Y-115000671D01*
X147990775Y-114952033D01*
X148000245Y-114952000D01*
X148026146Y-114952000D01*
X148021418Y-115000000D01*
X148021418Y-120000000D01*
X148027732Y-120064103D01*
X148046430Y-120125743D01*
X148076794Y-120182550D01*
X148117657Y-120232343D01*
X148167450Y-120273206D01*
X148224257Y-120303570D01*
X148285897Y-120322268D01*
X148350000Y-120328582D01*
X150850000Y-120328582D01*
X150914103Y-120322268D01*
X150975743Y-120303570D01*
X151032550Y-120273206D01*
X151082343Y-120232343D01*
X151123206Y-120182550D01*
X151153570Y-120125743D01*
X151172268Y-120064103D01*
X151178582Y-120000000D01*
X151178582Y-118227000D01*
X151614292Y-118227000D01*
X151650000Y-118230517D01*
X151792517Y-118216480D01*
X151929557Y-118174910D01*
X152055853Y-118107403D01*
X152166554Y-118016554D01*
X152189326Y-117988806D01*
X154098816Y-116079317D01*
X154126553Y-116056554D01*
X154217403Y-115945853D01*
X154284910Y-115819557D01*
X154305784Y-115750743D01*
X154326480Y-115682518D01*
X154340517Y-115540000D01*
X154337000Y-115504292D01*
X154337000Y-114300000D01*
X158668999Y-114300000D01*
X158684966Y-114462120D01*
X158732255Y-114618010D01*
X158809048Y-114761679D01*
X158912394Y-114887606D01*
X159038321Y-114990952D01*
X159181990Y-115067745D01*
X159337880Y-115115034D01*
X159459376Y-115127000D01*
X161540624Y-115127000D01*
X161662120Y-115115034D01*
X161818010Y-115067745D01*
X161961679Y-114990952D01*
X162087606Y-114887606D01*
X162190952Y-114761679D01*
X162267745Y-114618010D01*
X162315034Y-114462120D01*
X162331001Y-114300000D01*
X162315034Y-114137880D01*
X162267745Y-113981990D01*
X162190952Y-113838321D01*
X162087606Y-113712394D01*
X161961679Y-113609048D01*
X161818010Y-113532255D01*
X161662120Y-113484966D01*
X161540624Y-113473000D01*
X159459376Y-113473000D01*
X159337880Y-113484966D01*
X159181990Y-113532255D01*
X159038321Y-113609048D01*
X158912394Y-113712394D01*
X158809048Y-113838321D01*
X158732255Y-113981990D01*
X158684966Y-114137880D01*
X158668999Y-114300000D01*
X154337000Y-114300000D01*
X154337000Y-111034292D01*
X154326480Y-110927483D01*
X154284910Y-110790443D01*
X154217403Y-110664147D01*
X154188582Y-110629028D01*
X154188582Y-110000000D01*
X154182268Y-109935897D01*
X154163570Y-109874257D01*
X154133206Y-109817450D01*
X154092343Y-109767657D01*
X154070827Y-109750000D01*
X154092343Y-109732343D01*
X154133206Y-109682550D01*
X154163570Y-109625743D01*
X154182268Y-109564103D01*
X154188582Y-109500000D01*
X154188582Y-109216714D01*
X156530683Y-111558817D01*
X156553446Y-111586554D01*
X156664147Y-111677403D01*
X156790443Y-111744910D01*
X156927482Y-111786480D01*
X157070000Y-111800517D01*
X157105708Y-111797000D01*
X157311418Y-111797000D01*
X157311418Y-112140000D01*
X157317732Y-112204103D01*
X157336430Y-112265743D01*
X157366794Y-112322550D01*
X157407657Y-112372343D01*
X157457450Y-112413206D01*
X157514257Y-112443570D01*
X157575897Y-112462268D01*
X157640000Y-112468582D01*
X158140000Y-112468582D01*
X158204103Y-112462268D01*
X158265743Y-112443570D01*
X158322550Y-112413206D01*
X158372343Y-112372343D01*
X158413206Y-112322550D01*
X158443570Y-112265743D01*
X158462268Y-112204103D01*
X158468582Y-112140000D01*
X158468582Y-111510972D01*
X158497403Y-111475853D01*
X158564910Y-111349557D01*
X158606480Y-111212517D01*
X158620517Y-111070000D01*
X158606480Y-110927483D01*
X158564910Y-110790443D01*
X158497403Y-110664147D01*
X158468582Y-110629028D01*
X158468582Y-110044002D01*
X158500540Y-110026447D01*
X158596317Y-109945994D01*
X158674558Y-109848401D01*
X158712191Y-109776015D01*
X158711928Y-109850000D01*
X158724188Y-109974482D01*
X158760498Y-110094180D01*
X158819463Y-110204494D01*
X158898815Y-110301185D01*
X158995506Y-110380537D01*
X159105820Y-110439502D01*
X159225518Y-110475812D01*
X159350000Y-110488072D01*
X160214250Y-110485000D01*
X160373000Y-110326250D01*
X160373000Y-108827000D01*
X160353000Y-108827000D01*
X160353000Y-108573000D01*
X160373000Y-108573000D01*
X160373000Y-107073750D01*
X160214250Y-106915000D01*
X159350000Y-106911928D01*
X159225518Y-106924188D01*
X159105820Y-106960498D01*
X158995506Y-107019463D01*
X158898815Y-107098815D01*
X158819463Y-107195506D01*
X158770979Y-107286211D01*
X158767195Y-107242686D01*
X158732257Y-107122581D01*
X158674558Y-107011599D01*
X158596317Y-106914006D01*
X158500540Y-106833553D01*
X158390908Y-106773331D01*
X158271633Y-106735653D01*
X158171750Y-106725000D01*
X158013000Y-106883750D01*
X158013000Y-108303000D01*
X158037000Y-108303000D01*
X158037000Y-108557000D01*
X158013000Y-108557000D01*
X158013000Y-108577000D01*
X157767000Y-108577000D01*
X157767000Y-108557000D01*
X157163750Y-108557000D01*
X157005000Y-108715750D01*
X157001970Y-109492700D01*
X157012805Y-109617314D01*
X157047743Y-109737419D01*
X157105442Y-109848401D01*
X157183683Y-109945994D01*
X157279460Y-110026447D01*
X157311418Y-110044002D01*
X157311418Y-110283284D01*
X154969326Y-107941194D01*
X154946554Y-107913446D01*
X154835853Y-107822597D01*
X154709557Y-107755090D01*
X154572517Y-107713520D01*
X154465708Y-107703000D01*
X154430000Y-107699483D01*
X154394292Y-107703000D01*
X154188582Y-107703000D01*
X154188582Y-107367300D01*
X157001970Y-107367300D01*
X157005000Y-108144250D01*
X157163750Y-108303000D01*
X157767000Y-108303000D01*
X157767000Y-106883750D01*
X157608250Y-106725000D01*
X157508367Y-106735653D01*
X157389092Y-106773331D01*
X157279460Y-106833553D01*
X157183683Y-106914006D01*
X157105442Y-107011599D01*
X157047743Y-107122581D01*
X157012805Y-107242686D01*
X157001970Y-107367300D01*
X154188582Y-107367300D01*
X154188582Y-107360000D01*
X154182268Y-107295897D01*
X154163570Y-107234257D01*
X154133206Y-107177450D01*
X154092343Y-107127657D01*
X154042550Y-107086794D01*
X153985743Y-107056430D01*
X153924103Y-107037732D01*
X153860000Y-107031418D01*
X153360000Y-107031418D01*
X153295897Y-107037732D01*
X153234257Y-107056430D01*
X153177450Y-107086794D01*
X153127657Y-107127657D01*
X153086794Y-107177450D01*
X153056430Y-107234257D01*
X153037732Y-107295897D01*
X153031418Y-107360000D01*
X153031418Y-107989028D01*
X153002597Y-108024147D01*
X152935090Y-108150443D01*
X152893520Y-108287483D01*
X152879483Y-108430000D01*
X152893520Y-108572517D01*
X152935090Y-108709557D01*
X153002597Y-108835853D01*
X153031418Y-108870972D01*
X153031418Y-109500000D01*
X153037732Y-109564103D01*
X153056430Y-109625743D01*
X153086794Y-109682550D01*
X153127657Y-109732343D01*
X153149173Y-109750000D01*
X153127657Y-109767657D01*
X153086794Y-109817450D01*
X153056430Y-109874257D01*
X153037732Y-109935897D01*
X153031418Y-110000000D01*
X153031418Y-110629029D01*
X153002598Y-110664147D01*
X152935091Y-110790443D01*
X152893521Y-110927483D01*
X152883001Y-111034292D01*
X152883000Y-115238867D01*
X151348868Y-116773000D01*
X151178582Y-116773000D01*
X151178582Y-115000000D01*
X151173854Y-114952000D01*
X151507462Y-114952000D01*
X151514504Y-114951306D01*
X151520758Y-114951350D01*
X151522870Y-114951143D01*
X151716967Y-114930742D01*
X151730457Y-114927973D01*
X151743994Y-114925391D01*
X151746023Y-114924778D01*
X151746029Y-114924776D01*
X151932463Y-114867065D01*
X151945130Y-114861740D01*
X151957937Y-114856566D01*
X151959811Y-114855570D01*
X152131487Y-114762745D01*
X152142902Y-114755046D01*
X152154437Y-114747497D01*
X152156082Y-114746156D01*
X152306459Y-114621752D01*
X152316186Y-114611957D01*
X152326010Y-114602337D01*
X152327363Y-114600702D01*
X152450713Y-114449460D01*
X152458340Y-114437980D01*
X152466120Y-114426618D01*
X152467129Y-114424752D01*
X152558754Y-114252429D01*
X152564007Y-114239686D01*
X152569431Y-114227030D01*
X152570059Y-114225003D01*
X152626468Y-114038167D01*
X152629153Y-114024607D01*
X152632008Y-114011177D01*
X152632230Y-114009067D01*
X152651275Y-113814833D01*
X152651275Y-113814822D01*
X152652000Y-113807462D01*
X152652000Y-107507439D01*
X152668866Y-107335431D01*
X152716660Y-107177129D01*
X152794289Y-107031128D01*
X152898800Y-106902985D01*
X153026209Y-106797582D01*
X153171671Y-106718931D01*
X153329631Y-106670034D01*
X153501211Y-106652000D01*
X167492561Y-106652000D01*
X167664569Y-106668866D01*
%TA.AperFunction,Conductor*%
D14*
G36*
X167664569Y-106668866D02*
G01*
X167822871Y-106716660D01*
X167968872Y-106794289D01*
X168097015Y-106898800D01*
X168202418Y-107026209D01*
X168281069Y-107171671D01*
X168329966Y-107329631D01*
X168348001Y-107501221D01*
X168348000Y-113807461D01*
X168348694Y-113814503D01*
X168348650Y-113820758D01*
X168348857Y-113822870D01*
X168369258Y-114016967D01*
X168372027Y-114030457D01*
X168374609Y-114043994D01*
X168375223Y-114046025D01*
X168432935Y-114232463D01*
X168438260Y-114245130D01*
X168443434Y-114257937D01*
X168444430Y-114259811D01*
X168537255Y-114431487D01*
X168544954Y-114442902D01*
X168552503Y-114454437D01*
X168553844Y-114456082D01*
X168678248Y-114606459D01*
X168688043Y-114616186D01*
X168697663Y-114626010D01*
X168699298Y-114627363D01*
X168850540Y-114750713D01*
X168862020Y-114758340D01*
X168873382Y-114766120D01*
X168875248Y-114767129D01*
X169047571Y-114858754D01*
X169060314Y-114864007D01*
X169072970Y-114869431D01*
X169074997Y-114870059D01*
X169261833Y-114926468D01*
X169275393Y-114929153D01*
X169288823Y-114932008D01*
X169290933Y-114932230D01*
X169485167Y-114951275D01*
X169485178Y-114951275D01*
X169492538Y-114952000D01*
X169826146Y-114952000D01*
X169821418Y-115000000D01*
X169821418Y-116773000D01*
X169651133Y-116773000D01*
X168117000Y-115238868D01*
X168117000Y-111034292D01*
X168106480Y-110927483D01*
X168064910Y-110790443D01*
X167997403Y-110664147D01*
X167968582Y-110629029D01*
X167968582Y-110000000D01*
X167962268Y-109935897D01*
X167943570Y-109874257D01*
X167913206Y-109817450D01*
X167872343Y-109767657D01*
X167850827Y-109750000D01*
X167872343Y-109732343D01*
X167913206Y-109682550D01*
X167943570Y-109625743D01*
X167962268Y-109564103D01*
X167968582Y-109500000D01*
X167968582Y-108870972D01*
X167997403Y-108835853D01*
X168064910Y-108709557D01*
X168106480Y-108572517D01*
X168120517Y-108430000D01*
X168106480Y-108287483D01*
X168064910Y-108150443D01*
X167997403Y-108024147D01*
X167968582Y-107989028D01*
X167968582Y-107360000D01*
X167962268Y-107295897D01*
X167943570Y-107234257D01*
X167913206Y-107177450D01*
X167872343Y-107127657D01*
X167822550Y-107086794D01*
X167765743Y-107056430D01*
X167704103Y-107037732D01*
X167640000Y-107031418D01*
X167140000Y-107031418D01*
X167075897Y-107037732D01*
X167014257Y-107056430D01*
X166957450Y-107086794D01*
X166907657Y-107127657D01*
X166866794Y-107177450D01*
X166836430Y-107234257D01*
X166817732Y-107295897D01*
X166811418Y-107360000D01*
X166811418Y-107703000D01*
X166605708Y-107703000D01*
X166570000Y-107699483D01*
X166427482Y-107713520D01*
X166290443Y-107755090D01*
X166164147Y-107822597D01*
X166053446Y-107913446D01*
X166030683Y-107941183D01*
X163688582Y-110283286D01*
X163688582Y-110044002D01*
X163720540Y-110026447D01*
X163816317Y-109945994D01*
X163894558Y-109848401D01*
X163952257Y-109737419D01*
X163987195Y-109617314D01*
X163998030Y-109492700D01*
X163995000Y-108715750D01*
X163836250Y-108557000D01*
X163233000Y-108557000D01*
X163233000Y-108577000D01*
X162987000Y-108577000D01*
X162987000Y-108557000D01*
X162963000Y-108557000D01*
X162963000Y-108303000D01*
X162987000Y-108303000D01*
X162987000Y-106883750D01*
X163233000Y-106883750D01*
X163233000Y-108303000D01*
X163836250Y-108303000D01*
X163995000Y-108144250D01*
X163998030Y-107367300D01*
X163987195Y-107242686D01*
X163952257Y-107122581D01*
X163894558Y-107011599D01*
X163816317Y-106914006D01*
X163720540Y-106833553D01*
X163610908Y-106773331D01*
X163491633Y-106735653D01*
X163391750Y-106725000D01*
X163233000Y-106883750D01*
X162987000Y-106883750D01*
X162828250Y-106725000D01*
X162728367Y-106735653D01*
X162609092Y-106773331D01*
X162499460Y-106833553D01*
X162403683Y-106914006D01*
X162325442Y-107011599D01*
X162267743Y-107122581D01*
X162232805Y-107242686D01*
X162229021Y-107286211D01*
X162180537Y-107195506D01*
X162101185Y-107098815D01*
X162004494Y-107019463D01*
X161894180Y-106960498D01*
X161774482Y-106924188D01*
X161650000Y-106911928D01*
X160785750Y-106915000D01*
X160627000Y-107073750D01*
X160627000Y-108573000D01*
X160647000Y-108573000D01*
X160647000Y-108827000D01*
X160627000Y-108827000D01*
X160627000Y-110326250D01*
X160785750Y-110485000D01*
X161650000Y-110488072D01*
X161774482Y-110475812D01*
X161894180Y-110439502D01*
X162004494Y-110380537D01*
X162101185Y-110301185D01*
X162180537Y-110204494D01*
X162239502Y-110094180D01*
X162275812Y-109974482D01*
X162288072Y-109850000D01*
X162287809Y-109776015D01*
X162325442Y-109848401D01*
X162403683Y-109945994D01*
X162499460Y-110026447D01*
X162531418Y-110044002D01*
X162531418Y-110629028D01*
X162502597Y-110664147D01*
X162435090Y-110790443D01*
X162393520Y-110927483D01*
X162379483Y-111070000D01*
X162393520Y-111212517D01*
X162435090Y-111349557D01*
X162502597Y-111475853D01*
X162531418Y-111510972D01*
X162531418Y-112140000D01*
X162537732Y-112204103D01*
X162556430Y-112265743D01*
X162586794Y-112322550D01*
X162627657Y-112372343D01*
X162677450Y-112413206D01*
X162734257Y-112443570D01*
X162795897Y-112462268D01*
X162860000Y-112468582D01*
X163360000Y-112468582D01*
X163424103Y-112462268D01*
X163485743Y-112443570D01*
X163542550Y-112413206D01*
X163592343Y-112372343D01*
X163633206Y-112322550D01*
X163663570Y-112265743D01*
X163682268Y-112204103D01*
X163688582Y-112140000D01*
X163688582Y-111797000D01*
X163894292Y-111797000D01*
X163930000Y-111800517D01*
X164072517Y-111786480D01*
X164209557Y-111744910D01*
X164335853Y-111677403D01*
X164446554Y-111586554D01*
X164469326Y-111558806D01*
X166811418Y-109216716D01*
X166811418Y-109500000D01*
X166817732Y-109564103D01*
X166836430Y-109625743D01*
X166866794Y-109682550D01*
X166907657Y-109732343D01*
X166929173Y-109750000D01*
X166907657Y-109767657D01*
X166866794Y-109817450D01*
X166836430Y-109874257D01*
X166817732Y-109935897D01*
X166811418Y-110000000D01*
X166811418Y-110629029D01*
X166782597Y-110664148D01*
X166715090Y-110790444D01*
X166673520Y-110927484D01*
X166663000Y-111034293D01*
X166663001Y-115504282D01*
X166659483Y-115540000D01*
X166673520Y-115682517D01*
X166715090Y-115819556D01*
X166782106Y-115944933D01*
X166782598Y-115945853D01*
X166873447Y-116056554D01*
X166901189Y-116079321D01*
X168810679Y-117988812D01*
X168833446Y-118016554D01*
X168944147Y-118107403D01*
X169070443Y-118174910D01*
X169207482Y-118216480D01*
X169350000Y-118230517D01*
X169385708Y-118227000D01*
X169821418Y-118227000D01*
X169821418Y-120000000D01*
X169827732Y-120064103D01*
X169846430Y-120125743D01*
X169876794Y-120182550D01*
X169917657Y-120232343D01*
X169967450Y-120273206D01*
X170024257Y-120303570D01*
X170085897Y-120322268D01*
X170150000Y-120328582D01*
X172650000Y-120328582D01*
X172714103Y-120322268D01*
X172775743Y-120303570D01*
X172832550Y-120273206D01*
X172882343Y-120232343D01*
X172923206Y-120182550D01*
X172953570Y-120125743D01*
X172972268Y-120064103D01*
X172978582Y-120000000D01*
X172978582Y-115000000D01*
X172973854Y-114952000D01*
X172992561Y-114952000D01*
X173455920Y-114997433D01*
X173894473Y-115129839D01*
X174298959Y-115344907D01*
X174653969Y-115634446D01*
X174945975Y-115987423D01*
X175163864Y-116390399D01*
X175299329Y-116828015D01*
X175347967Y-117290775D01*
X175348001Y-117300531D01*
X175348000Y-152292561D01*
X175302567Y-152755922D01*
X175170159Y-153194477D01*
X174955091Y-153598961D01*
X174665554Y-153953969D01*
X174312577Y-154245977D01*
X173909601Y-154463864D01*
X173471984Y-154599329D01*
X173009225Y-154647967D01*
X172999755Y-154648000D01*
X148007439Y-154648000D01*
X147544078Y-154602567D01*
X147105523Y-154470159D01*
X146701039Y-154255091D01*
X146346031Y-153965554D01*
X146054023Y-153612577D01*
X145836136Y-153209601D01*
X145700671Y-152771984D01*
X145652033Y-152309225D01*
X145652000Y-152299755D01*
X145652000Y-123610207D01*
X147573000Y-123610207D01*
X147573000Y-123989793D01*
X147647053Y-124362085D01*
X147792315Y-124712777D01*
X148003201Y-125028391D01*
X148271609Y-125296799D01*
X148587223Y-125507685D01*
X148937915Y-125652947D01*
X149310207Y-125727000D01*
X149689793Y-125727000D01*
X150062085Y-125652947D01*
X150412777Y-125507685D01*
X150728391Y-125296799D01*
X150996799Y-125028391D01*
X151207685Y-124712777D01*
X151352947Y-124362085D01*
X151427000Y-123989793D01*
X151427000Y-123610207D01*
X169573000Y-123610207D01*
X169573000Y-123989793D01*
X169647053Y-124362085D01*
X169792315Y-124712777D01*
X170003201Y-125028391D01*
X170271609Y-125296799D01*
X170587223Y-125507685D01*
X170937915Y-125652947D01*
X171310207Y-125727000D01*
X171689793Y-125727000D01*
X172062085Y-125652947D01*
X172412777Y-125507685D01*
X172728391Y-125296799D01*
X172996799Y-125028391D01*
X173207685Y-124712777D01*
X173352947Y-124362085D01*
X173427000Y-123989793D01*
X173427000Y-123610207D01*
X173352947Y-123237915D01*
X173207685Y-122887223D01*
X172996799Y-122571609D01*
X172728391Y-122303201D01*
X172412777Y-122092315D01*
X172062085Y-121947053D01*
X171689793Y-121873000D01*
X171310207Y-121873000D01*
X170937915Y-121947053D01*
X170587223Y-122092315D01*
X170271609Y-122303201D01*
X170003201Y-122571609D01*
X169792315Y-122887223D01*
X169647053Y-123237915D01*
X169573000Y-123610207D01*
X151427000Y-123610207D01*
X151352947Y-123237915D01*
X151207685Y-122887223D01*
X150996799Y-122571609D01*
X150728391Y-122303201D01*
X150412777Y-122092315D01*
X150062085Y-121947053D01*
X149689793Y-121873000D01*
X149310207Y-121873000D01*
X148937915Y-121947053D01*
X148587223Y-122092315D01*
X148271609Y-122303201D01*
X148003201Y-122571609D01*
X147792315Y-122887223D01*
X147647053Y-123237915D01*
X147573000Y-123610207D01*
X145652000Y-123610207D01*
X145652000Y-117307439D01*
X145697433Y-116844080D01*
X145829839Y-116405527D01*
X146044907Y-116001041D01*
X146334446Y-115646031D01*
X146687423Y-115354025D01*
X147090399Y-115136136D01*
X147528015Y-115000671D01*
X147990775Y-114952033D01*
X148000245Y-114952000D01*
X148026146Y-114952000D01*
X148021418Y-115000000D01*
X148021418Y-120000000D01*
X148027732Y-120064103D01*
X148046430Y-120125743D01*
X148076794Y-120182550D01*
X148117657Y-120232343D01*
X148167450Y-120273206D01*
X148224257Y-120303570D01*
X148285897Y-120322268D01*
X148350000Y-120328582D01*
X150850000Y-120328582D01*
X150914103Y-120322268D01*
X150975743Y-120303570D01*
X151032550Y-120273206D01*
X151082343Y-120232343D01*
X151123206Y-120182550D01*
X151153570Y-120125743D01*
X151172268Y-120064103D01*
X151178582Y-120000000D01*
X151178582Y-118227000D01*
X151614292Y-118227000D01*
X151650000Y-118230517D01*
X151792517Y-118216480D01*
X151929557Y-118174910D01*
X152055853Y-118107403D01*
X152166554Y-118016554D01*
X152189326Y-117988806D01*
X154098816Y-116079317D01*
X154126553Y-116056554D01*
X154217403Y-115945853D01*
X154284910Y-115819557D01*
X154305784Y-115750743D01*
X154326480Y-115682518D01*
X154340517Y-115540000D01*
X154337000Y-115504292D01*
X154337000Y-114300000D01*
X158668999Y-114300000D01*
X158684966Y-114462120D01*
X158732255Y-114618010D01*
X158809048Y-114761679D01*
X158912394Y-114887606D01*
X159038321Y-114990952D01*
X159181990Y-115067745D01*
X159337880Y-115115034D01*
X159459376Y-115127000D01*
X161540624Y-115127000D01*
X161662120Y-115115034D01*
X161818010Y-115067745D01*
X161961679Y-114990952D01*
X162087606Y-114887606D01*
X162190952Y-114761679D01*
X162267745Y-114618010D01*
X162315034Y-114462120D01*
X162331001Y-114300000D01*
X162315034Y-114137880D01*
X162267745Y-113981990D01*
X162190952Y-113838321D01*
X162087606Y-113712394D01*
X161961679Y-113609048D01*
X161818010Y-113532255D01*
X161662120Y-113484966D01*
X161540624Y-113473000D01*
X159459376Y-113473000D01*
X159337880Y-113484966D01*
X159181990Y-113532255D01*
X159038321Y-113609048D01*
X158912394Y-113712394D01*
X158809048Y-113838321D01*
X158732255Y-113981990D01*
X158684966Y-114137880D01*
X158668999Y-114300000D01*
X154337000Y-114300000D01*
X154337000Y-111034292D01*
X154326480Y-110927483D01*
X154284910Y-110790443D01*
X154217403Y-110664147D01*
X154188582Y-110629028D01*
X154188582Y-110000000D01*
X154182268Y-109935897D01*
X154163570Y-109874257D01*
X154133206Y-109817450D01*
X154092343Y-109767657D01*
X154070827Y-109750000D01*
X154092343Y-109732343D01*
X154133206Y-109682550D01*
X154163570Y-109625743D01*
X154182268Y-109564103D01*
X154188582Y-109500000D01*
X154188582Y-109216714D01*
X156530683Y-111558817D01*
X156553446Y-111586554D01*
X156664147Y-111677403D01*
X156790443Y-111744910D01*
X156927482Y-111786480D01*
X157070000Y-111800517D01*
X157105708Y-111797000D01*
X157311418Y-111797000D01*
X157311418Y-112140000D01*
X157317732Y-112204103D01*
X157336430Y-112265743D01*
X157366794Y-112322550D01*
X157407657Y-112372343D01*
X157457450Y-112413206D01*
X157514257Y-112443570D01*
X157575897Y-112462268D01*
X157640000Y-112468582D01*
X158140000Y-112468582D01*
X158204103Y-112462268D01*
X158265743Y-112443570D01*
X158322550Y-112413206D01*
X158372343Y-112372343D01*
X158413206Y-112322550D01*
X158443570Y-112265743D01*
X158462268Y-112204103D01*
X158468582Y-112140000D01*
X158468582Y-111510972D01*
X158497403Y-111475853D01*
X158564910Y-111349557D01*
X158606480Y-111212517D01*
X158620517Y-111070000D01*
X158606480Y-110927483D01*
X158564910Y-110790443D01*
X158497403Y-110664147D01*
X158468582Y-110629028D01*
X158468582Y-110044002D01*
X158500540Y-110026447D01*
X158596317Y-109945994D01*
X158674558Y-109848401D01*
X158712191Y-109776015D01*
X158711928Y-109850000D01*
X158724188Y-109974482D01*
X158760498Y-110094180D01*
X158819463Y-110204494D01*
X158898815Y-110301185D01*
X158995506Y-110380537D01*
X159105820Y-110439502D01*
X159225518Y-110475812D01*
X159350000Y-110488072D01*
X160214250Y-110485000D01*
X160373000Y-110326250D01*
X160373000Y-108827000D01*
X160353000Y-108827000D01*
X160353000Y-108573000D01*
X160373000Y-108573000D01*
X160373000Y-107073750D01*
X160214250Y-106915000D01*
X159350000Y-106911928D01*
X159225518Y-106924188D01*
X159105820Y-106960498D01*
X158995506Y-107019463D01*
X158898815Y-107098815D01*
X158819463Y-107195506D01*
X158770979Y-107286211D01*
X158767195Y-107242686D01*
X158732257Y-107122581D01*
X158674558Y-107011599D01*
X158596317Y-106914006D01*
X158500540Y-106833553D01*
X158390908Y-106773331D01*
X158271633Y-106735653D01*
X158171750Y-106725000D01*
X158013000Y-106883750D01*
X158013000Y-108303000D01*
X158037000Y-108303000D01*
X158037000Y-108557000D01*
X158013000Y-108557000D01*
X158013000Y-108577000D01*
X157767000Y-108577000D01*
X157767000Y-108557000D01*
X157163750Y-108557000D01*
X157005000Y-108715750D01*
X157001970Y-109492700D01*
X157012805Y-109617314D01*
X157047743Y-109737419D01*
X157105442Y-109848401D01*
X157183683Y-109945994D01*
X157279460Y-110026447D01*
X157311418Y-110044002D01*
X157311418Y-110283284D01*
X154969326Y-107941194D01*
X154946554Y-107913446D01*
X154835853Y-107822597D01*
X154709557Y-107755090D01*
X154572517Y-107713520D01*
X154465708Y-107703000D01*
X154430000Y-107699483D01*
X154394292Y-107703000D01*
X154188582Y-107703000D01*
X154188582Y-107367300D01*
X157001970Y-107367300D01*
X157005000Y-108144250D01*
X157163750Y-108303000D01*
X157767000Y-108303000D01*
X157767000Y-106883750D01*
X157608250Y-106725000D01*
X157508367Y-106735653D01*
X157389092Y-106773331D01*
X157279460Y-106833553D01*
X157183683Y-106914006D01*
X157105442Y-107011599D01*
X157047743Y-107122581D01*
X157012805Y-107242686D01*
X157001970Y-107367300D01*
X154188582Y-107367300D01*
X154188582Y-107360000D01*
X154182268Y-107295897D01*
X154163570Y-107234257D01*
X154133206Y-107177450D01*
X154092343Y-107127657D01*
X154042550Y-107086794D01*
X153985743Y-107056430D01*
X153924103Y-107037732D01*
X153860000Y-107031418D01*
X153360000Y-107031418D01*
X153295897Y-107037732D01*
X153234257Y-107056430D01*
X153177450Y-107086794D01*
X153127657Y-107127657D01*
X153086794Y-107177450D01*
X153056430Y-107234257D01*
X153037732Y-107295897D01*
X153031418Y-107360000D01*
X153031418Y-107989028D01*
X153002597Y-108024147D01*
X152935090Y-108150443D01*
X152893520Y-108287483D01*
X152879483Y-108430000D01*
X152893520Y-108572517D01*
X152935090Y-108709557D01*
X153002597Y-108835853D01*
X153031418Y-108870972D01*
X153031418Y-109500000D01*
X153037732Y-109564103D01*
X153056430Y-109625743D01*
X153086794Y-109682550D01*
X153127657Y-109732343D01*
X153149173Y-109750000D01*
X153127657Y-109767657D01*
X153086794Y-109817450D01*
X153056430Y-109874257D01*
X153037732Y-109935897D01*
X153031418Y-110000000D01*
X153031418Y-110629029D01*
X153002598Y-110664147D01*
X152935091Y-110790443D01*
X152893521Y-110927483D01*
X152883001Y-111034292D01*
X152883000Y-115238867D01*
X151348868Y-116773000D01*
X151178582Y-116773000D01*
X151178582Y-115000000D01*
X151173854Y-114952000D01*
X151507462Y-114952000D01*
X151514504Y-114951306D01*
X151520758Y-114951350D01*
X151522870Y-114951143D01*
X151716967Y-114930742D01*
X151730457Y-114927973D01*
X151743994Y-114925391D01*
X151746023Y-114924778D01*
X151746029Y-114924776D01*
X151932463Y-114867065D01*
X151945130Y-114861740D01*
X151957937Y-114856566D01*
X151959811Y-114855570D01*
X152131487Y-114762745D01*
X152142902Y-114755046D01*
X152154437Y-114747497D01*
X152156082Y-114746156D01*
X152306459Y-114621752D01*
X152316186Y-114611957D01*
X152326010Y-114602337D01*
X152327363Y-114600702D01*
X152450713Y-114449460D01*
X152458340Y-114437980D01*
X152466120Y-114426618D01*
X152467129Y-114424752D01*
X152558754Y-114252429D01*
X152564007Y-114239686D01*
X152569431Y-114227030D01*
X152570059Y-114225003D01*
X152626468Y-114038167D01*
X152629153Y-114024607D01*
X152632008Y-114011177D01*
X152632230Y-114009067D01*
X152651275Y-113814833D01*
X152651275Y-113814822D01*
X152652000Y-113807462D01*
X152652000Y-107507439D01*
X152668866Y-107335431D01*
X152716660Y-107177129D01*
X152794289Y-107031128D01*
X152898800Y-106902985D01*
X153026209Y-106797582D01*
X153171671Y-106718931D01*
X153329631Y-106670034D01*
X153501211Y-106652000D01*
X167492561Y-106652000D01*
X167664569Y-106668866D01*
G37*
%TD.AperFunction*%
%TD*%
M02*
