%TF.GenerationSoftware,KiCad,Pcbnew,(5.1.8)-1*%
%TF.CreationDate,2021-08-18T01:06:56+02:00*%
%TF.ProjectId,Haubenblitzer_LED,48617562-656e-4626-9c69-747a65725f4c,rev?*%
%TF.SameCoordinates,Original*%
%TF.FileFunction,Legend,Top*%
%TF.FilePolarity,Positive*%
%FSLAX46Y46*%
G04 Gerber Fmt 4.6, Leading zero omitted, Abs format (unit mm)*
G04 Created by KiCad (PCBNEW (5.1.8)-1) date 2021-08-18 01:06:56*
%MOMM*%
%LPD*%
G01*
G04 APERTURE LIST*
%ADD10C,0.150000*%
%ADD11C,0.120000*%
%ADD12C,0.050000*%
G04 APERTURE END LIST*
D10*
X156000000Y-123850000D02*
G75*
G03*
X156000000Y-123850000I-400000J0D01*
G01*
D11*
X155600000Y-123850000D02*
X154850000Y-123100000D01*
D10*
X154600001Y-123849999D02*
G75*
G02*
X156599999Y-123849999I999999J-999999D01*
G01*
X156599999Y-123899999D02*
G75*
G02*
X154600001Y-123899999I-999999J999999D01*
G01*
D11*
X158900000Y-122850000D02*
X159850000Y-124500000D01*
X154850000Y-123100000D02*
X156350000Y-124600000D01*
X158900000Y-122850000D02*
X157950000Y-124500000D01*
X159850000Y-124500000D02*
X157950000Y-124500000D01*
D10*
X155670711Y-123850000D02*
G75*
G03*
X155670711Y-123850000I-70711J0D01*
G01*
X158900000Y-124207142D02*
X158947619Y-124254761D01*
X158900000Y-124302380D01*
X158852380Y-124254761D01*
X158900000Y-124207142D01*
X158900000Y-124302380D01*
X158900000Y-123921428D02*
X158852380Y-123350000D01*
X158900000Y-123302380D01*
X158947619Y-123350000D01*
X158900000Y-123921428D01*
X158900000Y-123302380D01*
X162100000Y-123800000D02*
G75*
G03*
X162100000Y-123800000I-50000J0D01*
G01*
X161999927Y-123399875D02*
G75*
G02*
X161999999Y-124199999I-699927J-400125D01*
G01*
X161300000Y-123800000D02*
X162200000Y-124300000D01*
X161300000Y-123800000D02*
X162200000Y-123300000D01*
D12*
X164000000Y-123800000D02*
X165500000Y-123800000D01*
X164000000Y-123800000D02*
X163800000Y-124300000D01*
X164000000Y-123800000D02*
X164200000Y-123300000D01*
X164000000Y-123800000D02*
X163800000Y-123300000D01*
X164000000Y-123800000D02*
X163500000Y-123600000D01*
X164000000Y-123800000D02*
X164200000Y-124300000D01*
X164000000Y-123800000D02*
X164500000Y-124000000D01*
X164000000Y-123800000D02*
X163500000Y-124000000D01*
X164000000Y-123800000D02*
X164500000Y-123600000D01*
X164000000Y-123800000D02*
X163500000Y-124300000D01*
X164000000Y-123800000D02*
X164500000Y-123300000D01*
X164000000Y-123800000D02*
X163500000Y-123300000D01*
X164000000Y-123800000D02*
X164500000Y-124300000D01*
X164000000Y-123800000D02*
X164000000Y-124507107D01*
X164000000Y-123800000D02*
X163292893Y-123800000D01*
X164000000Y-123800000D02*
X164000000Y-123092893D01*
X164000000Y-123800000D02*
X164707107Y-123800000D01*
D11*
%TO.C,D1*%
X154250000Y-112400000D02*
X158400000Y-112400000D01*
X154250000Y-107100000D02*
X158400000Y-107100000D01*
X158400000Y-107100000D02*
X158400000Y-107600000D01*
X158400000Y-112400000D02*
X158400000Y-111850000D01*
%TO.C,D2*%
X166750000Y-107100000D02*
X162600000Y-107100000D01*
X166750000Y-112400000D02*
X162600000Y-112400000D01*
X162600000Y-112400000D02*
X162600000Y-111900000D01*
X162600000Y-107100000D02*
X162600000Y-107650000D01*
%TD*%
M02*
